{"glyphs":{"0":{"ha":882,"x_min":68,"x_max":814,"o":"m 449 -21 q 319 -2 376 -21 q 226 60 263 17 q 109 182 150 101 q 68 354 68 263 q 80 512 68 425 q 117 686 92 599 q 185 847 143 774 q 288 965 226 921 q 433 1010 350 1010 q 538 994 490 1010 q 619 935 585 979 q 734 867 692 915 q 795 758 776 819 q 814 635 814 696 q 802 477 814 564 q 765 303 790 390 q 698 142 740 215 q 594 24 656 68 q 449 -21 532 -21 m 378 128 q 460 162 422 128 q 526 253 497 196 q 576 379 556 310 q 606 522 596 449 q 617 658 617 594 q 592 815 617 769 q 504 861 567 861 q 417 827 456 861 q 349 736 378 793 q 302 610 321 679 q 274 468 283 540 q 265 331 265 396 q 290 174 265 221 q 378 128 315 128 z "},"1":{"ha":532,"x_min":25,"x_max":431,"o":"m 354 -18 q 306 -10 333 -18 q 251 18 278 -3 q 206 79 224 39 q 188 185 188 119 q 190 369 188 246 q 211 668 193 492 q 169 645 190 654 q 131 636 149 636 q 58 660 90 636 q 25 726 25 683 q 38 751 25 743 q 188 872 128 806 q 286 999 247 939 q 340 987 310 999 q 390 939 369 975 q 422 912 414 931 q 431 868 431 893 q 426 760 431 832 q 415 593 422 688 q 402 395 408 499 q 391 190 396 292 q 385 3 386 89 q 376 -14 385 -10 q 354 -18 367 -18 z "},"2":{"ha":711,"x_min":13,"x_max":668,"o":"m 275 -24 q 161 -8 210 -24 q 92 47 113 8 q 40 95 54 63 q 25 167 25 128 q 160 290 94 219 q 283 439 226 361 q 381 590 339 517 q 447 722 424 663 q 471 813 471 781 q 419 863 471 863 q 349 835 389 863 q 265 760 308 807 q 185 654 222 714 q 125 529 149 594 q 41 594 69 549 q 13 689 13 639 q 41 793 13 739 q 116 894 69 847 q 221 971 163 942 q 339 1000 279 1000 q 450 986 400 1000 q 539 922 500 972 q 631 850 600 903 q 663 744 663 797 q 629 617 663 690 q 538 464 596 544 q 403 305 479 383 q 244 163 328 226 l 244 160 q 365 190 297 175 q 496 206 433 206 q 617 177 567 206 q 668 72 668 149 q 660 53 668 58 q 642 47 651 47 q 574 37 622 47 q 467 12 525 26 q 356 -13 408 -3 q 275 -24 303 -24 z "},"3":{"ha":701,"x_min":39,"x_max":654,"o":"m 211 -40 q 147 -22 178 -40 q 92 26 117 -3 q 53 85 67 56 q 39 138 39 115 q 43 158 39 149 q 60 168 47 168 q 257 184 179 168 q 381 226 335 200 q 445 284 426 253 q 464 346 464 315 q 452 381 464 363 q 407 403 440 399 q 278 375 340 375 q 251 381 261 375 q 207 415 232 393 q 163 463 182 436 q 144 515 144 490 q 149 540 144 524 q 172 556 154 556 q 310 578 250 556 q 410 638 369 601 q 473 712 451 674 q 494 779 494 750 q 477 833 494 811 q 415 854 460 854 q 344 835 382 854 q 270 785 306 815 q 207 717 235 754 q 164 646 179 681 q 80 710 108 665 q 51 806 51 756 q 87 897 51 853 q 188 971 122 942 q 344 1000 254 1000 q 462 981 408 1000 q 543 917 515 961 q 630 840 606 889 q 654 750 654 790 q 625 618 654 678 q 542 506 596 558 q 624 430 597 476 q 651 326 651 383 q 626 199 651 264 q 547 81 600 135 q 410 -7 493 26 q 211 -40 326 -40 z "},"4":{"ha":808,"x_min":31,"x_max":789,"o":"m 604 -18 q 542 -9 578 -18 q 478 24 506 0 q 450 92 450 47 q 453 139 450 115 q 460 211 457 163 q 351 192 400 200 q 279 183 301 183 q 183 193 226 183 q 125 229 139 203 q 53 278 75 240 q 31 357 31 317 q 114 526 79 433 q 172 710 149 619 q 206 872 194 801 q 217 975 217 943 q 233 991 219 986 q 265 996 247 996 q 330 977 299 996 q 382 924 361 958 q 403 840 403 889 q 390 741 403 804 q 354 605 378 678 q 298 465 331 532 q 226 353 265 397 l 226 350 q 296 369 253 357 q 388 393 339 382 q 478 407 438 404 q 483 560 481 488 q 486 679 485 633 q 488 725 488 725 q 504 741 490 736 q 536 746 518 746 q 603 731 569 746 q 658 688 636 717 q 678 615 681 660 l 669 408 q 753 369 718 397 q 789 292 789 342 q 781 272 789 278 q 763 267 772 267 q 722 263 753 267 q 660 253 692 260 q 648 130 654 193 q 635 3 642 67 q 604 -18 632 -18 z "},"5":{"ha":693,"x_min":18,"x_max":651,"o":"m 189 -25 q 125 -6 156 -25 q 70 42 94 13 q 32 101 46 71 q 18 153 18 131 q 33 183 18 176 q 351 246 254 183 q 447 426 447 308 l 300 426 q 203 438 246 426 q 139 478 160 449 q 71 528 90 493 q 51 601 51 563 q 71 933 51 774 q 144 953 99 942 q 244 974 190 964 q 350 992 297 985 q 444 1000 403 1000 q 548 989 501 1000 q 623 950 594 978 q 651 874 651 922 q 643 854 651 860 q 625 849 635 849 q 559 841 606 849 q 456 824 513 833 q 350 804 400 814 q 272 790 300 794 l 272 611 q 357 606 306 611 q 461 582 408 600 q 550 524 514 564 q 622 462 597 506 q 646 361 646 418 q 631 273 646 324 q 585 171 617 222 q 500 75 553 119 q 370 3 447 31 q 189 -25 293 -25 z "},"6":{"ha":797,"x_min":68,"x_max":725,"o":"m 386 -21 q 301 -7 347 -21 q 225 43 254 7 q 110 166 151 79 q 68 393 68 253 q 94 567 68 479 q 165 736 119 656 q 273 881 211 817 q 408 981 335 944 q 560 1018 481 1018 q 634 997 596 1018 q 699 947 672 976 q 725 893 725 918 q 714 868 725 876 q 482 786 590 849 q 315 611 374 724 q 380 647 346 635 q 451 660 414 660 q 547 638 496 660 q 619 571 599 617 q 692 494 668 546 q 717 382 717 443 q 690 222 717 294 q 616 94 663 149 q 510 9 569 39 q 386 -21 451 -21 m 353 117 q 417 146 385 117 q 478 227 450 175 q 521 348 506 279 q 531 497 536 417 q 475 510 506 510 q 394 488 435 510 q 321 431 353 467 q 275 351 289 394 q 295 169 272 222 q 353 117 318 117 z "},"7":{"ha":679,"x_min":21,"x_max":636,"o":"m 231 -24 q 157 -6 190 -24 q 104 38 124 11 q 85 93 85 65 q 90 113 85 103 q 103 129 96 122 q 272 336 204 233 q 384 556 339 439 q 465 821 429 674 q 249 782 346 782 q 85 825 149 782 q 21 961 21 868 q 31 978 21 974 q 50 983 40 983 q 120 986 69 983 q 231 992 171 989 q 347 997 292 994 q 429 1000 401 1000 q 524 992 482 1000 q 581 951 567 983 q 626 908 615 932 q 636 849 636 885 q 626 758 636 819 q 598 617 617 697 q 553 449 579 536 q 492 277 526 361 q 417 125 457 193 q 329 17 376 57 q 231 -24 282 -24 z "},"8":{"ha":792,"x_min":40,"x_max":743,"o":"m 372 -21 q 274 -8 322 -21 q 197 40 226 6 q 86 120 122 71 q 47 218 50 169 q 89 383 40 299 q 247 521 138 467 q 164 606 193 561 q 129 724 135 650 q 156 860 125 793 q 255 970 188 926 q 424 1014 322 1014 q 538 998 483 1014 q 622 943 592 982 q 707 880 679 921 q 738 799 735 839 q 703 649 743 719 q 582 508 664 579 q 725 308 717 436 q 715 240 728 282 q 674 153 701 199 q 604 69 647 108 q 503 4 561 29 q 372 -21 446 -21 m 392 564 q 472 624 440 582 q 521 720 504 667 q 538 824 538 774 q 529 890 538 860 q 423 856 464 890 q 363 773 382 822 q 344 676 344 724 q 357 604 344 636 q 392 564 369 572 m 311 101 q 415 157 371 114 q 484 255 460 200 q 508 354 508 310 q 492 413 508 390 q 440 436 476 436 q 306 325 347 393 q 264 199 264 257 q 311 101 264 128 z "},"9":{"ha":797,"x_min":72,"x_max":729,"o":"m 411 1013 q 497 999 450 1013 q 572 949 543 985 q 688 826 646 913 q 729 599 729 739 q 703 424 729 513 q 632 256 678 336 q 524 111 586 175 q 390 10 463 47 q 238 -26 317 -26 q 163 -6 201 -26 q 99 45 125 15 q 72 99 72 75 q 83 124 72 115 q 315 206 207 143 q 482 381 424 268 q 417 344 451 357 q 346 332 383 332 q 250 353 301 332 q 178 421 199 375 q 106 497 131 446 q 81 610 81 549 q 108 770 81 697 q 181 898 135 843 q 288 983 228 953 q 411 1013 347 1013 m 444 875 q 381 846 414 875 q 319 765 347 817 q 276 644 292 713 q 267 494 261 575 q 322 482 292 482 q 404 503 364 482 q 476 561 444 525 q 522 640 508 597 q 503 822 525 769 q 444 875 481 875 z "}," ":{"ha":347,"x_min":0,"x_max":0,"o":""}," ":{"ha":347,"x_min":0,"x_max":0,"o":""},"A":{"ha":819,"x_min":22,"x_max":776,"o":"m 183 -60 q 99 -24 136 -60 q 63 83 63 11 q 71 149 63 113 q 35 194 47 168 q 22 238 22 219 q 42 256 24 249 q 107 268 61 263 q 203 528 149 386 q 332 836 258 669 q 378 872 349 872 q 404 865 390 872 q 399 944 401 906 q 412 993 397 978 q 449 1008 426 1008 q 508 988 476 1008 q 564 929 540 967 q 589 839 588 892 q 598 703 590 786 q 617 526 606 621 q 640 339 628 431 q 701 319 669 335 q 754 278 732 303 q 776 224 776 254 q 761 196 776 201 q 722 190 746 190 l 689 190 q 676 190 682 190 q 663 190 669 190 q 683 81 674 125 q 701 22 693 36 q 690 -6 710 8 q 646 -19 671 -19 q 563 14 599 -19 q 511 140 526 47 q 507 167 508 153 l 247 126 q 217 33 232 79 q 205 -24 206 -3 q 203 -52 204 -44 q 183 -60 201 -60 m 433 597 q 369 444 400 519 q 310 297 339 369 l 479 321 q 455 458 467 390 q 433 597 443 526 z "},"Á":{"ha":819,"x_min":22,"x_max":776,"o":"m 183 -60 q 99 -24 136 -60 q 63 83 63 11 q 71 149 63 113 q 35 194 47 168 q 22 238 22 219 q 42 256 24 249 q 107 268 61 263 q 203 528 149 386 q 332 836 258 669 q 378 872 349 872 q 404 865 390 872 q 399 944 401 906 q 412 993 397 978 q 449 1008 426 1008 q 508 988 476 1008 q 564 929 540 967 q 589 839 588 892 q 598 703 590 786 q 617 526 606 621 q 640 339 628 431 q 701 319 669 335 q 754 278 732 303 q 776 224 776 254 q 761 196 776 201 q 722 190 746 190 l 689 190 q 676 190 682 190 q 663 190 669 190 q 683 81 674 125 q 701 22 693 36 q 690 -6 710 8 q 646 -19 671 -19 q 563 14 599 -19 q 511 140 526 47 q 507 167 508 153 l 247 126 q 217 33 232 79 q 205 -24 206 -3 q 203 -52 204 -44 q 183 -60 201 -60 m 433 597 q 369 444 400 519 q 310 297 339 369 l 479 321 q 455 458 467 390 q 433 597 443 526 m 500 1058 q 453 1075 474 1058 q 433 1110 433 1092 q 446 1135 433 1125 q 500 1182 467 1153 q 569 1244 533 1211 q 633 1306 606 1278 q 672 1324 651 1324 q 716 1305 696 1324 q 749 1258 736 1286 q 763 1204 763 1231 q 733 1152 763 1178 q 659 1105 703 1126 q 572 1071 615 1083 q 500 1058 528 1058 z "},"Ă":{"ha":819,"x_min":22,"x_max":776,"o":"m 183 -60 q 99 -24 136 -60 q 63 83 63 11 q 71 149 63 113 q 35 194 47 168 q 22 238 22 219 q 42 256 24 249 q 107 268 61 263 q 203 528 149 386 q 332 836 258 669 q 378 872 349 872 q 404 865 390 872 q 399 944 401 906 q 412 993 397 978 q 449 1008 426 1008 q 508 988 476 1008 q 564 929 540 967 q 589 839 588 892 q 598 703 590 786 q 617 526 606 621 q 640 339 628 431 q 701 319 669 335 q 754 278 732 303 q 776 224 776 254 q 761 196 776 201 q 722 190 746 190 l 689 190 q 676 190 682 190 q 663 190 669 190 q 683 81 674 125 q 701 22 693 36 q 690 -6 710 8 q 646 -19 671 -19 q 563 14 599 -19 q 511 140 526 47 q 507 167 508 153 l 247 126 q 217 33 232 79 q 205 -24 206 -3 q 203 -52 204 -44 q 183 -60 201 -60 m 433 597 q 369 444 400 519 q 310 297 339 369 l 479 321 q 455 458 467 390 q 433 597 443 526 m 496 1053 q 397 1074 443 1053 q 323 1137 351 1094 q 294 1243 294 1179 q 313 1310 294 1285 q 358 1346 331 1335 q 408 1357 385 1357 q 449 1348 432 1357 q 464 1324 465 1339 q 483 1227 458 1260 q 543 1194 508 1194 q 593 1212 568 1194 q 635 1264 618 1229 q 671 1297 646 1285 q 719 1308 696 1308 q 752 1299 739 1308 q 761 1271 765 1290 q 706 1150 747 1199 q 608 1077 664 1101 q 496 1053 553 1053 z "},"Ắ":{"ha":819,"x_min":22,"x_max":807,"o":"m 183 -60 q 99 -24 136 -60 q 63 83 63 11 q 71 149 63 113 q 35 194 47 168 q 22 238 22 219 q 42 256 24 249 q 107 268 61 263 q 203 528 149 386 q 332 836 258 669 q 378 872 349 872 q 404 865 390 872 q 399 944 401 906 q 412 993 397 978 q 449 1008 426 1008 q 508 988 476 1008 q 564 929 540 967 q 589 839 588 892 q 598 703 590 786 q 617 526 606 621 q 640 339 628 431 q 701 319 669 335 q 754 278 732 303 q 776 224 776 254 q 761 196 776 201 q 722 190 746 190 l 689 190 q 676 190 682 190 q 663 190 669 190 q 683 81 674 125 q 701 22 693 36 q 690 -6 710 8 q 646 -19 671 -19 q 563 14 599 -19 q 511 140 526 47 q 507 167 508 153 l 247 126 q 217 33 232 79 q 205 -24 206 -3 q 203 -52 204 -44 q 183 -60 201 -60 m 433 597 q 369 444 400 519 q 310 297 339 369 l 479 321 q 455 458 467 390 q 433 597 443 526 m 496 1053 q 397 1074 443 1053 q 323 1137 351 1094 q 294 1243 294 1179 q 313 1310 294 1285 q 358 1346 331 1335 q 408 1357 385 1357 q 449 1348 432 1357 q 464 1324 465 1339 q 483 1227 458 1260 q 543 1194 508 1194 q 593 1212 568 1194 q 635 1264 618 1229 q 671 1297 646 1285 q 719 1308 696 1308 q 752 1299 739 1308 q 761 1271 765 1290 q 706 1150 747 1199 q 608 1077 664 1101 q 496 1053 553 1053 m 544 1338 q 498 1354 518 1338 q 478 1389 478 1371 q 490 1414 478 1404 q 544 1461 511 1432 q 614 1524 578 1490 q 678 1585 650 1557 q 717 1603 696 1603 q 760 1584 740 1603 q 794 1538 781 1565 q 807 1483 807 1510 q 777 1431 807 1457 q 703 1384 747 1406 q 616 1350 660 1363 q 544 1338 572 1338 z "},"Ặ":{"ha":819,"x_min":22,"x_max":776,"o":"m 183 -60 q 99 -24 136 -60 q 63 83 63 11 q 71 149 63 113 q 35 194 47 168 q 22 238 22 219 q 42 256 24 249 q 107 268 61 263 q 203 528 149 386 q 332 836 258 669 q 378 872 349 872 q 404 865 390 872 q 399 944 401 906 q 412 993 397 978 q 449 1008 426 1008 q 508 988 476 1008 q 564 929 540 967 q 589 839 588 892 q 598 703 590 786 q 617 526 606 621 q 640 339 628 431 q 701 319 669 335 q 754 278 732 303 q 776 224 776 254 q 761 196 776 201 q 722 190 746 190 l 689 190 q 676 190 682 190 q 663 190 669 190 q 683 81 674 125 q 701 22 693 36 q 690 -6 710 8 q 646 -19 671 -19 q 563 14 599 -19 q 511 140 526 47 q 507 167 508 153 l 247 126 q 217 33 232 79 q 205 -24 206 -3 q 203 -52 204 -44 q 183 -60 201 -60 m 433 597 q 369 444 400 519 q 310 297 339 369 l 479 321 q 455 458 467 390 q 433 597 443 526 m 456 -289 q 372 -278 410 -289 q 312 -240 333 -268 q 293 -161 290 -212 q 301 -103 296 -135 q 336 -65 306 -72 q 376 -61 353 -62 q 418 -60 400 -60 q 504 -72 457 -60 q 528 -90 528 -78 q 518 -165 528 -122 q 497 -283 508 -208 q 456 -289 475 -289 m 496 1053 q 397 1074 443 1053 q 323 1137 351 1094 q 294 1243 294 1179 q 313 1310 294 1285 q 358 1346 331 1335 q 408 1357 385 1357 q 449 1348 432 1357 q 464 1324 465 1339 q 483 1227 458 1260 q 543 1194 508 1194 q 593 1212 568 1194 q 635 1264 618 1229 q 671 1297 646 1285 q 719 1308 696 1308 q 752 1299 739 1308 q 761 1271 765 1290 q 706 1150 747 1199 q 608 1077 664 1101 q 496 1053 553 1053 z "},"Ằ":{"ha":819,"x_min":22,"x_max":776,"o":"m 183 -60 q 99 -24 136 -60 q 63 83 63 11 q 71 149 63 113 q 35 194 47 168 q 22 238 22 219 q 42 256 24 249 q 107 268 61 263 q 203 528 149 386 q 332 836 258 669 q 378 872 349 872 q 404 865 390 872 q 399 944 401 906 q 412 993 397 978 q 449 1008 426 1008 q 508 988 476 1008 q 564 929 540 967 q 589 839 588 892 q 598 703 590 786 q 617 526 606 621 q 640 339 628 431 q 701 319 669 335 q 754 278 732 303 q 776 224 776 254 q 761 196 776 201 q 722 190 746 190 l 689 190 q 676 190 682 190 q 663 190 669 190 q 683 81 674 125 q 701 22 693 36 q 690 -6 710 8 q 646 -19 671 -19 q 563 14 599 -19 q 511 140 526 47 q 507 167 508 153 l 247 126 q 217 33 232 79 q 205 -24 206 -3 q 203 -52 204 -44 q 183 -60 201 -60 m 433 597 q 369 444 400 519 q 310 297 339 369 l 479 321 q 455 458 467 390 q 433 597 443 526 m 496 1053 q 397 1074 443 1053 q 323 1137 351 1094 q 294 1243 294 1179 q 313 1310 294 1285 q 358 1346 331 1335 q 408 1357 385 1357 q 449 1348 432 1357 q 464 1324 465 1339 q 483 1227 458 1260 q 543 1194 508 1194 q 593 1212 568 1194 q 635 1264 618 1229 q 671 1297 646 1285 q 719 1308 696 1308 q 752 1299 739 1308 q 761 1271 765 1290 q 706 1150 747 1199 q 608 1077 664 1101 q 496 1053 553 1053 m 617 1336 q 526 1353 575 1336 q 432 1397 476 1371 q 359 1448 388 1422 q 331 1492 331 1474 q 347 1544 331 1519 q 389 1585 364 1569 q 439 1601 414 1601 q 479 1586 464 1601 q 540 1528 506 1563 q 610 1460 575 1493 q 669 1407 644 1428 q 683 1382 683 1397 q 666 1350 683 1364 q 617 1336 649 1336 z "},"Ẳ":{"ha":819,"x_min":22,"x_max":776,"o":"m 183 -60 q 99 -24 136 -60 q 63 83 63 11 q 71 149 63 113 q 35 194 47 168 q 22 238 22 219 q 42 256 24 249 q 107 268 61 263 q 203 528 149 386 q 332 836 258 669 q 378 872 349 872 q 404 865 390 872 q 399 944 401 906 q 412 993 397 978 q 449 1008 426 1008 q 508 988 476 1008 q 564 929 540 967 q 589 839 588 892 q 598 703 590 786 q 617 526 606 621 q 640 339 628 431 q 701 319 669 335 q 754 278 732 303 q 776 224 776 254 q 761 196 776 201 q 722 190 746 190 l 689 190 q 676 190 682 190 q 663 190 669 190 q 683 81 674 125 q 701 22 693 36 q 690 -6 710 8 q 646 -19 671 -19 q 563 14 599 -19 q 511 140 526 47 q 507 167 508 153 l 247 126 q 217 33 232 79 q 205 -24 206 -3 q 203 -52 204 -44 q 183 -60 201 -60 m 433 597 q 369 444 400 519 q 310 297 339 369 l 479 321 q 455 458 467 390 q 433 597 443 526 m 496 1053 q 397 1074 443 1053 q 323 1137 351 1094 q 294 1243 294 1179 q 313 1310 294 1285 q 358 1346 331 1335 q 408 1357 385 1357 q 449 1348 432 1357 q 464 1324 465 1339 q 483 1227 458 1260 q 543 1194 508 1194 q 593 1212 568 1194 q 635 1264 618 1229 q 671 1297 646 1285 q 719 1308 696 1308 q 752 1299 739 1308 q 761 1271 765 1290 q 706 1150 747 1199 q 608 1077 664 1101 q 496 1053 553 1053 m 554 1350 q 517 1367 531 1350 q 503 1403 503 1383 q 513 1433 503 1419 q 534 1463 524 1449 q 544 1489 544 1478 q 529 1505 544 1501 q 494 1508 514 1508 q 469 1508 482 1508 q 446 1507 457 1507 q 406 1531 419 1507 q 390 1588 393 1556 q 386 1643 386 1619 q 392 1669 386 1663 q 408 1675 399 1675 q 429 1672 418 1675 q 451 1669 440 1669 q 644 1627 583 1669 q 704 1524 704 1585 q 688 1464 704 1496 q 647 1404 672 1432 q 592 1361 621 1376 q 554 1350 569 1350 z "},"Ẵ":{"ha":819,"x_min":22,"x_max":778,"o":"m 183 -60 q 99 -24 136 -60 q 63 83 63 11 q 71 149 63 113 q 35 194 47 168 q 22 238 22 219 q 42 256 24 249 q 107 268 61 263 q 203 528 149 386 q 332 836 258 669 q 378 872 349 872 q 404 865 390 872 q 399 944 401 906 q 412 993 397 978 q 449 1008 426 1008 q 508 988 476 1008 q 564 929 540 967 q 589 839 588 892 q 598 703 590 786 q 617 526 606 621 q 640 339 628 431 q 701 319 669 335 q 754 278 732 303 q 776 224 776 254 q 761 196 776 201 q 722 190 746 190 l 689 190 q 676 190 682 190 q 663 190 669 190 q 683 81 674 125 q 701 22 693 36 q 690 -6 710 8 q 646 -19 671 -19 q 563 14 599 -19 q 511 140 526 47 q 507 167 508 153 l 247 126 q 217 33 232 79 q 205 -24 206 -3 q 203 -52 204 -44 q 183 -60 201 -60 m 433 597 q 369 444 400 519 q 310 297 339 369 l 479 321 q 455 458 467 390 q 433 597 443 526 m 496 1053 q 397 1074 443 1053 q 323 1137 351 1094 q 294 1243 294 1179 q 313 1310 294 1285 q 358 1346 331 1335 q 408 1357 385 1357 q 449 1348 432 1357 q 464 1324 465 1339 q 483 1227 458 1260 q 543 1194 508 1194 q 593 1212 568 1194 q 635 1264 618 1229 q 671 1297 646 1285 q 719 1308 696 1308 q 752 1299 739 1308 q 761 1271 765 1290 q 706 1150 747 1199 q 608 1077 664 1101 q 496 1053 553 1053 m 647 1329 q 582 1346 610 1329 q 532 1379 554 1363 q 485 1396 510 1396 q 438 1367 458 1396 q 415 1348 425 1353 q 397 1343 406 1343 q 370 1373 382 1346 q 358 1443 358 1400 q 378 1503 358 1472 q 427 1557 397 1535 q 489 1579 457 1579 q 558 1563 532 1579 q 606 1528 585 1546 q 651 1511 626 1511 q 700 1542 678 1511 q 721 1561 711 1557 q 739 1565 731 1565 q 766 1537 754 1564 q 778 1465 778 1510 q 758 1405 778 1436 q 709 1351 739 1374 q 647 1329 679 1329 z "},"Â":{"ha":819,"x_min":22,"x_max":776,"o":"m 183 -60 q 99 -24 136 -60 q 63 83 63 11 q 71 149 63 113 q 35 194 47 168 q 22 238 22 219 q 42 256 24 249 q 107 268 61 263 q 203 528 149 386 q 332 836 258 669 q 378 872 349 872 q 404 865 390 872 q 399 944 401 906 q 412 993 397 978 q 449 1008 426 1008 q 508 988 476 1008 q 564 929 540 967 q 589 839 588 892 q 598 703 590 786 q 617 526 606 621 q 640 339 628 431 q 701 319 669 335 q 754 278 732 303 q 776 224 776 254 q 761 196 776 201 q 722 190 746 190 l 689 190 q 676 190 682 190 q 663 190 669 190 q 683 81 674 125 q 701 22 693 36 q 690 -6 710 8 q 646 -19 671 -19 q 563 14 599 -19 q 511 140 526 47 q 507 167 508 153 l 247 126 q 217 33 232 79 q 205 -24 206 -3 q 203 -52 204 -44 q 183 -60 201 -60 m 433 597 q 369 444 400 519 q 310 297 339 369 l 479 321 q 455 458 467 390 q 433 597 443 526 m 325 1044 q 283 1066 297 1044 q 268 1110 268 1088 q 282 1146 268 1133 q 351 1208 311 1169 q 430 1287 390 1247 q 494 1350 469 1326 q 526 1364 511 1364 q 560 1349 544 1364 q 612 1291 581 1328 q 677 1217 643 1254 q 739 1153 711 1179 q 751 1125 751 1142 q 721 1079 751 1100 q 657 1058 690 1058 q 577 1090 617 1058 q 501 1164 538 1121 q 414 1078 450 1111 q 325 1044 378 1044 z "},"Ấ":{"ha":819,"x_min":22,"x_max":776,"o":"m 183 -60 q 99 -24 136 -60 q 63 83 63 11 q 71 149 63 113 q 35 194 47 168 q 22 238 22 219 q 42 256 24 249 q 107 268 61 263 q 203 528 149 386 q 332 836 258 669 q 378 872 349 872 q 404 865 390 872 q 399 944 401 906 q 412 993 397 978 q 449 1008 426 1008 q 508 988 476 1008 q 564 929 540 967 q 589 839 588 892 q 598 703 590 786 q 617 526 606 621 q 640 339 628 431 q 701 319 669 335 q 754 278 732 303 q 776 224 776 254 q 761 196 776 201 q 722 190 746 190 l 689 190 q 676 190 682 190 q 663 190 669 190 q 683 81 674 125 q 701 22 693 36 q 690 -6 710 8 q 646 -19 671 -19 q 563 14 599 -19 q 511 140 526 47 q 507 167 508 153 l 247 126 q 217 33 232 79 q 205 -24 206 -3 q 203 -52 204 -44 q 183 -60 201 -60 m 433 597 q 369 444 400 519 q 310 297 339 369 l 479 321 q 455 458 467 390 q 433 597 443 526 m 325 1044 q 283 1066 297 1044 q 268 1110 268 1088 q 282 1146 268 1133 q 351 1208 311 1169 q 430 1287 390 1247 q 494 1350 469 1326 q 526 1364 511 1364 q 560 1349 544 1364 q 612 1291 581 1328 q 677 1217 643 1254 q 739 1153 711 1179 q 751 1125 751 1142 q 721 1079 751 1100 q 657 1058 690 1058 q 577 1090 617 1058 q 501 1164 538 1121 q 414 1078 450 1111 q 325 1044 378 1044 m 507 1397 q 460 1414 481 1397 q 440 1449 440 1431 q 453 1474 440 1464 q 507 1521 474 1492 q 576 1583 540 1550 q 640 1644 613 1617 q 679 1663 658 1663 q 723 1644 703 1663 q 756 1597 743 1625 q 769 1543 769 1569 q 740 1491 769 1517 q 666 1444 710 1465 q 578 1410 622 1422 q 507 1397 535 1397 z "},"Ậ":{"ha":819,"x_min":22,"x_max":776,"o":"m 183 -60 q 99 -24 136 -60 q 63 83 63 11 q 71 149 63 113 q 35 194 47 168 q 22 238 22 219 q 42 256 24 249 q 107 268 61 263 q 203 528 149 386 q 332 836 258 669 q 378 872 349 872 q 404 865 390 872 q 399 944 401 906 q 412 993 397 978 q 449 1008 426 1008 q 508 988 476 1008 q 564 929 540 967 q 589 839 588 892 q 598 703 590 786 q 617 526 606 621 q 640 339 628 431 q 701 319 669 335 q 754 278 732 303 q 776 224 776 254 q 761 196 776 201 q 722 190 746 190 l 689 190 q 676 190 682 190 q 663 190 669 190 q 683 81 674 125 q 701 22 693 36 q 690 -6 710 8 q 646 -19 671 -19 q 563 14 599 -19 q 511 140 526 47 q 507 167 508 153 l 247 126 q 217 33 232 79 q 205 -24 206 -3 q 203 -52 204 -44 q 183 -60 201 -60 m 433 597 q 369 444 400 519 q 310 297 339 369 l 479 321 q 455 458 467 390 q 433 597 443 526 m 456 -289 q 372 -278 410 -289 q 312 -240 333 -268 q 293 -161 290 -212 q 301 -103 296 -135 q 336 -65 306 -72 q 376 -61 353 -62 q 418 -60 400 -60 q 504 -72 457 -60 q 528 -90 528 -78 q 518 -165 528 -122 q 497 -283 508 -208 q 456 -289 475 -289 m 325 1044 q 283 1066 297 1044 q 268 1110 268 1088 q 282 1146 268 1133 q 351 1208 311 1169 q 430 1287 390 1247 q 494 1350 469 1326 q 526 1364 511 1364 q 560 1349 544 1364 q 612 1291 581 1328 q 677 1217 643 1254 q 739 1153 711 1179 q 751 1125 751 1142 q 721 1079 751 1100 q 657 1058 690 1058 q 577 1090 617 1058 q 501 1164 538 1121 q 414 1078 450 1111 q 325 1044 378 1044 z "},"Ầ":{"ha":819,"x_min":22,"x_max":776,"o":"m 183 -60 q 99 -24 136 -60 q 63 83 63 11 q 71 149 63 113 q 35 194 47 168 q 22 238 22 219 q 42 256 24 249 q 107 268 61 263 q 203 528 149 386 q 332 836 258 669 q 378 872 349 872 q 404 865 390 872 q 399 944 401 906 q 412 993 397 978 q 449 1008 426 1008 q 508 988 476 1008 q 564 929 540 967 q 589 839 588 892 q 598 703 590 786 q 617 526 606 621 q 640 339 628 431 q 701 319 669 335 q 754 278 732 303 q 776 224 776 254 q 761 196 776 201 q 722 190 746 190 l 689 190 q 676 190 682 190 q 663 190 669 190 q 683 81 674 125 q 701 22 693 36 q 690 -6 710 8 q 646 -19 671 -19 q 563 14 599 -19 q 511 140 526 47 q 507 167 508 153 l 247 126 q 217 33 232 79 q 205 -24 206 -3 q 203 -52 204 -44 q 183 -60 201 -60 m 433 597 q 369 444 400 519 q 310 297 339 369 l 479 321 q 455 458 467 390 q 433 597 443 526 m 325 1044 q 283 1066 297 1044 q 268 1110 268 1088 q 282 1146 268 1133 q 351 1208 311 1169 q 430 1287 390 1247 q 494 1350 469 1326 q 526 1364 511 1364 q 560 1349 544 1364 q 612 1291 581 1328 q 677 1217 643 1254 q 739 1153 711 1179 q 751 1125 751 1142 q 721 1079 751 1100 q 657 1058 690 1058 q 577 1090 617 1058 q 501 1164 538 1121 q 414 1078 450 1111 q 325 1044 378 1044 m 579 1396 q 488 1413 538 1396 q 394 1456 439 1431 q 322 1508 350 1482 q 293 1551 293 1533 q 310 1604 293 1579 q 351 1645 326 1629 q 401 1661 376 1661 q 442 1646 426 1661 q 503 1588 468 1622 q 572 1520 538 1553 q 632 1467 607 1488 q 646 1442 646 1457 q 628 1410 646 1424 q 579 1396 611 1396 z "},"Ẩ":{"ha":819,"x_min":22,"x_max":889,"o":"m 183 -60 q 99 -24 136 -60 q 63 83 63 11 q 71 149 63 113 q 35 194 47 168 q 22 238 22 219 q 42 256 24 249 q 107 268 61 263 q 203 528 149 386 q 332 836 258 669 q 378 872 349 872 q 404 865 390 872 q 399 944 401 906 q 412 993 397 978 q 449 1008 426 1008 q 508 988 476 1008 q 564 929 540 967 q 589 839 588 892 q 598 703 590 786 q 617 526 606 621 q 640 339 628 431 q 701 319 669 335 q 754 278 732 303 q 776 224 776 254 q 761 196 776 201 q 722 190 746 190 l 689 190 q 676 190 682 190 q 663 190 669 190 q 683 81 674 125 q 701 22 693 36 q 690 -6 710 8 q 646 -19 671 -19 q 563 14 599 -19 q 511 140 526 47 q 507 167 508 153 l 247 126 q 217 33 232 79 q 205 -24 206 -3 q 203 -52 204 -44 q 183 -60 201 -60 m 433 597 q 369 444 400 519 q 310 297 339 369 l 479 321 q 455 458 467 390 q 433 597 443 526 m 325 1044 q 283 1066 297 1044 q 268 1110 268 1088 q 282 1146 268 1133 q 351 1208 311 1169 q 430 1287 390 1247 q 494 1350 469 1326 q 526 1364 511 1364 q 560 1349 544 1364 q 612 1291 581 1328 q 677 1217 643 1254 q 739 1153 711 1179 q 751 1125 751 1142 q 721 1079 751 1100 q 657 1058 690 1058 q 577 1090 617 1058 q 501 1164 538 1121 q 414 1078 450 1111 q 325 1044 378 1044 m 739 1210 q 701 1226 715 1210 q 688 1263 688 1243 q 697 1293 688 1279 q 719 1323 708 1308 q 729 1349 729 1338 q 714 1365 729 1361 q 679 1368 699 1368 q 654 1367 667 1368 q 631 1367 642 1367 q 591 1391 604 1367 q 574 1447 578 1415 q 571 1503 571 1479 q 577 1528 571 1522 q 593 1535 583 1535 q 614 1532 603 1535 q 636 1529 625 1529 q 828 1487 768 1529 q 889 1383 889 1444 q 873 1324 889 1356 q 831 1264 857 1292 q 776 1221 806 1236 q 739 1210 754 1210 z "},"Ẫ":{"ha":819,"x_min":22,"x_max":776,"o":"m 183 -60 q 99 -24 136 -60 q 63 83 63 11 q 71 149 63 113 q 35 194 47 168 q 22 238 22 219 q 42 256 24 249 q 107 268 61 263 q 203 528 149 386 q 332 836 258 669 q 378 872 349 872 q 404 865 390 872 q 399 944 401 906 q 412 993 397 978 q 449 1008 426 1008 q 508 988 476 1008 q 564 929 540 967 q 589 839 588 892 q 598 703 590 786 q 617 526 606 621 q 640 339 628 431 q 701 319 669 335 q 754 278 732 303 q 776 224 776 254 q 761 196 776 201 q 722 190 746 190 l 689 190 q 676 190 682 190 q 663 190 669 190 q 683 81 674 125 q 701 22 693 36 q 690 -6 710 8 q 646 -19 671 -19 q 563 14 599 -19 q 511 140 526 47 q 507 167 508 153 l 247 126 q 217 33 232 79 q 205 -24 206 -3 q 203 -52 204 -44 q 183 -60 201 -60 m 433 597 q 369 444 400 519 q 310 297 339 369 l 479 321 q 455 458 467 390 q 433 597 443 526 m 325 1044 q 283 1066 297 1044 q 268 1110 268 1088 q 282 1146 268 1133 q 351 1208 311 1169 q 430 1287 390 1247 q 494 1350 469 1326 q 526 1364 511 1364 q 560 1349 544 1364 q 612 1291 581 1328 q 677 1217 643 1254 q 739 1153 711 1179 q 751 1125 751 1142 q 721 1079 751 1100 q 657 1058 690 1058 q 577 1090 617 1058 q 501 1164 538 1121 q 414 1078 450 1111 q 325 1044 378 1044 m 610 1389 q 544 1406 572 1389 q 494 1439 517 1422 q 447 1456 472 1456 q 400 1426 421 1456 q 378 1408 388 1413 q 360 1403 368 1403 q 333 1433 344 1406 q 321 1503 321 1460 q 340 1563 321 1532 q 390 1617 360 1594 q 451 1639 419 1639 q 521 1622 494 1639 q 568 1588 547 1606 q 614 1571 589 1571 q 663 1601 640 1571 q 683 1621 674 1617 q 701 1625 693 1625 q 728 1597 717 1624 q 740 1525 740 1569 q 721 1465 740 1496 q 672 1411 701 1433 q 610 1389 642 1389 z "},"Ȁ":{"ha":819,"x_min":22,"x_max":776,"o":"m 183 -60 q 99 -24 136 -60 q 63 83 63 11 q 71 149 63 113 q 35 194 47 168 q 22 238 22 219 q 42 256 24 249 q 107 268 61 263 q 203 528 149 386 q 332 836 258 669 q 378 872 349 872 q 404 865 390 872 q 399 944 401 906 q 412 993 397 978 q 449 1008 426 1008 q 508 988 476 1008 q 564 929 540 967 q 589 839 588 892 q 598 703 590 786 q 617 526 606 621 q 640 339 628 431 q 701 319 669 335 q 754 278 732 303 q 776 224 776 254 q 761 196 776 201 q 722 190 746 190 l 689 190 q 676 190 682 190 q 663 190 669 190 q 683 81 674 125 q 701 22 693 36 q 690 -6 710 8 q 646 -19 671 -19 q 563 14 599 -19 q 511 140 526 47 q 507 167 508 153 l 247 126 q 217 33 232 79 q 205 -24 206 -3 q 203 -52 204 -44 q 183 -60 201 -60 m 433 597 q 369 444 400 519 q 310 297 339 369 l 479 321 q 455 458 467 390 q 433 597 443 526 m 693 1057 q 617 1071 664 1057 q 523 1108 569 1085 q 444 1158 476 1131 q 413 1214 413 1186 q 426 1272 413 1242 q 463 1322 440 1301 q 510 1342 485 1342 q 551 1322 532 1342 q 619 1256 581 1292 q 693 1190 657 1221 q 751 1139 729 1158 q 765 1113 765 1126 q 744 1075 765 1093 q 693 1057 724 1057 m 367 1057 q 290 1071 338 1057 q 197 1108 243 1085 q 118 1158 150 1131 q 86 1214 86 1186 q 100 1272 86 1242 q 136 1322 114 1301 q 183 1342 158 1342 q 225 1322 206 1342 q 292 1256 254 1292 q 367 1190 331 1221 q 425 1139 403 1158 q 439 1113 439 1126 q 418 1075 439 1093 q 367 1057 397 1057 z "},"Ä":{"ha":819,"x_min":22,"x_max":776,"o":"m 183 -60 q 99 -24 136 -60 q 63 83 63 11 q 71 149 63 113 q 35 194 47 168 q 22 238 22 219 q 42 256 24 249 q 107 268 61 263 q 203 528 149 386 q 332 836 258 669 q 378 872 349 872 q 404 865 390 872 q 399 944 401 906 q 412 993 397 978 q 449 1008 426 1008 q 508 988 476 1008 q 564 929 540 967 q 589 839 588 892 q 598 703 590 786 q 617 526 606 621 q 640 339 628 431 q 701 319 669 335 q 754 278 732 303 q 776 224 776 254 q 761 196 776 201 q 722 190 746 190 l 689 190 q 676 190 682 190 q 663 190 669 190 q 683 81 674 125 q 701 22 693 36 q 690 -6 710 8 q 646 -19 671 -19 q 563 14 599 -19 q 511 140 526 47 q 507 167 508 153 l 247 126 q 217 33 232 79 q 205 -24 206 -3 q 203 -52 204 -44 q 183 -60 201 -60 m 433 597 q 369 444 400 519 q 310 297 339 369 l 479 321 q 455 458 467 390 q 433 597 443 526 m 681 1092 q 565 1117 611 1092 q 519 1219 519 1142 q 525 1277 519 1246 q 561 1315 531 1308 q 601 1319 578 1318 q 643 1321 625 1321 q 729 1308 682 1321 q 753 1290 753 1303 q 738 1215 753 1258 q 722 1097 722 1172 q 681 1092 700 1092 m 413 1092 q 297 1117 343 1092 q 251 1219 251 1142 q 257 1277 251 1246 q 293 1315 263 1308 q 333 1319 310 1318 q 375 1321 357 1321 q 461 1308 414 1321 q 485 1290 485 1303 q 469 1215 485 1258 q 454 1097 454 1172 q 413 1092 432 1092 z "},"Ạ":{"ha":819,"x_min":22,"x_max":776,"o":"m 183 -60 q 99 -24 136 -60 q 63 83 63 11 q 71 149 63 113 q 35 194 47 168 q 22 238 22 219 q 42 256 24 249 q 107 268 61 263 q 203 528 149 386 q 332 836 258 669 q 378 872 349 872 q 404 865 390 872 q 399 944 401 906 q 412 993 397 978 q 449 1008 426 1008 q 508 988 476 1008 q 564 929 540 967 q 589 839 588 892 q 598 703 590 786 q 617 526 606 621 q 640 339 628 431 q 701 319 669 335 q 754 278 732 303 q 776 224 776 254 q 761 196 776 201 q 722 190 746 190 l 689 190 q 676 190 682 190 q 663 190 669 190 q 683 81 674 125 q 701 22 693 36 q 690 -6 710 8 q 646 -19 671 -19 q 563 14 599 -19 q 511 140 526 47 q 507 167 508 153 l 247 126 q 217 33 232 79 q 205 -24 206 -3 q 203 -52 204 -44 q 183 -60 201 -60 m 433 597 q 369 444 400 519 q 310 297 339 369 l 479 321 q 455 458 467 390 q 433 597 443 526 m 456 -289 q 372 -278 410 -289 q 312 -240 333 -268 q 293 -161 290 -212 q 301 -103 296 -135 q 336 -65 306 -72 q 376 -61 353 -62 q 418 -60 400 -60 q 504 -72 457 -60 q 528 -90 528 -78 q 518 -165 528 -122 q 497 -283 508 -208 q 456 -289 475 -289 z "},"À":{"ha":819,"x_min":22,"x_max":776,"o":"m 183 -60 q 99 -24 136 -60 q 63 83 63 11 q 71 149 63 113 q 35 194 47 168 q 22 238 22 219 q 42 256 24 249 q 107 268 61 263 q 203 528 149 386 q 332 836 258 669 q 378 872 349 872 q 404 865 390 872 q 399 944 401 906 q 412 993 397 978 q 449 1008 426 1008 q 508 988 476 1008 q 564 929 540 967 q 589 839 588 892 q 598 703 590 786 q 617 526 606 621 q 640 339 628 431 q 701 319 669 335 q 754 278 732 303 q 776 224 776 254 q 761 196 776 201 q 722 190 746 190 l 689 190 q 676 190 682 190 q 663 190 669 190 q 683 81 674 125 q 701 22 693 36 q 690 -6 710 8 q 646 -19 671 -19 q 563 14 599 -19 q 511 140 526 47 q 507 167 508 153 l 247 126 q 217 33 232 79 q 205 -24 206 -3 q 203 -52 204 -44 q 183 -60 201 -60 m 433 597 q 369 444 400 519 q 310 297 339 369 l 479 321 q 455 458 467 390 q 433 597 443 526 m 572 1057 q 481 1074 531 1057 q 388 1117 432 1092 q 315 1169 343 1143 q 286 1213 286 1194 q 303 1265 286 1240 q 344 1306 319 1290 q 394 1322 369 1322 q 435 1307 419 1322 q 496 1249 461 1283 q 565 1181 531 1214 q 625 1128 600 1149 q 639 1103 639 1118 q 622 1071 639 1085 q 572 1057 604 1057 z "},"Ả":{"ha":819,"x_min":22,"x_max":776,"o":"m 183 -60 q 99 -24 136 -60 q 63 83 63 11 q 71 149 63 113 q 35 194 47 168 q 22 238 22 219 q 42 256 24 249 q 107 268 61 263 q 203 528 149 386 q 332 836 258 669 q 378 872 349 872 q 404 865 390 872 q 399 944 401 906 q 412 993 397 978 q 449 1008 426 1008 q 508 988 476 1008 q 564 929 540 967 q 589 839 588 892 q 598 703 590 786 q 617 526 606 621 q 640 339 628 431 q 701 319 669 335 q 754 278 732 303 q 776 224 776 254 q 761 196 776 201 q 722 190 746 190 l 689 190 q 676 190 682 190 q 663 190 669 190 q 683 81 674 125 q 701 22 693 36 q 690 -6 710 8 q 646 -19 671 -19 q 563 14 599 -19 q 511 140 526 47 q 507 167 508 153 l 247 126 q 217 33 232 79 q 205 -24 206 -3 q 203 -52 204 -44 q 183 -60 201 -60 m 433 597 q 369 444 400 519 q 310 297 339 369 l 479 321 q 455 458 467 390 q 433 597 443 526 m 510 1071 q 472 1088 486 1071 q 458 1124 458 1104 q 468 1154 458 1140 q 490 1184 479 1169 q 500 1210 500 1199 q 485 1226 500 1222 q 450 1229 469 1229 q 425 1228 438 1229 q 401 1228 413 1228 q 362 1252 375 1228 q 345 1308 349 1276 q 342 1364 342 1340 q 348 1390 342 1383 q 364 1396 354 1396 q 385 1393 374 1396 q 407 1390 396 1390 q 599 1348 539 1390 q 660 1244 660 1306 q 644 1185 660 1217 q 602 1125 628 1153 q 547 1082 576 1097 q 510 1071 525 1071 z "},"Ȃ":{"ha":819,"x_min":22,"x_max":776,"o":"m 183 -60 q 99 -24 136 -60 q 63 83 63 11 q 71 149 63 113 q 35 194 47 168 q 22 238 22 219 q 42 256 24 249 q 107 268 61 263 q 203 528 149 386 q 332 836 258 669 q 378 872 349 872 q 404 865 390 872 q 399 944 401 906 q 412 993 397 978 q 449 1008 426 1008 q 508 988 476 1008 q 564 929 540 967 q 589 839 588 892 q 598 703 590 786 q 617 526 606 621 q 640 339 628 431 q 701 319 669 335 q 754 278 732 303 q 776 224 776 254 q 761 196 776 201 q 722 190 746 190 l 689 190 q 676 190 682 190 q 663 190 669 190 q 683 81 674 125 q 701 22 693 36 q 690 -6 710 8 q 646 -19 671 -19 q 563 14 599 -19 q 511 140 526 47 q 507 167 508 153 l 247 126 q 217 33 232 79 q 205 -24 206 -3 q 203 -52 204 -44 q 183 -60 201 -60 m 433 597 q 369 444 400 519 q 310 297 339 369 l 479 321 q 455 458 467 390 q 433 597 443 526 m 524 1317 q 624 1304 576 1321 q 703 1248 671 1288 q 740 1144 735 1208 q 728 1077 744 1104 q 687 1037 713 1050 q 638 1021 661 1024 q 597 1026 614 1019 q 579 1050 579 1033 q 551 1144 579 1114 q 489 1171 524 1175 q 440 1150 464 1169 q 404 1094 417 1131 q 371 1058 394 1072 q 324 1043 347 1044 q 290 1048 303 1040 q 278 1076 276 1056 q 324 1202 286 1150 q 415 1283 361 1254 q 524 1317 468 1311 z "},"Ā":{"ha":819,"x_min":22,"x_max":776,"o":"m 183 -60 q 99 -24 136 -60 q 63 83 63 11 q 71 149 63 113 q 35 194 47 168 q 22 238 22 219 q 42 256 24 249 q 107 268 61 263 q 203 528 149 386 q 332 836 258 669 q 378 872 349 872 q 404 865 390 872 q 399 944 401 906 q 412 993 397 978 q 449 1008 426 1008 q 508 988 476 1008 q 564 929 540 967 q 589 839 588 892 q 598 703 590 786 q 617 526 606 621 q 640 339 628 431 q 701 319 669 335 q 754 278 732 303 q 776 224 776 254 q 761 196 776 201 q 722 190 746 190 l 689 190 q 676 190 682 190 q 663 190 669 190 q 683 81 674 125 q 701 22 693 36 q 690 -6 710 8 q 646 -19 671 -19 q 563 14 599 -19 q 511 140 526 47 q 507 167 508 153 l 247 126 q 217 33 232 79 q 205 -24 206 -3 q 203 -52 204 -44 q 183 -60 201 -60 m 433 597 q 369 444 400 519 q 310 297 339 369 l 479 321 q 455 458 467 390 q 433 597 443 526 m 361 1085 q 321 1104 342 1085 q 285 1147 300 1124 q 271 1182 271 1171 q 287 1206 271 1194 q 349 1221 303 1217 l 606 1239 q 670 1217 642 1242 q 716 1162 699 1193 q 733 1113 733 1131 q 715 1094 733 1101 q 669 1086 697 1086 l 361 1085 z "},"Ą":{"ha":819,"x_min":22,"x_max":813,"o":"m 183 -60 q 99 -24 136 -60 q 63 83 63 11 q 71 149 63 113 q 35 194 47 168 q 22 238 22 219 q 42 256 24 249 q 107 268 61 263 q 203 528 149 386 q 332 836 258 669 q 378 872 349 872 q 404 865 390 872 q 399 944 401 906 q 412 993 397 978 q 449 1008 426 1008 q 508 988 476 1008 q 564 929 540 967 q 589 839 588 892 q 598 703 590 786 q 617 526 606 621 q 640 339 628 431 q 701 319 669 335 q 754 278 732 303 q 776 224 776 254 q 761 196 776 201 q 722 190 746 190 l 689 190 q 676 190 682 190 q 663 190 669 190 q 683 81 674 125 q 701 22 693 36 q 690 -6 710 8 q 646 -19 671 -19 q 563 14 599 -19 q 511 140 526 47 q 507 167 508 153 l 247 126 q 217 33 232 79 q 205 -24 206 -3 q 203 -52 204 -44 q 183 -60 201 -60 m 433 597 q 369 444 400 519 q 310 297 339 369 l 479 321 q 455 458 467 390 q 433 597 443 526 m 619 -292 q 522 -256 557 -292 q 486 -167 486 -221 q 503 -89 486 -131 q 551 -9 521 -47 q 619 54 582 29 l 703 17 q 657 -53 676 -12 q 638 -124 638 -93 q 645 -149 638 -139 q 669 -160 653 -160 q 721 -148 703 -160 q 752 -124 739 -136 q 782 -112 765 -112 q 813 -144 813 -112 q 789 -204 813 -169 q 722 -265 765 -239 q 619 -292 679 -292 z "},"Å":{"ha":819,"x_min":22,"x_max":776,"o":"m 183 -60 q 99 -24 136 -60 q 63 83 63 11 q 71 149 63 113 q 35 194 47 168 q 22 238 22 219 q 42 256 24 249 q 107 268 61 263 q 203 528 149 386 q 332 836 258 669 q 378 872 349 872 q 404 865 390 872 q 399 944 401 906 q 412 993 397 978 q 449 1008 426 1008 q 508 988 476 1008 q 564 929 540 967 q 589 839 588 892 q 598 703 590 786 q 617 526 606 621 q 640 339 628 431 q 701 319 669 335 q 754 278 732 303 q 776 224 776 254 q 761 196 776 201 q 722 190 746 190 l 689 190 q 676 190 682 190 q 663 190 669 190 q 683 81 674 125 q 701 22 693 36 q 690 -6 710 8 q 646 -19 671 -19 q 563 14 599 -19 q 511 140 526 47 q 507 167 508 153 l 247 126 q 217 33 232 79 q 205 -24 206 -3 q 203 -52 204 -44 q 183 -60 201 -60 m 433 597 q 369 444 400 519 q 310 297 339 369 l 479 321 q 455 458 467 390 q 433 597 443 526 m 463 1078 q 364 1110 394 1078 q 333 1176 333 1142 q 349 1240 333 1206 q 391 1300 364 1275 q 454 1325 418 1325 q 463 1325 458 1325 q 472 1324 467 1325 q 508 1334 483 1332 q 546 1336 533 1336 q 644 1305 618 1336 q 669 1239 669 1274 q 649 1169 669 1207 q 584 1104 629 1131 q 463 1078 539 1078 m 499 1151 q 528 1165 518 1151 q 542 1197 538 1179 q 546 1222 546 1214 q 504 1265 546 1265 q 492 1265 499 1265 q 478 1263 485 1264 q 461 1231 468 1249 q 454 1196 454 1214 q 463 1169 454 1186 q 499 1151 472 1151 z "},"Ǻ":{"ha":819,"x_min":22,"x_max":776,"o":"m 183 -60 q 99 -24 136 -60 q 63 83 63 11 q 71 149 63 113 q 35 194 47 168 q 22 238 22 219 q 42 256 24 249 q 107 268 61 263 q 203 528 149 386 q 332 836 258 669 q 378 872 349 872 q 404 865 390 872 q 399 944 401 906 q 412 993 397 978 q 449 1008 426 1008 q 508 988 476 1008 q 564 929 540 967 q 589 839 588 892 q 598 703 590 786 q 617 526 606 621 q 640 339 628 431 q 701 319 669 335 q 754 278 732 303 q 776 224 776 254 q 761 196 776 201 q 722 190 746 190 l 689 190 q 676 190 682 190 q 663 190 669 190 q 683 81 674 125 q 701 22 693 36 q 690 -6 710 8 q 646 -19 671 -19 q 563 14 599 -19 q 511 140 526 47 q 507 167 508 153 l 247 126 q 217 33 232 79 q 205 -24 206 -3 q 203 -52 204 -44 q 183 -60 201 -60 m 433 597 q 369 444 400 519 q 310 297 339 369 l 479 321 q 455 458 467 390 q 433 597 443 526 m 435 938 q 336 969 367 938 q 306 1036 306 1001 q 321 1100 306 1065 q 363 1160 336 1135 q 426 1185 390 1185 q 435 1185 431 1185 q 444 1183 439 1185 q 481 1194 456 1192 q 518 1196 506 1196 q 616 1165 590 1196 q 642 1099 642 1133 q 622 1028 642 1067 q 556 964 601 990 q 435 938 511 938 m 471 1011 q 500 1025 490 1011 q 514 1056 510 1039 q 518 1082 518 1074 q 476 1125 518 1125 q 464 1124 471 1125 q 450 1122 457 1124 q 433 1091 440 1108 q 426 1056 426 1074 q 435 1028 426 1046 q 471 1011 444 1011 m 472 1126 q 426 1143 446 1126 q 406 1178 406 1160 q 418 1203 406 1193 q 472 1250 439 1221 q 542 1313 506 1279 q 606 1374 578 1346 q 644 1392 624 1392 q 688 1373 668 1392 q 722 1326 708 1354 q 735 1272 735 1299 q 705 1220 735 1246 q 631 1173 675 1194 q 544 1139 588 1151 q 472 1126 500 1126 z "},"Ã":{"ha":819,"x_min":22,"x_max":776,"o":"m 183 -60 q 99 -24 136 -60 q 63 83 63 11 q 71 149 63 113 q 35 194 47 168 q 22 238 22 219 q 42 256 24 249 q 107 268 61 263 q 203 528 149 386 q 332 836 258 669 q 378 872 349 872 q 404 865 390 872 q 399 944 401 906 q 412 993 397 978 q 449 1008 426 1008 q 508 988 476 1008 q 564 929 540 967 q 589 839 588 892 q 598 703 590 786 q 617 526 606 621 q 640 339 628 431 q 701 319 669 335 q 754 278 732 303 q 776 224 776 254 q 761 196 776 201 q 722 190 746 190 l 689 190 q 676 190 682 190 q 663 190 669 190 q 683 81 674 125 q 701 22 693 36 q 690 -6 710 8 q 646 -19 671 -19 q 563 14 599 -19 q 511 140 526 47 q 507 167 508 153 l 247 126 q 217 33 232 79 q 205 -24 206 -3 q 203 -52 204 -44 q 183 -60 201 -60 m 433 597 q 369 444 400 519 q 310 297 339 369 l 479 321 q 455 458 467 390 q 433 597 443 526 m 603 1050 q 538 1067 565 1050 q 488 1100 510 1083 q 440 1117 465 1117 q 393 1088 414 1117 q 371 1069 381 1074 q 353 1064 361 1064 q 326 1094 338 1067 q 314 1164 314 1121 q 333 1224 314 1193 q 383 1278 353 1256 q 444 1300 413 1300 q 514 1283 488 1300 q 561 1249 540 1267 q 607 1232 582 1232 q 656 1263 633 1232 q 676 1282 667 1278 q 694 1286 686 1286 q 722 1258 710 1285 q 733 1186 733 1231 q 714 1126 733 1157 q 665 1072 694 1094 q 603 1050 635 1050 z "},"Æ":{"ha":1046,"x_min":38,"x_max":1029,"o":"m 153 -19 q 68 20 97 -19 q 39 103 39 60 q 58 174 39 139 q 94 240 76 210 q 55 290 72 264 q 38 329 38 315 q 69 354 38 340 q 160 379 100 368 q 295 703 244 576 q 374 885 346 829 q 358 939 358 919 q 380 979 358 968 q 433 992 401 990 q 492 993 464 993 q 551 997 511 993 q 637 1005 590 1000 q 727 1013 683 1010 q 799 1017 771 1017 q 876 1003 836 1017 q 951 969 917 990 q 1008 921 986 947 q 1029 867 1029 894 q 1015 853 1029 853 q 992 853 1003 853 q 969 854 981 854 q 860 849 915 854 q 765 838 804 843 q 717 832 725 833 l 703 600 q 751 607 728 604 q 789 610 775 610 q 831 597 806 610 q 880 566 856 585 q 921 526 904 547 q 938 489 938 506 q 913 471 938 479 q 851 457 889 463 q 770 447 813 451 q 692 439 728 443 l 674 168 q 781 226 729 204 q 874 249 832 249 q 936 232 901 249 q 997 191 971 215 q 1024 146 1024 167 q 1007 121 1024 128 l 674 -19 q 597 -4 636 -19 q 533 43 557 11 q 474 99 489 64 q 460 181 458 135 l 464 261 l 317 231 l 235 74 q 209 18 217 39 q 191 -11 201 -3 q 153 -19 181 -19 m 396 431 l 476 444 l 499 731 l 486 731 l 396 431 z "},"Ǽ":{"ha":1046,"x_min":38,"x_max":1029,"o":"m 153 -19 q 68 20 97 -19 q 39 103 39 60 q 58 174 39 139 q 94 240 76 210 q 55 290 72 264 q 38 329 38 315 q 69 354 38 340 q 160 379 100 368 q 295 703 244 576 q 374 885 346 829 q 358 939 358 919 q 380 979 358 968 q 433 992 401 990 q 492 993 464 993 q 551 997 511 993 q 637 1005 590 1000 q 727 1013 683 1010 q 799 1017 771 1017 q 876 1003 836 1017 q 951 969 917 990 q 1008 921 986 947 q 1029 867 1029 894 q 1015 853 1029 853 q 992 853 1003 853 q 969 854 981 854 q 860 849 915 854 q 765 838 804 843 q 717 832 725 833 l 703 600 q 751 607 728 604 q 789 610 775 610 q 831 597 806 610 q 880 566 856 585 q 921 526 904 547 q 938 489 938 506 q 913 471 938 479 q 851 457 889 463 q 770 447 813 451 q 692 439 728 443 l 674 168 q 781 226 729 204 q 874 249 832 249 q 936 232 901 249 q 997 191 971 215 q 1024 146 1024 167 q 1007 121 1024 128 l 674 -19 q 597 -4 636 -19 q 533 43 557 11 q 474 99 489 64 q 460 181 458 135 l 464 261 l 317 231 l 235 74 q 209 18 217 39 q 191 -11 201 -3 q 153 -19 181 -19 m 396 431 l 476 444 l 499 731 l 486 731 l 396 431 m 633 1058 q 587 1075 607 1058 q 567 1110 567 1092 q 579 1135 567 1125 q 633 1182 600 1153 q 703 1244 667 1211 q 767 1306 739 1278 q 806 1324 785 1324 q 849 1305 829 1324 q 883 1258 869 1286 q 896 1204 896 1231 q 866 1152 896 1178 q 792 1105 836 1126 q 705 1071 749 1083 q 633 1058 661 1058 z "},"B":{"ha":775,"x_min":54,"x_max":718,"o":"m 308 -12 q 226 0 268 -12 q 161 58 183 13 q 97 110 117 75 q 81 193 78 146 l 128 874 q 76 927 97 897 q 54 979 54 957 q 63 997 54 992 q 81 1001 71 1001 q 210 1010 138 1001 q 349 1018 283 1018 q 494 996 426 1018 q 611 937 561 974 q 690 856 661 900 q 718 765 718 811 q 698 661 718 719 q 624 537 678 603 q 471 403 569 471 q 655 343 596 389 q 714 238 714 297 q 685 164 714 200 q 609 96 656 128 q 508 40 563 64 q 401 1 453 15 q 308 -12 349 -12 m 328 664 l 313 458 q 460 633 414 553 q 507 774 507 714 q 476 853 507 822 q 403 849 450 853 q 311 842 357 846 q 331 729 331 803 q 330 699 331 715 q 328 664 329 682 m 501 240 q 450 280 501 263 q 301 297 399 297 l 289 138 q 450 185 399 157 q 501 240 501 214 z "},"C":{"ha":697,"x_min":38,"x_max":694,"o":"m 347 -18 q 263 -11 308 -18 q 178 18 218 -4 q 114 85 138 40 q 57 166 76 110 q 38 299 38 222 q 56 486 38 388 q 110 678 75 585 q 197 848 146 772 q 312 969 247 924 q 453 1014 376 1014 q 533 1003 499 1014 q 594 953 567 993 q 672 888 650 935 q 692 792 694 840 q 665 687 690 746 q 619 569 640 628 q 608 547 614 556 q 586 539 601 539 q 524 561 554 539 q 476 617 494 583 q 457 682 457 650 q 472 772 457 718 q 513 863 486 825 q 428 813 468 856 q 356 699 389 769 q 300 543 324 629 q 263 363 276 457 q 250 178 250 268 q 374 199 319 178 q 471 253 429 219 q 544 324 513 286 q 600 393 575 361 q 657 306 657 383 q 615 147 657 221 q 503 27 574 72 q 347 -18 433 -18 z "},"Ć":{"ha":697,"x_min":38,"x_max":729,"o":"m 347 -18 q 263 -11 308 -18 q 178 18 218 -4 q 114 85 138 40 q 57 166 76 110 q 38 299 38 222 q 56 486 38 388 q 110 678 75 585 q 197 848 146 772 q 312 969 247 924 q 453 1014 376 1014 q 533 1003 499 1014 q 594 953 567 993 q 672 888 650 935 q 692 792 694 840 q 665 687 690 746 q 619 569 640 628 q 608 547 614 556 q 586 539 601 539 q 524 561 554 539 q 476 617 494 583 q 457 682 457 650 q 472 772 457 718 q 513 863 486 825 q 428 813 468 856 q 356 699 389 769 q 300 543 324 629 q 263 363 276 457 q 250 178 250 268 q 374 199 319 178 q 471 253 429 219 q 544 324 513 286 q 600 393 575 361 q 657 306 657 383 q 615 147 657 221 q 503 27 574 72 q 347 -18 433 -18 m 467 1058 q 420 1075 440 1058 q 400 1110 400 1092 q 413 1135 400 1125 q 467 1182 433 1153 q 536 1244 500 1211 q 600 1306 572 1278 q 639 1324 618 1324 q 683 1305 663 1324 q 716 1258 703 1286 q 729 1204 729 1231 q 699 1152 729 1178 q 626 1105 669 1126 q 538 1071 582 1083 q 467 1058 494 1058 z "},"Č":{"ha":697,"x_min":38,"x_max":696,"o":"m 347 -18 q 263 -11 308 -18 q 178 18 218 -4 q 114 85 138 40 q 57 166 76 110 q 38 299 38 222 q 56 486 38 388 q 110 678 75 585 q 197 848 146 772 q 312 969 247 924 q 453 1014 376 1014 q 533 1003 499 1014 q 594 953 567 993 q 672 888 650 935 q 692 792 694 840 q 665 687 690 746 q 619 569 640 628 q 608 547 614 556 q 586 539 601 539 q 524 561 554 539 q 476 617 494 583 q 457 682 457 650 q 472 772 457 718 q 513 863 486 825 q 428 813 468 856 q 356 699 389 769 q 300 543 324 629 q 263 363 276 457 q 250 178 250 268 q 374 199 319 178 q 471 253 429 219 q 544 324 513 286 q 600 393 575 361 q 657 306 657 383 q 615 147 657 221 q 503 27 574 72 q 347 -18 433 -18 m 468 1050 q 439 1063 451 1050 q 392 1113 421 1081 q 335 1180 364 1146 q 281 1236 306 1214 q 268 1261 268 1249 q 294 1301 268 1283 q 350 1318 321 1318 q 422 1287 386 1318 q 490 1211 458 1256 q 567 1298 536 1265 q 644 1331 599 1331 q 683 1313 669 1331 q 696 1275 696 1294 q 682 1242 696 1253 q 623 1187 658 1222 q 553 1117 588 1151 q 496 1061 519 1082 q 468 1050 482 1050 z "},"Ç":{"ha":697,"x_min":38,"x_max":694,"o":"m 347 -18 q 263 -11 308 -18 q 178 18 218 -4 q 114 85 138 40 q 57 166 76 110 q 38 299 38 222 q 56 486 38 388 q 110 678 75 585 q 197 848 146 772 q 312 969 247 924 q 453 1014 376 1014 q 533 1003 499 1014 q 594 953 567 993 q 672 888 650 935 q 692 792 694 840 q 665 687 690 746 q 619 569 640 628 q 608 547 614 556 q 586 539 601 539 q 524 561 554 539 q 476 617 494 583 q 457 682 457 650 q 472 772 457 718 q 513 863 486 825 q 428 813 468 856 q 356 699 389 769 q 300 543 324 629 q 263 363 276 457 q 250 178 250 268 q 374 199 319 178 q 471 253 429 219 q 544 324 513 286 q 600 393 575 361 q 657 306 657 383 q 615 147 657 221 q 503 27 574 72 q 347 -18 433 -18 m 254 -271 q 190 -252 221 -271 q 141 -206 160 -233 q 122 -154 122 -179 q 150 -114 122 -114 q 183 -124 169 -114 q 218 -135 197 -135 q 278 -95 250 -135 q 299 42 306 -56 l 401 67 q 429 5 421 38 q 438 -60 438 -28 q 415 -162 438 -114 q 352 -240 393 -210 q 254 -271 311 -271 z "},"Ĉ":{"ha":697,"x_min":38,"x_max":718,"o":"m 347 -18 q 263 -11 308 -18 q 178 18 218 -4 q 114 85 138 40 q 57 166 76 110 q 38 299 38 222 q 56 486 38 388 q 110 678 75 585 q 197 848 146 772 q 312 969 247 924 q 453 1014 376 1014 q 533 1003 499 1014 q 594 953 567 993 q 672 888 650 935 q 692 792 694 840 q 665 687 690 746 q 619 569 640 628 q 608 547 614 556 q 586 539 601 539 q 524 561 554 539 q 476 617 494 583 q 457 682 457 650 q 472 772 457 718 q 513 863 486 825 q 428 813 468 856 q 356 699 389 769 q 300 543 324 629 q 263 363 276 457 q 250 178 250 268 q 374 199 319 178 q 471 253 429 219 q 544 324 513 286 q 600 393 575 361 q 657 306 657 383 q 615 147 657 221 q 503 27 574 72 q 347 -18 433 -18 m 292 1044 q 249 1066 264 1044 q 235 1110 235 1088 q 249 1146 235 1133 q 317 1208 278 1169 q 397 1287 357 1247 q 461 1350 436 1326 q 493 1364 478 1364 q 526 1349 511 1364 q 578 1291 547 1328 q 644 1217 610 1254 q 706 1153 678 1179 q 718 1125 718 1142 q 688 1079 718 1100 q 624 1058 657 1058 q 544 1090 583 1058 q 468 1164 504 1121 q 381 1078 417 1111 q 292 1044 344 1044 z "},"Ċ":{"ha":697,"x_min":38,"x_max":694,"o":"m 347 -18 q 263 -11 308 -18 q 178 18 218 -4 q 114 85 138 40 q 57 166 76 110 q 38 299 38 222 q 56 486 38 388 q 110 678 75 585 q 197 848 146 772 q 312 969 247 924 q 453 1014 376 1014 q 533 1003 499 1014 q 594 953 567 993 q 672 888 650 935 q 692 792 694 840 q 665 687 690 746 q 619 569 640 628 q 608 547 614 556 q 586 539 601 539 q 524 561 554 539 q 476 617 494 583 q 457 682 457 650 q 472 772 457 718 q 513 863 486 825 q 428 813 468 856 q 356 699 389 769 q 300 543 324 629 q 263 363 276 457 q 250 178 250 268 q 374 199 319 178 q 471 253 429 219 q 544 324 513 286 q 600 393 575 361 q 657 306 657 383 q 615 147 657 221 q 503 27 574 72 q 347 -18 433 -18 m 514 1088 q 430 1098 468 1088 q 370 1136 392 1108 q 351 1215 349 1164 q 359 1273 354 1242 q 394 1311 364 1304 q 435 1315 411 1314 q 476 1317 458 1317 q 563 1304 515 1317 q 586 1286 586 1299 q 576 1211 586 1254 q 556 1093 567 1168 q 514 1088 533 1088 z "},"D":{"ha":819,"x_min":49,"x_max":799,"o":"m 289 -19 q 215 -3 249 -19 q 164 56 181 13 q 94 115 117 83 q 75 193 72 146 l 124 872 q 70 919 92 893 q 49 971 49 944 q 57 988 49 983 q 75 993 65 993 q 179 996 121 993 q 291 1001 238 999 q 378 1004 344 1004 q 574 974 493 1004 q 703 897 654 944 q 776 799 753 850 q 799 703 799 747 q 769 535 799 621 q 692 369 740 450 q 587 218 644 289 q 472 94 529 147 q 366 11 414 42 q 289 -19 318 -19 m 314 569 l 282 150 q 392 266 339 200 q 485 405 444 332 q 551 551 526 478 q 575 686 575 624 q 560 767 575 731 q 514 829 546 804 q 385 824 453 829 q 278 818 317 819 q 317 633 317 750 q 316 602 317 618 q 314 569 315 586 z "},"Ǆ":{"ha":1522,"x_min":49,"x_max":1539,"o":"m 289 -19 q 215 -3 249 -19 q 164 56 181 13 q 94 115 117 83 q 75 193 72 146 l 124 872 q 70 919 92 893 q 49 971 49 944 q 57 988 49 983 q 75 993 65 993 q 179 996 121 993 q 291 1001 238 999 q 378 1004 344 1004 q 574 974 493 1004 q 703 897 654 944 q 776 799 753 850 q 799 703 799 747 q 769 535 799 621 q 692 369 740 450 q 587 218 644 289 q 472 94 529 147 q 366 11 414 42 q 289 -19 318 -19 m 314 569 l 282 150 q 392 266 339 200 q 485 405 444 332 q 551 551 526 478 q 575 686 575 624 q 560 767 575 731 q 514 829 546 804 q 385 824 453 829 q 278 818 317 819 q 317 633 317 750 q 316 602 317 618 q 314 569 315 586 m 1044 -37 q 988 -22 1019 -37 q 938 25 956 -7 q 890 57 910 39 q 871 92 871 75 q 877 138 871 115 q 897 182 883 160 l 1263 819 q 1186 802 1226 813 q 1110 784 1146 792 q 1054 776 1075 776 q 949 802 989 776 q 892 861 910 828 q 875 919 875 894 q 886 936 875 931 q 906 943 897 942 q 952 951 915 944 q 1042 965 989 957 q 1149 982 1094 974 q 1251 996 1204 990 q 1321 1001 1297 1001 q 1394 983 1354 1001 q 1454 942 1433 965 q 1517 901 1494 931 q 1539 843 1539 871 q 1532 819 1539 829 q 1511 790 1525 808 q 1313 489 1413 654 q 1125 157 1214 324 q 1203 169 1164 164 q 1267 175 1242 175 q 1331 165 1296 175 q 1397 140 1365 156 q 1450 105 1429 125 q 1471 64 1471 85 q 1454 43 1471 50 q 1392 31 1438 36 q 1313 16 1360 26 q 1214 -7 1265 6 q 1117 -28 1163 -19 q 1044 -37 1072 -37 m 1197 1050 q 1168 1063 1181 1050 q 1122 1113 1150 1081 q 1064 1180 1093 1146 q 1010 1236 1035 1214 q 997 1261 997 1249 q 1024 1301 997 1283 q 1079 1318 1050 1318 q 1151 1287 1115 1318 q 1219 1211 1188 1256 q 1297 1298 1265 1265 q 1374 1331 1328 1331 q 1412 1313 1399 1331 q 1425 1275 1425 1294 q 1411 1242 1425 1253 q 1352 1187 1388 1222 q 1283 1117 1317 1151 q 1225 1061 1249 1082 q 1197 1050 1211 1050 z "},"Ď":{"ha":819,"x_min":49,"x_max":799,"o":"m 289 -19 q 215 -3 249 -19 q 164 56 181 13 q 94 115 117 83 q 75 193 72 146 l 124 872 q 70 919 92 893 q 49 971 49 944 q 57 988 49 983 q 75 993 65 993 q 179 996 121 993 q 291 1001 238 999 q 378 1004 344 1004 q 574 974 493 1004 q 703 897 654 944 q 776 799 753 850 q 799 703 799 747 q 769 535 799 621 q 692 369 740 450 q 587 218 644 289 q 472 94 529 147 q 366 11 414 42 q 289 -19 318 -19 m 314 569 l 282 150 q 392 266 339 200 q 485 405 444 332 q 551 551 526 478 q 575 686 575 624 q 560 767 575 731 q 514 829 546 804 q 385 824 453 829 q 278 818 317 819 q 317 633 317 750 q 316 602 317 618 q 314 569 315 586 m 404 1050 q 375 1063 388 1050 q 328 1113 357 1081 q 271 1180 300 1146 q 217 1236 242 1214 q 204 1261 204 1249 q 231 1301 204 1283 q 286 1318 257 1318 q 358 1287 322 1318 q 426 1211 394 1256 q 503 1298 472 1265 q 581 1331 535 1331 q 619 1313 606 1331 q 632 1275 632 1294 q 618 1242 632 1253 q 559 1187 594 1222 q 490 1117 524 1151 q 432 1061 456 1082 q 404 1050 418 1050 z "},"Đ":{"ha":833,"x_min":0,"x_max":813,"o":"m 303 -19 q 228 -3 263 -19 q 178 56 194 13 q 108 115 131 83 q 89 193 86 146 l 110 483 l 85 482 q 45 511 65 492 q 13 551 25 531 q 0 583 0 572 q 20 610 0 596 q 90 629 40 624 l 121 633 l 138 872 q 84 919 106 893 q 63 971 63 944 q 71 988 63 983 q 89 993 79 993 q 193 996 135 993 q 306 1001 251 999 q 392 1004 360 1004 q 588 974 507 1004 q 717 897 668 944 q 790 799 767 850 q 813 703 813 747 q 783 535 813 621 q 706 369 754 450 q 601 218 658 289 q 485 94 543 147 q 380 11 428 42 q 303 -19 332 -19 m 450 507 l 322 499 l 296 150 q 406 266 353 200 q 499 405 458 332 q 565 551 540 478 q 589 686 589 624 q 574 767 589 731 q 528 829 560 804 q 399 824 467 829 q 292 818 331 819 q 331 660 326 758 l 388 667 q 445 647 417 671 q 492 590 474 622 q 511 536 511 557 q 494 518 511 526 q 450 507 478 510 z "},"ǅ":{"ha":1426,"x_min":49,"x_max":1414,"o":"m 289 -19 q 215 -3 249 -19 q 164 56 181 13 q 94 115 117 83 q 75 193 72 146 l 124 872 q 70 919 92 893 q 49 971 49 944 q 57 988 49 983 q 75 993 65 993 q 179 996 121 993 q 291 1001 238 999 q 378 1004 344 1004 q 574 974 493 1004 q 703 897 654 944 q 776 799 753 850 q 799 703 799 747 q 769 535 799 621 q 692 369 740 450 q 587 218 644 289 q 472 94 529 147 q 366 11 414 42 q 289 -19 318 -19 m 314 569 l 282 150 q 392 266 339 200 q 485 405 444 332 q 551 551 526 478 q 575 686 575 624 q 560 767 575 731 q 514 829 546 804 q 385 824 453 829 q 278 818 317 819 q 317 633 317 750 q 316 602 317 618 q 314 569 315 586 m 978 -28 q 922 -11 949 -28 q 885 36 896 6 q 840 128 832 63 q 849 163 843 143 q 865 197 856 183 l 1146 613 q 1014 583 1071 583 q 949 605 985 583 q 888 660 914 626 q 863 732 863 694 q 873 749 863 744 q 893 754 883 754 q 962 762 913 754 q 1070 780 1011 769 q 1183 798 1129 790 q 1264 806 1236 806 q 1364 754 1336 806 q 1405 713 1396 735 q 1411 664 1414 690 q 1404 654 1410 658 q 1394 643 1399 650 l 1065 154 q 1133 174 1097 164 q 1211 183 1169 183 q 1297 172 1256 183 q 1365 140 1339 161 q 1392 90 1392 119 q 1382 72 1392 76 q 1363 65 1372 68 q 1309 51 1346 61 q 1225 27 1272 40 q 1130 1 1178 14 q 1041 -19 1082 -11 q 978 -28 1000 -28 m 1333 1192 q 1376 1171 1361 1192 q 1390 1126 1390 1150 q 1376 1090 1390 1103 q 1308 1028 1349 1068 q 1229 949 1268 989 q 1164 886 1190 910 q 1132 872 1147 872 q 1099 888 1114 872 q 1047 945 1078 908 q 981 1020 1015 982 q 919 1083 947 1058 q 907 1111 907 1094 q 938 1157 907 1136 q 1001 1178 968 1178 q 1082 1147 1042 1178 q 1157 1072 1122 1115 q 1246 1158 1210 1125 q 1333 1192 1282 1192 z "},"Ð":{"ha":833,"x_min":0,"x_max":813,"o":"m 303 -19 q 228 -3 263 -19 q 178 56 194 13 q 108 115 131 83 q 89 193 86 146 l 110 483 l 85 482 q 45 511 65 492 q 13 551 25 531 q 0 583 0 572 q 20 610 0 596 q 90 629 40 624 l 121 633 l 138 872 q 84 919 106 893 q 63 971 63 944 q 71 988 63 983 q 89 993 79 993 q 193 996 135 993 q 306 1001 251 999 q 392 1004 360 1004 q 588 974 507 1004 q 717 897 668 944 q 790 799 767 850 q 813 703 813 747 q 783 535 813 621 q 706 369 754 450 q 601 218 658 289 q 485 94 543 147 q 380 11 428 42 q 303 -19 332 -19 m 450 507 l 322 499 l 296 150 q 406 266 353 200 q 499 405 458 332 q 565 551 540 478 q 589 686 589 624 q 574 767 589 731 q 528 829 560 804 q 399 824 467 829 q 292 818 331 819 q 331 660 326 758 l 388 667 q 445 647 417 671 q 492 590 474 622 q 511 536 511 557 q 494 518 511 526 q 450 507 478 510 z "},"E":{"ha":689,"x_min":76,"x_max":672,"o":"m 317 -19 q 236 -3 278 -19 q 175 47 194 13 q 117 105 135 65 q 103 193 100 144 q 121 529 114 361 q 147 865 128 697 q 98 920 119 890 q 76 971 76 950 q 103 993 76 993 q 167 997 122 993 q 264 1005 211 1000 q 365 1013 317 1010 q 442 1017 414 1017 q 573 994 522 1017 q 648 938 624 972 q 672 867 672 904 q 658 853 672 853 q 635 853 646 853 q 613 854 624 854 q 482 847 550 854 q 356 832 414 840 q 335 607 343 722 q 449 615 400 615 q 498 603 469 615 q 553 574 526 592 q 597 535 579 556 q 615 499 615 515 q 603 467 615 474 q 564 460 590 460 q 498 454 539 460 q 410 442 457 449 q 324 433 364 436 q 317 299 319 367 q 313 165 314 232 q 422 226 369 203 q 517 249 475 249 q 579 232 544 249 q 640 191 614 215 q 667 146 667 167 q 650 121 667 128 l 317 -19 z "},"É":{"ha":689,"x_min":76,"x_max":672,"o":"m 317 -19 q 236 -3 278 -19 q 175 47 194 13 q 117 105 135 65 q 103 193 100 144 q 121 529 114 361 q 147 865 128 697 q 98 920 119 890 q 76 971 76 950 q 103 993 76 993 q 167 997 122 993 q 264 1005 211 1000 q 365 1013 317 1010 q 442 1017 414 1017 q 573 994 522 1017 q 648 938 624 972 q 672 867 672 904 q 658 853 672 853 q 635 853 646 853 q 613 854 624 854 q 482 847 550 854 q 356 832 414 840 q 335 607 343 722 q 449 615 400 615 q 498 603 469 615 q 553 574 526 592 q 597 535 579 556 q 615 499 615 515 q 603 467 615 474 q 564 460 590 460 q 498 454 539 460 q 410 442 457 449 q 324 433 364 436 q 317 299 319 367 q 313 165 314 232 q 422 226 369 203 q 517 249 475 249 q 579 232 544 249 q 640 191 614 215 q 667 146 667 167 q 650 121 667 128 l 317 -19 m 357 1058 q 310 1075 331 1058 q 290 1110 290 1092 q 303 1135 290 1125 q 357 1182 324 1153 q 426 1244 390 1211 q 490 1306 463 1278 q 529 1324 508 1324 q 573 1305 553 1324 q 606 1258 593 1286 q 619 1204 619 1231 q 590 1152 619 1178 q 516 1105 560 1126 q 428 1071 472 1083 q 357 1058 385 1058 z "},"Ĕ":{"ha":689,"x_min":76,"x_max":672,"o":"m 317 -19 q 236 -3 278 -19 q 175 47 194 13 q 117 105 135 65 q 103 193 100 144 q 121 529 114 361 q 147 865 128 697 q 98 920 119 890 q 76 971 76 950 q 103 993 76 993 q 167 997 122 993 q 264 1005 211 1000 q 365 1013 317 1010 q 442 1017 414 1017 q 573 994 522 1017 q 648 938 624 972 q 672 867 672 904 q 658 853 672 853 q 635 853 646 853 q 613 854 624 854 q 482 847 550 854 q 356 832 414 840 q 335 607 343 722 q 449 615 400 615 q 498 603 469 615 q 553 574 526 592 q 597 535 579 556 q 615 499 615 515 q 603 467 615 474 q 564 460 590 460 q 498 454 539 460 q 410 442 457 449 q 324 433 364 436 q 317 299 319 367 q 313 165 314 232 q 422 226 369 203 q 517 249 475 249 q 579 232 544 249 q 640 191 614 215 q 667 146 667 167 q 650 121 667 128 l 317 -19 m 353 1053 q 254 1074 300 1053 q 180 1137 208 1094 q 151 1243 151 1179 q 169 1310 151 1285 q 215 1346 188 1335 q 265 1357 242 1357 q 306 1348 289 1357 q 321 1324 322 1339 q 340 1227 315 1260 q 400 1194 365 1194 q 450 1212 425 1194 q 492 1264 475 1229 q 528 1297 503 1285 q 576 1308 553 1308 q 609 1299 596 1308 q 618 1271 622 1290 q 563 1150 604 1199 q 465 1077 521 1101 q 353 1053 410 1053 z "},"Ě":{"ha":689,"x_min":76,"x_max":672,"o":"m 317 -19 q 236 -3 278 -19 q 175 47 194 13 q 117 105 135 65 q 103 193 100 144 q 121 529 114 361 q 147 865 128 697 q 98 920 119 890 q 76 971 76 950 q 103 993 76 993 q 167 997 122 993 q 264 1005 211 1000 q 365 1013 317 1010 q 442 1017 414 1017 q 573 994 522 1017 q 648 938 624 972 q 672 867 672 904 q 658 853 672 853 q 635 853 646 853 q 613 854 624 854 q 482 847 550 854 q 356 832 414 840 q 335 607 343 722 q 449 615 400 615 q 498 603 469 615 q 553 574 526 592 q 597 535 579 556 q 615 499 615 515 q 603 467 615 474 q 564 460 590 460 q 498 454 539 460 q 410 442 457 449 q 324 433 364 436 q 317 299 319 367 q 313 165 314 232 q 422 226 369 203 q 517 249 475 249 q 579 232 544 249 q 640 191 614 215 q 667 146 667 167 q 650 121 667 128 l 317 -19 m 358 1050 q 329 1063 342 1050 q 283 1113 311 1081 q 225 1180 254 1146 q 171 1236 196 1214 q 158 1261 158 1249 q 185 1301 158 1283 q 240 1318 211 1318 q 313 1287 276 1318 q 381 1211 349 1256 q 458 1298 426 1265 q 535 1331 489 1331 q 573 1313 560 1331 q 586 1275 586 1294 q 572 1242 586 1253 q 513 1187 549 1222 q 444 1117 478 1151 q 386 1061 410 1082 q 358 1050 372 1050 z "},"Ê":{"ha":689,"x_min":76,"x_max":672,"o":"m 317 -19 q 236 -3 278 -19 q 175 47 194 13 q 117 105 135 65 q 103 193 100 144 q 121 529 114 361 q 147 865 128 697 q 98 920 119 890 q 76 971 76 950 q 103 993 76 993 q 167 997 122 993 q 264 1005 211 1000 q 365 1013 317 1010 q 442 1017 414 1017 q 573 994 522 1017 q 648 938 624 972 q 672 867 672 904 q 658 853 672 853 q 635 853 646 853 q 613 854 624 854 q 482 847 550 854 q 356 832 414 840 q 335 607 343 722 q 449 615 400 615 q 498 603 469 615 q 553 574 526 592 q 597 535 579 556 q 615 499 615 515 q 603 467 615 474 q 564 460 590 460 q 498 454 539 460 q 410 442 457 449 q 324 433 364 436 q 317 299 319 367 q 313 165 314 232 q 422 226 369 203 q 517 249 475 249 q 579 232 544 249 q 640 191 614 215 q 667 146 667 167 q 650 121 667 128 l 317 -19 m 182 1044 q 140 1066 154 1044 q 125 1110 125 1088 q 139 1146 125 1133 q 208 1208 168 1169 q 287 1287 247 1247 q 351 1350 326 1326 q 383 1364 368 1364 q 417 1349 401 1364 q 469 1291 438 1328 q 534 1217 500 1254 q 596 1153 568 1179 q 608 1125 608 1142 q 578 1079 608 1100 q 514 1058 547 1058 q 434 1090 474 1058 q 358 1164 394 1121 q 271 1078 307 1111 q 182 1044 235 1044 z "},"Ế":{"ha":689,"x_min":76,"x_max":672,"o":"m 317 -19 q 236 -3 278 -19 q 175 47 194 13 q 117 105 135 65 q 103 193 100 144 q 121 529 114 361 q 147 865 128 697 q 98 920 119 890 q 76 971 76 950 q 103 993 76 993 q 167 997 122 993 q 264 1005 211 1000 q 365 1013 317 1010 q 442 1017 414 1017 q 573 994 522 1017 q 648 938 624 972 q 672 867 672 904 q 658 853 672 853 q 635 853 646 853 q 613 854 624 854 q 482 847 550 854 q 356 832 414 840 q 335 607 343 722 q 449 615 400 615 q 498 603 469 615 q 553 574 526 592 q 597 535 579 556 q 615 499 615 515 q 603 467 615 474 q 564 460 590 460 q 498 454 539 460 q 410 442 457 449 q 324 433 364 436 q 317 299 319 367 q 313 165 314 232 q 422 226 369 203 q 517 249 475 249 q 579 232 544 249 q 640 191 614 215 q 667 146 667 167 q 650 121 667 128 l 317 -19 m 182 1044 q 140 1066 154 1044 q 125 1110 125 1088 q 139 1146 125 1133 q 208 1208 168 1169 q 287 1287 247 1247 q 351 1350 326 1326 q 383 1364 368 1364 q 417 1349 401 1364 q 469 1291 438 1328 q 534 1217 500 1254 q 596 1153 568 1179 q 608 1125 608 1142 q 578 1079 608 1100 q 514 1058 547 1058 q 434 1090 474 1058 q 358 1164 394 1121 q 271 1078 307 1111 q 182 1044 235 1044 m 364 1397 q 317 1414 338 1397 q 297 1449 297 1431 q 310 1474 297 1464 q 364 1521 331 1492 q 433 1583 397 1550 q 497 1644 469 1617 q 536 1663 515 1663 q 580 1644 560 1663 q 613 1597 600 1625 q 626 1543 626 1569 q 597 1491 626 1517 q 523 1444 567 1465 q 435 1410 479 1422 q 364 1397 392 1397 z "},"Ệ":{"ha":689,"x_min":76,"x_max":672,"o":"m 317 -19 q 236 -3 278 -19 q 175 47 194 13 q 117 105 135 65 q 103 193 100 144 q 121 529 114 361 q 147 865 128 697 q 98 920 119 890 q 76 971 76 950 q 103 993 76 993 q 167 997 122 993 q 264 1005 211 1000 q 365 1013 317 1010 q 442 1017 414 1017 q 573 994 522 1017 q 648 938 624 972 q 672 867 672 904 q 658 853 672 853 q 635 853 646 853 q 613 854 624 854 q 482 847 550 854 q 356 832 414 840 q 335 607 343 722 q 449 615 400 615 q 498 603 469 615 q 553 574 526 592 q 597 535 579 556 q 615 499 615 515 q 603 467 615 474 q 564 460 590 460 q 498 454 539 460 q 410 442 457 449 q 324 433 364 436 q 317 299 319 367 q 313 165 314 232 q 422 226 369 203 q 517 249 475 249 q 579 232 544 249 q 640 191 614 215 q 667 146 667 167 q 650 121 667 128 l 317 -19 m 407 -289 q 323 -278 361 -289 q 263 -240 285 -268 q 244 -161 242 -212 q 252 -103 247 -135 q 288 -65 257 -72 q 328 -61 304 -62 q 369 -60 351 -60 q 456 -72 408 -60 q 479 -90 479 -78 q 469 -165 479 -122 q 449 -283 460 -208 q 407 -289 426 -289 m 182 1044 q 140 1066 154 1044 q 125 1110 125 1088 q 139 1146 125 1133 q 208 1208 168 1169 q 287 1287 247 1247 q 351 1350 326 1326 q 383 1364 368 1364 q 417 1349 401 1364 q 469 1291 438 1328 q 534 1217 500 1254 q 596 1153 568 1179 q 608 1125 608 1142 q 578 1079 608 1100 q 514 1058 547 1058 q 434 1090 474 1058 q 358 1164 394 1121 q 271 1078 307 1111 q 182 1044 235 1044 z "},"Ề":{"ha":689,"x_min":76,"x_max":672,"o":"m 317 -19 q 236 -3 278 -19 q 175 47 194 13 q 117 105 135 65 q 103 193 100 144 q 121 529 114 361 q 147 865 128 697 q 98 920 119 890 q 76 971 76 950 q 103 993 76 993 q 167 997 122 993 q 264 1005 211 1000 q 365 1013 317 1010 q 442 1017 414 1017 q 573 994 522 1017 q 648 938 624 972 q 672 867 672 904 q 658 853 672 853 q 635 853 646 853 q 613 854 624 854 q 482 847 550 854 q 356 832 414 840 q 335 607 343 722 q 449 615 400 615 q 498 603 469 615 q 553 574 526 592 q 597 535 579 556 q 615 499 615 515 q 603 467 615 474 q 564 460 590 460 q 498 454 539 460 q 410 442 457 449 q 324 433 364 436 q 317 299 319 367 q 313 165 314 232 q 422 226 369 203 q 517 249 475 249 q 579 232 544 249 q 640 191 614 215 q 667 146 667 167 q 650 121 667 128 l 317 -19 m 182 1044 q 140 1066 154 1044 q 125 1110 125 1088 q 139 1146 125 1133 q 208 1208 168 1169 q 287 1287 247 1247 q 351 1350 326 1326 q 383 1364 368 1364 q 417 1349 401 1364 q 469 1291 438 1328 q 534 1217 500 1254 q 596 1153 568 1179 q 608 1125 608 1142 q 578 1079 608 1100 q 514 1058 547 1058 q 434 1090 474 1058 q 358 1164 394 1121 q 271 1078 307 1111 q 182 1044 235 1044 m 436 1396 q 345 1413 394 1396 q 251 1456 296 1431 q 178 1508 207 1482 q 150 1551 150 1533 q 167 1604 150 1579 q 208 1645 183 1629 q 258 1661 233 1661 q 299 1646 283 1661 q 360 1588 325 1622 q 429 1520 394 1553 q 489 1467 464 1488 q 503 1442 503 1457 q 485 1410 503 1424 q 436 1396 468 1396 z "},"Ể":{"ha":689,"x_min":76,"x_max":758,"o":"m 317 -19 q 236 -3 278 -19 q 175 47 194 13 q 117 105 135 65 q 103 193 100 144 q 121 529 114 361 q 147 865 128 697 q 98 920 119 890 q 76 971 76 950 q 103 993 76 993 q 167 997 122 993 q 264 1005 211 1000 q 365 1013 317 1010 q 442 1017 414 1017 q 573 994 522 1017 q 648 938 624 972 q 672 867 672 904 q 658 853 672 853 q 635 853 646 853 q 613 854 624 854 q 482 847 550 854 q 356 832 414 840 q 335 607 343 722 q 449 615 400 615 q 498 603 469 615 q 553 574 526 592 q 597 535 579 556 q 615 499 615 515 q 603 467 615 474 q 564 460 590 460 q 498 454 539 460 q 410 442 457 449 q 324 433 364 436 q 317 299 319 367 q 313 165 314 232 q 422 226 369 203 q 517 249 475 249 q 579 232 544 249 q 640 191 614 215 q 667 146 667 167 q 650 121 667 128 l 317 -19 m 182 1044 q 140 1066 154 1044 q 125 1110 125 1088 q 139 1146 125 1133 q 208 1208 168 1169 q 287 1287 247 1247 q 351 1350 326 1326 q 383 1364 368 1364 q 417 1349 401 1364 q 469 1291 438 1328 q 534 1217 500 1254 q 596 1153 568 1179 q 608 1125 608 1142 q 578 1079 608 1100 q 514 1058 547 1058 q 434 1090 474 1058 q 358 1164 394 1121 q 271 1078 307 1111 q 182 1044 235 1044 m 608 1210 q 571 1226 585 1210 q 557 1263 557 1243 q 567 1293 557 1279 q 588 1323 578 1308 q 599 1349 599 1338 q 583 1365 599 1361 q 549 1368 568 1368 q 524 1367 536 1368 q 500 1367 511 1367 q 460 1391 474 1367 q 444 1447 447 1415 q 440 1503 440 1479 q 447 1528 440 1522 q 463 1535 453 1535 q 483 1532 472 1535 q 506 1529 494 1529 q 698 1487 638 1529 q 758 1383 758 1444 q 742 1324 758 1356 q 701 1264 726 1292 q 646 1221 675 1236 q 608 1210 624 1210 z "},"Ễ":{"ha":689,"x_min":76,"x_max":672,"o":"m 317 -19 q 236 -3 278 -19 q 175 47 194 13 q 117 105 135 65 q 103 193 100 144 q 121 529 114 361 q 147 865 128 697 q 98 920 119 890 q 76 971 76 950 q 103 993 76 993 q 167 997 122 993 q 264 1005 211 1000 q 365 1013 317 1010 q 442 1017 414 1017 q 573 994 522 1017 q 648 938 624 972 q 672 867 672 904 q 658 853 672 853 q 635 853 646 853 q 613 854 624 854 q 482 847 550 854 q 356 832 414 840 q 335 607 343 722 q 449 615 400 615 q 498 603 469 615 q 553 574 526 592 q 597 535 579 556 q 615 499 615 515 q 603 467 615 474 q 564 460 590 460 q 498 454 539 460 q 410 442 457 449 q 324 433 364 436 q 317 299 319 367 q 313 165 314 232 q 422 226 369 203 q 517 249 475 249 q 579 232 544 249 q 640 191 614 215 q 667 146 667 167 q 650 121 667 128 l 317 -19 m 182 1044 q 140 1066 154 1044 q 125 1110 125 1088 q 139 1146 125 1133 q 208 1208 168 1169 q 287 1287 247 1247 q 351 1350 326 1326 q 383 1364 368 1364 q 417 1349 401 1364 q 469 1291 438 1328 q 534 1217 500 1254 q 596 1153 568 1179 q 608 1125 608 1142 q 578 1079 608 1100 q 514 1058 547 1058 q 434 1090 474 1058 q 358 1164 394 1121 q 271 1078 307 1111 q 182 1044 235 1044 m 467 1389 q 401 1406 429 1389 q 351 1439 374 1422 q 304 1456 329 1456 q 257 1426 278 1456 q 235 1408 244 1413 q 217 1403 225 1403 q 190 1433 201 1406 q 178 1503 178 1460 q 197 1563 178 1532 q 247 1617 217 1594 q 308 1639 276 1639 q 378 1622 351 1639 q 425 1588 404 1606 q 471 1571 446 1571 q 519 1601 497 1571 q 540 1621 531 1617 q 558 1625 550 1625 q 585 1597 574 1624 q 597 1525 597 1569 q 578 1465 597 1496 q 528 1411 558 1433 q 467 1389 499 1389 z "},"Ȅ":{"ha":689,"x_min":-57,"x_max":672,"o":"m 317 -19 q 236 -3 278 -19 q 175 47 194 13 q 117 105 135 65 q 103 193 100 144 q 121 529 114 361 q 147 865 128 697 q 98 920 119 890 q 76 971 76 950 q 103 993 76 993 q 167 997 122 993 q 264 1005 211 1000 q 365 1013 317 1010 q 442 1017 414 1017 q 573 994 522 1017 q 648 938 624 972 q 672 867 672 904 q 658 853 672 853 q 635 853 646 853 q 613 854 624 854 q 482 847 550 854 q 356 832 414 840 q 335 607 343 722 q 449 615 400 615 q 498 603 469 615 q 553 574 526 592 q 597 535 579 556 q 615 499 615 515 q 603 467 615 474 q 564 460 590 460 q 498 454 539 460 q 410 442 457 449 q 324 433 364 436 q 317 299 319 367 q 313 165 314 232 q 422 226 369 203 q 517 249 475 249 q 579 232 544 249 q 640 191 614 215 q 667 146 667 167 q 650 121 667 128 l 317 -19 m 550 1057 q 474 1071 521 1057 q 380 1108 426 1085 q 301 1158 333 1131 q 269 1214 269 1186 q 283 1272 269 1242 q 319 1322 297 1301 q 367 1342 342 1342 q 408 1322 389 1342 q 476 1256 438 1292 q 550 1190 514 1221 q 608 1139 586 1158 q 622 1113 622 1126 q 601 1075 622 1093 q 550 1057 581 1057 m 224 1057 q 147 1071 194 1057 q 53 1108 100 1085 q -25 1158 7 1131 q -57 1214 -57 1186 q -43 1272 -57 1242 q -7 1322 -29 1301 q 40 1342 15 1342 q 82 1322 63 1342 q 149 1256 111 1292 q 224 1190 188 1221 q 282 1139 260 1158 q 296 1113 296 1126 q 275 1075 296 1093 q 224 1057 254 1057 z "},"Ë":{"ha":689,"x_min":76,"x_max":672,"o":"m 317 -19 q 236 -3 278 -19 q 175 47 194 13 q 117 105 135 65 q 103 193 100 144 q 121 529 114 361 q 147 865 128 697 q 98 920 119 890 q 76 971 76 950 q 103 993 76 993 q 167 997 122 993 q 264 1005 211 1000 q 365 1013 317 1010 q 442 1017 414 1017 q 573 994 522 1017 q 648 938 624 972 q 672 867 672 904 q 658 853 672 853 q 635 853 646 853 q 613 854 624 854 q 482 847 550 854 q 356 832 414 840 q 335 607 343 722 q 449 615 400 615 q 498 603 469 615 q 553 574 526 592 q 597 535 579 556 q 615 499 615 515 q 603 467 615 474 q 564 460 590 460 q 498 454 539 460 q 410 442 457 449 q 324 433 364 436 q 317 299 319 367 q 313 165 314 232 q 422 226 369 203 q 517 249 475 249 q 579 232 544 249 q 640 191 614 215 q 667 146 667 167 q 650 121 667 128 l 317 -19 m 538 1092 q 422 1117 468 1092 q 376 1219 376 1142 q 382 1277 376 1246 q 418 1315 388 1308 q 458 1319 435 1318 q 500 1321 482 1321 q 586 1308 539 1321 q 610 1290 610 1303 q 594 1215 610 1258 q 579 1097 579 1172 q 538 1092 557 1092 m 269 1092 q 154 1117 200 1092 q 108 1219 108 1142 q 114 1277 108 1246 q 150 1315 119 1308 q 190 1319 167 1318 q 232 1321 214 1321 q 318 1308 271 1321 q 342 1290 342 1303 q 326 1215 342 1258 q 311 1097 311 1172 q 269 1092 289 1092 z "},"Ė":{"ha":689,"x_min":76,"x_max":672,"o":"m 317 -19 q 236 -3 278 -19 q 175 47 194 13 q 117 105 135 65 q 103 193 100 144 q 121 529 114 361 q 147 865 128 697 q 98 920 119 890 q 76 971 76 950 q 103 993 76 993 q 167 997 122 993 q 264 1005 211 1000 q 365 1013 317 1010 q 442 1017 414 1017 q 573 994 522 1017 q 648 938 624 972 q 672 867 672 904 q 658 853 672 853 q 635 853 646 853 q 613 854 624 854 q 482 847 550 854 q 356 832 414 840 q 335 607 343 722 q 449 615 400 615 q 498 603 469 615 q 553 574 526 592 q 597 535 579 556 q 615 499 615 515 q 603 467 615 474 q 564 460 590 460 q 498 454 539 460 q 410 442 457 449 q 324 433 364 436 q 317 299 319 367 q 313 165 314 232 q 422 226 369 203 q 517 249 475 249 q 579 232 544 249 q 640 191 614 215 q 667 146 667 167 q 650 121 667 128 l 317 -19 m 404 1088 q 320 1098 358 1088 q 260 1136 282 1108 q 242 1215 239 1164 q 249 1273 244 1242 q 285 1311 254 1304 q 325 1315 301 1314 q 367 1317 349 1317 q 453 1304 406 1317 q 476 1286 476 1299 q 467 1211 476 1254 q 446 1093 457 1168 q 404 1088 424 1088 z "},"Ẹ":{"ha":689,"x_min":76,"x_max":672,"o":"m 317 -19 q 236 -3 278 -19 q 175 47 194 13 q 117 105 135 65 q 103 193 100 144 q 121 529 114 361 q 147 865 128 697 q 98 920 119 890 q 76 971 76 950 q 103 993 76 993 q 167 997 122 993 q 264 1005 211 1000 q 365 1013 317 1010 q 442 1017 414 1017 q 573 994 522 1017 q 648 938 624 972 q 672 867 672 904 q 658 853 672 853 q 635 853 646 853 q 613 854 624 854 q 482 847 550 854 q 356 832 414 840 q 335 607 343 722 q 449 615 400 615 q 498 603 469 615 q 553 574 526 592 q 597 535 579 556 q 615 499 615 515 q 603 467 615 474 q 564 460 590 460 q 498 454 539 460 q 410 442 457 449 q 324 433 364 436 q 317 299 319 367 q 313 165 314 232 q 422 226 369 203 q 517 249 475 249 q 579 232 544 249 q 640 191 614 215 q 667 146 667 167 q 650 121 667 128 l 317 -19 m 407 -289 q 323 -278 361 -289 q 263 -240 285 -268 q 244 -161 242 -212 q 252 -103 247 -135 q 288 -65 257 -72 q 328 -61 304 -62 q 369 -60 351 -60 q 456 -72 408 -60 q 479 -90 479 -78 q 469 -165 479 -122 q 449 -283 460 -208 q 407 -289 426 -289 z "},"È":{"ha":689,"x_min":76,"x_max":672,"o":"m 317 -19 q 236 -3 278 -19 q 175 47 194 13 q 117 105 135 65 q 103 193 100 144 q 121 529 114 361 q 147 865 128 697 q 98 920 119 890 q 76 971 76 950 q 103 993 76 993 q 167 997 122 993 q 264 1005 211 1000 q 365 1013 317 1010 q 442 1017 414 1017 q 573 994 522 1017 q 648 938 624 972 q 672 867 672 904 q 658 853 672 853 q 635 853 646 853 q 613 854 624 854 q 482 847 550 854 q 356 832 414 840 q 335 607 343 722 q 449 615 400 615 q 498 603 469 615 q 553 574 526 592 q 597 535 579 556 q 615 499 615 515 q 603 467 615 474 q 564 460 590 460 q 498 454 539 460 q 410 442 457 449 q 324 433 364 436 q 317 299 319 367 q 313 165 314 232 q 422 226 369 203 q 517 249 475 249 q 579 232 544 249 q 640 191 614 215 q 667 146 667 167 q 650 121 667 128 l 317 -19 m 429 1057 q 338 1074 388 1057 q 244 1117 289 1092 q 172 1169 200 1143 q 143 1213 143 1194 q 160 1265 143 1240 q 201 1306 176 1290 q 251 1322 226 1322 q 292 1307 276 1322 q 353 1249 318 1283 q 422 1181 388 1214 q 482 1128 457 1149 q 496 1103 496 1118 q 478 1071 496 1085 q 429 1057 461 1057 z "},"Ẻ":{"ha":689,"x_min":76,"x_max":672,"o":"m 317 -19 q 236 -3 278 -19 q 175 47 194 13 q 117 105 135 65 q 103 193 100 144 q 121 529 114 361 q 147 865 128 697 q 98 920 119 890 q 76 971 76 950 q 103 993 76 993 q 167 997 122 993 q 264 1005 211 1000 q 365 1013 317 1010 q 442 1017 414 1017 q 573 994 522 1017 q 648 938 624 972 q 672 867 672 904 q 658 853 672 853 q 635 853 646 853 q 613 854 624 854 q 482 847 550 854 q 356 832 414 840 q 335 607 343 722 q 449 615 400 615 q 498 603 469 615 q 553 574 526 592 q 597 535 579 556 q 615 499 615 515 q 603 467 615 474 q 564 460 590 460 q 498 454 539 460 q 410 442 457 449 q 324 433 364 436 q 317 299 319 367 q 313 165 314 232 q 422 226 369 203 q 517 249 475 249 q 579 232 544 249 q 640 191 614 215 q 667 146 667 167 q 650 121 667 128 l 317 -19 m 367 1071 q 329 1088 343 1071 q 315 1124 315 1104 q 325 1154 315 1140 q 347 1184 336 1169 q 357 1210 357 1199 q 342 1226 357 1222 q 307 1229 326 1229 q 282 1228 294 1229 q 258 1228 269 1228 q 219 1252 232 1228 q 202 1308 206 1276 q 199 1364 199 1340 q 205 1390 199 1383 q 221 1396 211 1396 q 242 1393 231 1396 q 264 1390 253 1390 q 456 1348 396 1390 q 517 1244 517 1306 q 501 1185 517 1217 q 459 1125 485 1153 q 404 1082 433 1097 q 367 1071 382 1071 z "},"Ȇ":{"ha":689,"x_min":76,"x_max":672,"o":"m 317 -19 q 236 -3 278 -19 q 175 47 194 13 q 117 105 135 65 q 103 193 100 144 q 121 529 114 361 q 147 865 128 697 q 98 920 119 890 q 76 971 76 950 q 103 993 76 993 q 167 997 122 993 q 264 1005 211 1000 q 365 1013 317 1010 q 442 1017 414 1017 q 573 994 522 1017 q 648 938 624 972 q 672 867 672 904 q 658 853 672 853 q 635 853 646 853 q 613 854 624 854 q 482 847 550 854 q 356 832 414 840 q 335 607 343 722 q 449 615 400 615 q 498 603 469 615 q 553 574 526 592 q 597 535 579 556 q 615 499 615 515 q 603 467 615 474 q 564 460 590 460 q 498 454 539 460 q 410 442 457 449 q 324 433 364 436 q 317 299 319 367 q 313 165 314 232 q 422 226 369 203 q 517 249 475 249 q 579 232 544 249 q 640 191 614 215 q 667 146 667 167 q 650 121 667 128 l 317 -19 m 381 1317 q 481 1304 433 1321 q 560 1248 528 1288 q 597 1144 592 1208 q 585 1077 601 1104 q 544 1037 569 1050 q 494 1021 518 1024 q 453 1026 471 1019 q 436 1050 436 1033 q 408 1144 436 1114 q 346 1171 381 1175 q 297 1150 321 1169 q 261 1094 274 1131 q 228 1058 251 1072 q 181 1043 204 1044 q 147 1048 160 1040 q 135 1076 133 1056 q 181 1202 143 1150 q 272 1283 218 1254 q 381 1317 325 1311 z "},"Ē":{"ha":689,"x_min":54,"x_max":672,"o":"m 224 1113 q 184 1142 204 1122 q 151 1182 164 1161 q 139 1214 139 1203 q 159 1240 139 1226 q 229 1260 179 1253 l 482 1297 q 540 1274 511 1297 q 587 1219 568 1250 q 606 1167 606 1188 q 589 1149 606 1157 q 544 1138 572 1140 l 224 1113 m 317 -19 q 213 8 264 -19 q 131 83 163 35 q 103 193 99 131 l 122 460 q 75 503 96 481 q 54 542 54 526 q 76 561 54 553 q 131 575 97 569 l 150 867 q 101 917 125 886 q 76 971 76 949 q 103 993 76 993 q 167 997 122 993 q 264 1005 211 1000 q 365 1013 317 1010 q 442 1017 414 1017 q 519 1003 479 1017 q 594 969 560 990 q 651 921 629 947 q 672 867 672 894 q 658 853 672 853 q 635 853 646 853 q 613 854 624 854 q 503 849 558 854 q 408 838 447 843 q 360 832 368 833 l 347 599 q 426 607 396 607 q 466 594 440 607 q 519 563 492 582 q 565 524 546 544 q 583 489 583 504 q 559 470 583 479 q 497 453 535 461 q 417 440 460 446 q 339 432 375 435 l 317 168 q 424 226 372 204 q 517 249 475 249 q 579 232 544 249 q 640 191 614 215 q 667 146 667 167 q 650 121 667 128 l 317 -19 z "},"Ę":{"ha":689,"x_min":76,"x_max":682,"o":"m 317 -19 q 236 -3 278 -19 q 175 47 194 13 q 117 105 135 65 q 103 193 100 144 q 121 529 114 361 q 147 865 128 697 q 98 920 119 890 q 76 971 76 950 q 103 993 76 993 q 167 997 122 993 q 264 1005 211 1000 q 365 1013 317 1010 q 442 1017 414 1017 q 573 994 522 1017 q 648 938 624 972 q 672 867 672 904 q 658 853 672 853 q 635 853 646 853 q 613 854 624 854 q 482 847 550 854 q 356 832 414 840 q 335 607 343 722 q 449 615 400 615 q 498 603 469 615 q 553 574 526 592 q 597 535 579 556 q 615 499 615 515 q 603 467 615 474 q 564 460 590 460 q 498 454 539 460 q 410 442 457 449 q 324 433 364 436 q 317 299 319 367 q 313 165 314 232 q 422 226 369 203 q 517 249 475 249 q 579 232 544 249 q 640 191 614 215 q 667 146 667 167 q 650 121 667 128 l 317 -19 m 489 -222 q 391 -187 426 -222 q 356 -97 356 -151 q 373 -19 356 -61 q 421 60 390 22 q 489 124 451 99 l 572 86 q 526 17 546 57 q 507 -54 507 -24 q 515 -80 507 -69 q 539 -90 522 -90 q 590 -78 572 -90 q 622 -55 608 -67 q 651 -43 635 -43 q 682 -75 682 -43 q 658 -135 682 -100 q 592 -196 635 -169 q 489 -222 549 -222 z "},"Ẽ":{"ha":689,"x_min":76,"x_max":672,"o":"m 317 -19 q 236 -3 278 -19 q 175 47 194 13 q 117 105 135 65 q 103 193 100 144 q 121 529 114 361 q 147 865 128 697 q 98 920 119 890 q 76 971 76 950 q 103 993 76 993 q 167 997 122 993 q 264 1005 211 1000 q 365 1013 317 1010 q 442 1017 414 1017 q 573 994 522 1017 q 648 938 624 972 q 672 867 672 904 q 658 853 672 853 q 635 853 646 853 q 613 854 624 854 q 482 847 550 854 q 356 832 414 840 q 335 607 343 722 q 449 615 400 615 q 498 603 469 615 q 553 574 526 592 q 597 535 579 556 q 615 499 615 515 q 603 467 615 474 q 564 460 590 460 q 498 454 539 460 q 410 442 457 449 q 324 433 364 436 q 317 299 319 367 q 313 165 314 232 q 422 226 369 203 q 517 249 475 249 q 579 232 544 249 q 640 191 614 215 q 667 146 667 167 q 650 121 667 128 l 317 -19 m 460 1050 q 394 1067 422 1050 q 344 1100 367 1083 q 297 1117 322 1117 q 250 1088 271 1117 q 228 1069 238 1074 q 210 1064 218 1064 q 183 1094 194 1067 q 171 1164 171 1121 q 190 1224 171 1193 q 240 1278 210 1256 q 301 1300 269 1300 q 371 1283 344 1300 q 418 1249 397 1267 q 464 1232 439 1232 q 513 1263 490 1232 q 533 1282 524 1278 q 551 1286 543 1286 q 578 1258 567 1285 q 590 1186 590 1231 q 571 1126 590 1157 q 522 1072 551 1094 q 460 1050 492 1050 z "},"Ə":{"ha":796,"x_min":32,"x_max":757,"o":"m 354 -18 q 247 13 301 -18 q 149 94 193 44 q 80 199 106 143 q 58 304 54 256 q 88 397 61 346 q 157 499 114 447 q 253 594 200 551 q 365 664 307 638 q 479 690 424 690 q 536 668 504 690 l 536 672 q 503 797 536 765 q 415 829 471 829 q 275 783 350 829 q 114 646 200 736 q 53 704 74 669 q 32 790 32 739 q 67 860 32 822 q 160 933 101 899 q 291 988 218 967 q 440 1010 364 1010 q 561 976 504 1010 q 663 885 618 942 q 732 760 707 829 q 757 622 757 692 q 744 448 757 538 q 701 275 731 358 q 626 126 672 192 q 512 21 579 60 q 354 -18 444 -18 m 256 196 q 274 154 256 176 q 317 132 292 132 q 394 166 360 132 q 456 258 429 200 q 500 385 482 315 q 526 529 518 456 q 435 483 483 519 q 347 397 388 447 q 281 294 307 347 q 256 196 256 240 z "},"F":{"ha":658,"x_min":89,"x_max":685,"o":"m 276 -19 q 228 -11 254 -19 q 176 22 201 -3 q 135 91 151 46 q 119 210 119 136 q 119 231 119 221 q 121 253 119 242 l 138 496 q 113 543 113 525 q 143 581 113 575 l 161 858 q 111 917 133 885 q 89 972 89 950 q 115 994 89 994 q 179 998 135 994 q 276 1006 224 1001 q 378 1013 329 1010 q 454 1017 426 1017 q 625 970 565 1017 q 685 867 685 924 q 671 853 685 853 q 647 853 658 853 q 625 854 636 854 q 498 847 565 854 q 372 833 431 840 l 354 613 q 421 615 390 615 q 470 603 442 615 q 525 574 499 592 q 569 535 551 556 q 588 499 588 515 q 575 467 588 474 q 536 460 563 460 q 450 452 504 460 q 340 438 396 444 l 307 1 q 297 -15 306 -11 q 276 -19 289 -19 z "},"G":{"ha":760,"x_min":46,"x_max":928,"o":"m 313 -19 q 201 9 254 -19 q 122 86 149 38 q 65 167 85 111 q 46 300 46 224 q 65 488 46 389 q 122 680 85 586 q 212 849 158 774 q 333 970 265 925 q 481 1015 400 1015 q 560 1005 526 1015 q 622 954 594 994 q 697 894 675 936 q 719 806 719 851 q 698 710 719 756 q 654 601 676 664 q 642 579 649 588 q 621 571 636 571 q 568 592 599 571 q 515 646 538 613 q 492 714 492 679 q 504 777 492 738 q 542 856 517 817 q 444 819 490 858 q 360 710 399 779 q 294 551 322 640 q 250 366 265 463 q 235 179 235 269 q 251 178 243 178 q 268 178 260 178 q 374 191 321 178 q 479 228 428 204 l 485 333 q 424 357 454 336 q 372 403 393 378 q 351 446 351 429 q 358 472 351 463 q 382 483 364 481 q 473 497 422 490 q 575 508 524 503 q 672 515 626 513 q 743 518 717 518 q 803 506 771 518 q 863 476 835 494 q 910 438 892 458 q 928 401 928 418 q 915 369 928 376 q 876 363 903 363 q 793 358 846 363 q 683 349 740 353 q 658 74 665 214 q 651 -203 651 -65 q 642 -219 651 -215 q 621 -224 633 -224 q 508 -169 553 -224 q 468 -7 463 -114 l 471 38 q 411 8 443 21 q 352 -12 379 -4 q 313 -19 325 -19 z "},"Ğ":{"ha":760,"x_min":46,"x_max":928,"o":"m 313 -19 q 201 9 254 -19 q 122 86 149 38 q 65 167 85 111 q 46 300 46 224 q 65 488 46 389 q 122 680 85 586 q 212 849 158 774 q 333 970 265 925 q 481 1015 400 1015 q 560 1005 526 1015 q 622 954 594 994 q 697 894 675 936 q 719 806 719 851 q 698 710 719 756 q 654 601 676 664 q 642 579 649 588 q 621 571 636 571 q 568 592 599 571 q 515 646 538 613 q 492 714 492 679 q 504 777 492 738 q 542 856 517 817 q 444 819 490 858 q 360 710 399 779 q 294 551 322 640 q 250 366 265 463 q 235 179 235 269 q 251 178 243 178 q 268 178 260 178 q 374 191 321 178 q 479 228 428 204 l 485 333 q 424 357 454 336 q 372 403 393 378 q 351 446 351 429 q 358 472 351 463 q 382 483 364 481 q 473 497 422 490 q 575 508 524 503 q 672 515 626 513 q 743 518 717 518 q 803 506 771 518 q 863 476 835 494 q 910 438 892 458 q 928 401 928 418 q 915 369 928 376 q 876 363 903 363 q 793 358 846 363 q 683 349 740 353 q 658 74 665 214 q 651 -203 651 -65 q 642 -219 651 -215 q 621 -224 633 -224 q 508 -169 553 -224 q 468 -7 463 -114 l 471 38 q 411 8 443 21 q 352 -12 379 -4 q 313 -19 325 -19 m 447 1053 q 349 1074 394 1053 q 274 1137 303 1094 q 246 1243 246 1179 q 264 1310 246 1285 q 309 1346 282 1335 q 360 1357 336 1357 q 400 1348 383 1357 q 415 1324 417 1339 q 435 1227 410 1260 q 494 1194 460 1194 q 544 1212 519 1194 q 586 1264 569 1229 q 622 1297 597 1285 q 671 1308 647 1308 q 703 1299 690 1308 q 713 1271 717 1290 q 657 1150 699 1199 q 560 1077 615 1101 q 447 1053 504 1053 z "},"Ǧ":{"ha":760,"x_min":46,"x_max":928,"o":"m 313 -19 q 201 9 254 -19 q 122 86 149 38 q 65 167 85 111 q 46 300 46 224 q 65 488 46 389 q 122 680 85 586 q 212 849 158 774 q 333 970 265 925 q 481 1015 400 1015 q 560 1005 526 1015 q 622 954 594 994 q 697 894 675 936 q 719 806 719 851 q 698 710 719 756 q 654 601 676 664 q 642 579 649 588 q 621 571 636 571 q 568 592 599 571 q 515 646 538 613 q 492 714 492 679 q 504 777 492 738 q 542 856 517 817 q 444 819 490 858 q 360 710 399 779 q 294 551 322 640 q 250 366 265 463 q 235 179 235 269 q 251 178 243 178 q 268 178 260 178 q 374 191 321 178 q 479 228 428 204 l 485 333 q 424 357 454 336 q 372 403 393 378 q 351 446 351 429 q 358 472 351 463 q 382 483 364 481 q 473 497 422 490 q 575 508 524 503 q 672 515 626 513 q 743 518 717 518 q 803 506 771 518 q 863 476 835 494 q 910 438 892 458 q 928 401 928 418 q 915 369 928 376 q 876 363 903 363 q 793 358 846 363 q 683 349 740 353 q 658 74 665 214 q 651 -203 651 -65 q 642 -219 651 -215 q 621 -224 633 -224 q 508 -169 553 -224 q 468 -7 463 -114 l 471 38 q 411 8 443 21 q 352 -12 379 -4 q 313 -19 325 -19 m 453 1050 q 424 1063 436 1050 q 377 1113 406 1081 q 319 1180 349 1146 q 265 1236 290 1214 q 253 1261 253 1249 q 279 1301 253 1283 q 335 1318 306 1318 q 407 1287 371 1318 q 475 1211 443 1256 q 552 1298 521 1265 q 629 1331 583 1331 q 667 1313 654 1331 q 681 1275 681 1294 q 667 1242 681 1253 q 608 1187 643 1222 q 538 1117 572 1151 q 481 1061 504 1082 q 453 1050 467 1050 z "},"Ĝ":{"ha":760,"x_min":46,"x_max":928,"o":"m 313 -19 q 201 9 254 -19 q 122 86 149 38 q 65 167 85 111 q 46 300 46 224 q 65 488 46 389 q 122 680 85 586 q 212 849 158 774 q 333 970 265 925 q 481 1015 400 1015 q 560 1005 526 1015 q 622 954 594 994 q 697 894 675 936 q 719 806 719 851 q 698 710 719 756 q 654 601 676 664 q 642 579 649 588 q 621 571 636 571 q 568 592 599 571 q 515 646 538 613 q 492 714 492 679 q 504 777 492 738 q 542 856 517 817 q 444 819 490 858 q 360 710 399 779 q 294 551 322 640 q 250 366 265 463 q 235 179 235 269 q 251 178 243 178 q 268 178 260 178 q 374 191 321 178 q 479 228 428 204 l 485 333 q 424 357 454 336 q 372 403 393 378 q 351 446 351 429 q 358 472 351 463 q 382 483 364 481 q 473 497 422 490 q 575 508 524 503 q 672 515 626 513 q 743 518 717 518 q 803 506 771 518 q 863 476 835 494 q 910 438 892 458 q 928 401 928 418 q 915 369 928 376 q 876 363 903 363 q 793 358 846 363 q 683 349 740 353 q 658 74 665 214 q 651 -203 651 -65 q 642 -219 651 -215 q 621 -224 633 -224 q 508 -169 553 -224 q 468 -7 463 -114 l 471 38 q 411 8 443 21 q 352 -12 379 -4 q 313 -19 325 -19 m 276 1044 q 234 1066 249 1044 q 219 1110 219 1088 q 233 1146 219 1133 q 302 1208 263 1169 q 381 1287 342 1247 q 446 1350 421 1326 q 478 1364 463 1364 q 511 1349 496 1364 q 563 1291 532 1328 q 628 1217 594 1254 q 690 1153 663 1179 q 703 1125 703 1142 q 672 1079 703 1100 q 608 1058 642 1058 q 528 1090 568 1058 q 453 1164 489 1121 q 365 1078 401 1111 q 276 1044 329 1044 z "},"Ģ":{"ha":760,"x_min":46,"x_max":928,"o":"m 313 -19 q 201 9 254 -19 q 122 86 149 38 q 65 167 85 111 q 46 300 46 224 q 65 488 46 389 q 122 680 85 586 q 212 849 158 774 q 333 970 265 925 q 481 1015 400 1015 q 560 1005 526 1015 q 622 954 594 994 q 697 894 675 936 q 719 806 719 851 q 698 710 719 756 q 654 601 676 664 q 642 579 649 588 q 621 571 636 571 q 568 592 599 571 q 515 646 538 613 q 492 714 492 679 q 504 777 492 738 q 542 856 517 817 q 444 819 490 858 q 360 710 399 779 q 294 551 322 640 q 250 366 265 463 q 235 179 235 269 q 251 178 243 178 q 268 178 260 178 q 374 191 321 178 q 479 228 428 204 l 485 333 q 424 357 454 336 q 372 403 393 378 q 351 446 351 429 q 358 472 351 463 q 382 483 364 481 q 473 497 422 490 q 575 508 524 503 q 672 515 626 513 q 743 518 717 518 q 803 506 771 518 q 863 476 835 494 q 910 438 892 458 q 928 401 928 418 q 915 369 928 376 q 876 363 903 363 q 793 358 846 363 q 683 349 740 353 q 658 74 665 214 q 651 -203 651 -65 q 642 -219 651 -215 q 621 -224 633 -224 q 508 -169 553 -224 q 468 -7 463 -114 l 471 38 q 411 8 443 21 q 352 -12 379 -4 q 313 -19 325 -19 m 208 -349 q 173 -337 189 -349 q 154 -304 157 -326 q 164 -258 153 -287 q 185 -183 175 -228 q 189 -82 194 -139 q 220 -76 204 -78 q 251 -75 236 -75 q 345 -92 303 -75 q 388 -144 388 -110 q 369 -208 388 -174 q 324 -273 351 -242 q 265 -325 296 -304 q 208 -349 235 -346 z "},"Ġ":{"ha":760,"x_min":46,"x_max":928,"o":"m 313 -19 q 201 9 254 -19 q 122 86 149 38 q 65 167 85 111 q 46 300 46 224 q 65 488 46 389 q 122 680 85 586 q 212 849 158 774 q 333 970 265 925 q 481 1015 400 1015 q 560 1005 526 1015 q 622 954 594 994 q 697 894 675 936 q 719 806 719 851 q 698 710 719 756 q 654 601 676 664 q 642 579 649 588 q 621 571 636 571 q 568 592 599 571 q 515 646 538 613 q 492 714 492 679 q 504 777 492 738 q 542 856 517 817 q 444 819 490 858 q 360 710 399 779 q 294 551 322 640 q 250 366 265 463 q 235 179 235 269 q 251 178 243 178 q 268 178 260 178 q 374 191 321 178 q 479 228 428 204 l 485 333 q 424 357 454 336 q 372 403 393 378 q 351 446 351 429 q 358 472 351 463 q 382 483 364 481 q 473 497 422 490 q 575 508 524 503 q 672 515 626 513 q 743 518 717 518 q 803 506 771 518 q 863 476 835 494 q 910 438 892 458 q 928 401 928 418 q 915 369 928 376 q 876 363 903 363 q 793 358 846 363 q 683 349 740 353 q 658 74 665 214 q 651 -203 651 -65 q 642 -219 651 -215 q 621 -224 633 -224 q 508 -169 553 -224 q 468 -7 463 -114 l 471 38 q 411 8 443 21 q 352 -12 379 -4 q 313 -19 325 -19 m 499 1088 q 415 1098 453 1088 q 355 1136 376 1108 q 336 1215 333 1164 q 344 1273 339 1242 q 379 1311 349 1304 q 419 1315 396 1314 q 461 1317 443 1317 q 547 1304 500 1317 q 571 1286 571 1299 q 561 1211 571 1254 q 540 1093 551 1168 q 499 1088 518 1088 z "},"H":{"ha":806,"x_min":13,"x_max":801,"o":"m 261 -18 q 209 -10 240 -18 q 147 19 178 -3 q 97 84 117 40 q 81 200 78 128 q 87 297 83 249 q 94 394 90 346 q 37 442 61 413 q 13 489 13 471 q 19 515 13 506 q 43 526 25 524 q 104 536 67 531 q 118 735 113 636 q 125 935 124 835 q 136 986 125 961 q 174 1011 147 1011 q 226 1001 199 1011 q 279 963 254 990 q 320 886 304 936 q 336 757 336 836 q 333 683 336 736 q 324 561 329 631 q 493 576 413 569 q 503 758 499 669 q 510 935 508 847 q 521 986 510 961 q 558 1011 532 1011 q 629 995 592 1011 q 694 940 667 979 q 721 829 721 900 q 717 715 721 785 q 707 564 713 644 q 772 518 743 544 q 801 469 801 492 q 789 438 801 444 q 750 431 776 431 q 697 428 738 431 q 684 267 690 344 q 674 128 678 189 q 672 106 672 117 q 672 88 672 96 q 674 40 672 58 q 676 3 676 21 q 667 -14 676 -10 q 646 -18 658 -18 q 594 -12 625 -18 q 532 13 563 -6 q 482 64 501 31 q 465 151 463 97 q 472 281 468 218 q 481 406 476 344 q 394 397 438 401 q 310 389 350 393 q 299 250 304 318 q 289 128 293 182 q 288 106 288 117 q 288 88 288 96 q 290 40 288 58 q 292 3 292 21 q 283 -14 292 -10 q 261 -18 274 -18 z "},"Ħ":{"ha":806,"x_min":13,"x_max":801,"o":"m 261 -18 q 209 -10 240 -18 q 147 19 178 -3 q 97 84 117 40 q 81 200 78 128 q 87 297 83 249 q 94 394 90 346 q 37 442 61 413 q 13 489 13 471 q 19 515 13 506 q 43 526 25 524 q 104 536 67 531 q 109 598 107 567 q 113 660 111 629 q 48 709 74 679 q 22 761 22 739 q 44 781 24 772 q 118 793 65 789 l 121 793 q 124 865 122 829 q 125 935 125 900 q 136 986 125 961 q 174 1011 147 1011 q 238 996 203 1011 q 299 938 272 981 q 333 811 326 894 l 507 825 q 510 935 508 882 q 521 986 510 961 q 558 1011 532 1011 q 629 995 592 1011 q 694 940 667 979 q 721 829 721 900 q 721 810 721 819 q 777 761 753 789 q 801 714 801 733 q 781 696 800 704 q 715 685 761 688 q 712 626 714 656 q 707 564 710 596 q 772 518 743 544 q 801 469 801 492 q 789 438 801 444 q 750 431 776 431 q 697 428 738 431 q 684 267 690 344 q 674 128 678 189 q 672 106 672 117 q 672 88 672 96 q 674 40 672 58 q 676 3 676 21 q 667 -14 676 -10 q 646 -18 658 -18 q 594 -12 625 -18 q 532 13 563 -6 q 482 64 501 31 q 465 151 463 97 q 472 281 468 218 q 481 406 476 344 q 394 397 438 401 q 310 389 350 393 q 299 250 304 318 q 289 128 293 182 q 288 106 288 117 q 288 88 288 96 q 290 40 288 58 q 292 3 292 21 q 283 -14 292 -10 q 261 -18 274 -18 m 331 653 q 327 609 329 632 q 324 561 325 586 q 493 576 413 569 q 496 622 494 600 q 499 667 497 644 l 331 653 z "},"Ĥ":{"ha":806,"x_min":13,"x_max":801,"o":"m 261 -18 q 209 -10 240 -18 q 147 19 178 -3 q 97 84 117 40 q 81 200 78 128 q 87 297 83 249 q 94 394 90 346 q 37 442 61 413 q 13 489 13 471 q 19 515 13 506 q 43 526 25 524 q 104 536 67 531 q 118 735 113 636 q 125 935 124 835 q 136 986 125 961 q 174 1011 147 1011 q 226 1001 199 1011 q 279 963 254 990 q 320 886 304 936 q 336 757 336 836 q 333 683 336 736 q 324 561 329 631 q 493 576 413 569 q 503 758 499 669 q 510 935 508 847 q 521 986 510 961 q 558 1011 532 1011 q 629 995 592 1011 q 694 940 667 979 q 721 829 721 900 q 717 715 721 785 q 707 564 713 644 q 772 518 743 544 q 801 469 801 492 q 789 438 801 444 q 750 431 776 431 q 697 428 738 431 q 684 267 690 344 q 674 128 678 189 q 672 106 672 117 q 672 88 672 96 q 674 40 672 58 q 676 3 676 21 q 667 -14 676 -10 q 646 -18 658 -18 q 594 -12 625 -18 q 532 13 563 -6 q 482 64 501 31 q 465 151 463 97 q 472 281 468 218 q 481 406 476 344 q 394 397 438 401 q 310 389 350 393 q 299 250 304 318 q 289 128 293 182 q 288 106 288 117 q 288 88 288 96 q 290 40 288 58 q 292 3 292 21 q 283 -14 292 -10 q 261 -18 274 -18 m 253 1044 q 210 1066 225 1044 q 196 1110 196 1088 q 210 1146 196 1133 q 278 1208 239 1169 q 358 1287 318 1247 q 422 1350 397 1326 q 454 1364 439 1364 q 488 1349 472 1364 q 540 1291 508 1328 q 605 1217 571 1254 q 667 1153 639 1179 q 679 1125 679 1142 q 649 1079 679 1100 q 585 1058 618 1058 q 505 1090 544 1058 q 429 1164 465 1121 q 342 1078 378 1111 q 253 1044 306 1044 z "},"I":{"ha":396,"x_min":72,"x_max":329,"o":"m 239 -18 q 172 -3 211 -18 q 102 47 132 11 q 72 146 72 83 q 79 308 72 210 q 95 522 86 406 q 111 760 104 639 q 118 990 118 881 q 135 1006 118 1001 q 178 1011 151 1011 q 241 995 206 1011 q 303 941 276 979 q 329 833 329 903 q 326 733 329 804 q 317 568 322 663 q 303 371 311 474 q 288 172 296 268 q 269 3 279 75 q 239 -18 267 -18 z "},"Ĳ":{"ha":983,"x_min":72,"x_max":933,"o":"m 239 -18 q 172 -3 211 -18 q 102 47 132 11 q 72 146 72 83 q 79 308 72 210 q 95 522 86 406 q 111 760 104 639 q 118 990 118 881 q 135 1006 118 1001 q 178 1011 151 1011 q 241 995 206 1011 q 303 941 276 979 q 329 833 329 903 q 326 733 329 804 q 317 568 322 663 q 303 371 311 474 q 288 172 296 268 q 269 3 279 75 q 239 -18 267 -18 m 679 -19 q 618 -1 649 -19 q 557 46 588 18 q 494 103 526 74 q 428 151 463 132 q 410 179 410 161 q 440 240 410 219 q 508 261 471 261 q 604 238 557 261 q 692 183 651 215 q 701 345 697 257 q 709 525 706 433 q 715 703 713 617 q 719 857 718 789 q 662 849 688 853 q 611 844 636 844 q 528 870 567 844 q 467 931 490 896 q 444 993 444 967 q 471 1015 444 1015 q 538 1019 497 1015 q 622 1027 578 1024 q 703 1031 665 1031 q 792 1014 744 1031 q 861 965 840 997 q 919 926 906 949 q 933 881 933 904 q 931 794 933 861 q 923 633 928 728 q 912 433 918 539 q 899 229 906 328 q 860 93 893 149 q 780 9 828 38 q 679 -19 732 -19 z "},"Í":{"ha":396,"x_min":72,"x_max":490,"o":"m 239 -18 q 172 -3 211 -18 q 102 47 132 11 q 72 146 72 83 q 79 308 72 210 q 95 522 86 406 q 111 760 104 639 q 118 990 118 881 q 135 1006 118 1001 q 178 1011 151 1011 q 241 995 206 1011 q 303 941 276 979 q 329 833 329 903 q 326 733 329 804 q 317 568 322 663 q 303 371 311 474 q 288 172 296 268 q 269 3 279 75 q 239 -18 267 -18 m 228 1058 q 181 1075 201 1058 q 161 1110 161 1092 q 174 1135 161 1125 q 228 1182 194 1153 q 297 1244 261 1211 q 361 1306 333 1278 q 400 1324 379 1324 q 444 1305 424 1324 q 477 1258 464 1286 q 490 1204 490 1231 q 460 1152 490 1178 q 387 1105 431 1126 q 299 1071 343 1083 q 228 1058 256 1058 z "},"Ĭ":{"ha":396,"x_min":22,"x_max":493,"o":"m 239 -18 q 172 -3 211 -18 q 102 47 132 11 q 72 146 72 83 q 79 308 72 210 q 95 522 86 406 q 111 760 104 639 q 118 990 118 881 q 135 1006 118 1001 q 178 1011 151 1011 q 241 995 206 1011 q 303 941 276 979 q 329 833 329 903 q 326 733 329 804 q 317 568 322 663 q 303 371 311 474 q 288 172 296 268 q 269 3 279 75 q 239 -18 267 -18 m 224 1053 q 125 1074 171 1053 q 51 1137 79 1094 q 22 1243 22 1179 q 40 1310 22 1285 q 85 1346 58 1335 q 136 1357 113 1357 q 176 1348 160 1357 q 192 1324 193 1339 q 211 1227 186 1260 q 271 1194 236 1194 q 321 1212 296 1194 q 363 1264 346 1229 q 399 1297 374 1285 q 447 1308 424 1308 q 480 1299 467 1308 q 489 1271 493 1290 q 433 1150 475 1199 q 336 1077 392 1101 q 224 1053 281 1053 z "},"Î":{"ha":396,"x_min":-4,"x_max":479,"o":"m 239 -18 q 172 -3 211 -18 q 102 47 132 11 q 72 146 72 83 q 79 308 72 210 q 95 522 86 406 q 111 760 104 639 q 118 990 118 881 q 135 1006 118 1001 q 178 1011 151 1011 q 241 995 206 1011 q 303 941 276 979 q 329 833 329 903 q 326 733 329 804 q 317 568 322 663 q 303 371 311 474 q 288 172 296 268 q 269 3 279 75 q 239 -18 267 -18 m 53 1044 q 10 1066 25 1044 q -4 1110 -4 1088 q 10 1146 -4 1133 q 78 1208 39 1169 q 158 1287 118 1247 q 222 1350 197 1326 q 254 1364 239 1364 q 288 1349 272 1364 q 340 1291 308 1328 q 405 1217 371 1254 q 467 1153 439 1179 q 479 1125 479 1142 q 449 1079 479 1100 q 385 1058 418 1058 q 305 1090 344 1058 q 229 1164 265 1121 q 142 1078 178 1111 q 53 1044 106 1044 z "},"Ȉ":{"ha":396,"x_min":-186,"x_max":493,"o":"m 239 -18 q 172 -3 211 -18 q 102 47 132 11 q 72 146 72 83 q 79 308 72 210 q 95 522 86 406 q 111 760 104 639 q 118 990 118 881 q 135 1006 118 1001 q 178 1011 151 1011 q 241 995 206 1011 q 303 941 276 979 q 329 833 329 903 q 326 733 329 804 q 317 568 322 663 q 303 371 311 474 q 288 172 296 268 q 269 3 279 75 q 239 -18 267 -18 m 421 1057 q 344 1071 392 1057 q 251 1108 297 1085 q 172 1158 204 1131 q 140 1214 140 1186 q 154 1272 140 1242 q 190 1322 168 1301 q 238 1342 213 1342 q 279 1322 260 1342 q 347 1256 308 1292 q 421 1190 385 1221 q 479 1139 457 1158 q 493 1113 493 1126 q 472 1075 493 1093 q 421 1057 451 1057 m 94 1057 q 18 1071 65 1057 q -76 1108 -29 1085 q -154 1158 -122 1131 q -186 1214 -186 1186 q -172 1272 -186 1242 q -136 1322 -158 1301 q -89 1342 -114 1342 q -47 1322 -67 1342 q 20 1256 -18 1292 q 94 1190 58 1221 q 153 1139 131 1158 q 167 1113 167 1126 q 146 1075 167 1093 q 94 1057 125 1057 z "},"Ï":{"ha":396,"x_min":-21,"x_max":481,"o":"m 239 -18 q 172 -3 211 -18 q 102 47 132 11 q 72 146 72 83 q 79 308 72 210 q 95 522 86 406 q 111 760 104 639 q 118 990 118 881 q 135 1006 118 1001 q 178 1011 151 1011 q 241 995 206 1011 q 303 941 276 979 q 329 833 329 903 q 326 733 329 804 q 317 568 322 663 q 303 371 311 474 q 288 172 296 268 q 269 3 279 75 q 239 -18 267 -18 m 408 1092 q 293 1117 339 1092 q 247 1219 247 1142 q 253 1277 247 1246 q 289 1315 258 1308 q 329 1319 306 1318 q 371 1321 353 1321 q 457 1308 410 1321 q 481 1290 481 1303 q 465 1215 481 1258 q 450 1097 450 1172 q 408 1092 428 1092 m 140 1092 q 25 1117 71 1092 q -21 1219 -21 1142 q -15 1277 -21 1246 q 21 1315 -10 1308 q 61 1319 38 1318 q 103 1321 85 1321 q 189 1308 142 1321 q 213 1290 213 1303 q 197 1215 213 1258 q 182 1097 182 1172 q 140 1092 160 1092 z "},"İ":{"ha":396,"x_min":72,"x_max":347,"o":"m 239 -18 q 172 -3 211 -18 q 102 47 132 11 q 72 146 72 83 q 79 308 72 210 q 95 522 86 406 q 111 760 104 639 q 118 990 118 881 q 135 1006 118 1001 q 178 1011 151 1011 q 241 995 206 1011 q 303 941 276 979 q 329 833 329 903 q 326 733 329 804 q 317 568 322 663 q 303 371 311 474 q 288 172 296 268 q 269 3 279 75 q 239 -18 267 -18 m 275 1088 q 191 1098 229 1088 q 131 1136 153 1108 q 113 1215 110 1164 q 120 1273 115 1242 q 156 1311 125 1304 q 196 1315 172 1314 q 238 1317 219 1317 q 324 1304 276 1317 q 347 1286 347 1299 q 338 1211 347 1254 q 317 1093 328 1168 q 275 1088 294 1088 z "},"Ị":{"ha":396,"x_min":50,"x_max":329,"o":"m 239 -18 q 172 -3 211 -18 q 102 47 132 11 q 72 146 72 83 q 79 308 72 210 q 95 522 86 406 q 111 760 104 639 q 118 990 118 881 q 135 1006 118 1001 q 178 1011 151 1011 q 241 995 206 1011 q 303 941 276 979 q 329 833 329 903 q 326 733 329 804 q 317 568 322 663 q 303 371 311 474 q 288 172 296 268 q 269 3 279 75 q 239 -18 267 -18 m 215 -289 q 131 -278 169 -289 q 72 -240 93 -268 q 53 -161 50 -212 q 60 -103 56 -135 q 96 -65 65 -72 q 136 -61 113 -62 q 178 -60 160 -60 q 264 -72 217 -60 q 288 -90 288 -78 q 278 -165 288 -122 q 257 -283 268 -208 q 215 -289 235 -289 z "},"Ì":{"ha":396,"x_min":14,"x_max":367,"o":"m 239 -18 q 172 -3 211 -18 q 102 47 132 11 q 72 146 72 83 q 79 308 72 210 q 95 522 86 406 q 111 760 104 639 q 118 990 118 881 q 135 1006 118 1001 q 178 1011 151 1011 q 241 995 206 1011 q 303 941 276 979 q 329 833 329 903 q 326 733 329 804 q 317 568 322 663 q 303 371 311 474 q 288 172 296 268 q 269 3 279 75 q 239 -18 267 -18 m 300 1057 q 209 1074 258 1057 q 115 1117 160 1092 q 42 1169 71 1143 q 14 1213 14 1194 q 31 1265 14 1240 q 72 1306 47 1290 q 122 1322 97 1322 q 163 1307 147 1322 q 224 1249 189 1283 q 293 1181 258 1214 q 353 1128 328 1149 q 367 1103 367 1118 q 349 1071 367 1085 q 300 1057 332 1057 z "},"Ỉ":{"ha":396,"x_min":69,"x_max":388,"o":"m 239 -18 q 172 -3 211 -18 q 102 47 132 11 q 72 146 72 83 q 79 308 72 210 q 95 522 86 406 q 111 760 104 639 q 118 990 118 881 q 135 1006 118 1001 q 178 1011 151 1011 q 241 995 206 1011 q 303 941 276 979 q 329 833 329 903 q 326 733 329 804 q 317 568 322 663 q 303 371 311 474 q 288 172 296 268 q 269 3 279 75 q 239 -18 267 -18 m 238 1071 q 200 1088 214 1071 q 186 1124 186 1104 q 196 1154 186 1140 q 217 1184 207 1169 q 228 1210 228 1199 q 213 1226 228 1222 q 178 1229 197 1229 q 153 1228 165 1229 q 129 1228 140 1228 q 90 1252 103 1228 q 73 1308 76 1276 q 69 1364 69 1340 q 76 1390 69 1383 q 92 1396 82 1396 q 113 1393 101 1396 q 135 1390 124 1390 q 327 1348 267 1390 q 388 1244 388 1306 q 372 1185 388 1217 q 330 1125 356 1153 q 275 1082 304 1097 q 238 1071 253 1071 z "},"Ȋ":{"ha":396,"x_min":4,"x_max":472,"o":"m 239 -18 q 172 -3 211 -18 q 102 47 132 11 q 72 146 72 83 q 79 308 72 210 q 95 522 86 406 q 111 760 104 639 q 118 990 118 881 q 135 1006 118 1001 q 178 1011 151 1011 q 241 995 206 1011 q 303 941 276 979 q 329 833 329 903 q 326 733 329 804 q 317 568 322 663 q 303 371 311 474 q 288 172 296 268 q 269 3 279 75 q 239 -18 267 -18 m 251 1317 q 351 1304 304 1321 q 431 1248 399 1288 q 468 1144 463 1208 q 456 1077 472 1104 q 415 1037 440 1050 q 365 1021 389 1024 q 324 1026 342 1019 q 307 1050 307 1033 q 279 1144 307 1114 q 217 1171 251 1175 q 168 1150 192 1169 q 132 1094 144 1131 q 99 1058 122 1072 q 51 1043 75 1044 q 17 1048 31 1040 q 6 1076 4 1056 q 51 1202 14 1150 q 142 1283 89 1254 q 251 1317 196 1311 z "},"Ī":{"ha":396,"x_min":-1,"x_max":461,"o":"m 239 -18 q 172 -3 211 -18 q 102 47 132 11 q 72 146 72 83 q 79 308 72 210 q 95 522 86 406 q 111 760 104 639 q 118 990 118 881 q 135 1006 118 1001 q 178 1011 151 1011 q 241 995 206 1011 q 303 941 276 979 q 329 833 329 903 q 326 733 329 804 q 317 568 322 663 q 303 371 311 474 q 288 172 296 268 q 269 3 279 75 q 239 -18 267 -18 m 89 1085 q 49 1104 69 1085 q 13 1147 28 1124 q -1 1182 -1 1171 q 15 1206 -1 1194 q 76 1221 31 1217 l 333 1239 q 398 1217 369 1242 q 444 1162 426 1193 q 461 1113 461 1131 q 443 1094 461 1101 q 397 1086 425 1086 l 89 1085 z "},"Į":{"ha":396,"x_min":25,"x_max":351,"o":"m 239 -18 q 172 -3 211 -18 q 102 47 132 11 q 72 146 72 83 q 79 308 72 210 q 95 522 86 406 q 111 760 104 639 q 118 990 118 881 q 135 1006 118 1001 q 178 1011 151 1011 q 241 995 206 1011 q 303 941 276 979 q 329 833 329 903 q 326 733 329 804 q 317 568 322 663 q 303 371 311 474 q 288 172 296 268 q 269 3 279 75 q 239 -18 267 -18 m 158 -292 q 60 -256 96 -292 q 25 -167 25 -221 q 42 -89 25 -131 q 90 -9 60 -47 q 158 54 121 29 l 242 17 q 196 -53 215 -12 q 176 -124 176 -93 q 184 -149 176 -139 q 208 -160 192 -160 q 260 -148 242 -160 q 291 -124 278 -136 q 321 -112 304 -112 q 351 -144 351 -112 q 328 -204 351 -169 q 261 -265 304 -239 q 158 -292 218 -292 z "},"Ĩ":{"ha":396,"x_min":42,"x_max":461,"o":"m 239 -18 q 172 -3 211 -18 q 102 47 132 11 q 72 146 72 83 q 79 308 72 210 q 95 522 86 406 q 111 760 104 639 q 118 990 118 881 q 135 1006 118 1001 q 178 1011 151 1011 q 241 995 206 1011 q 303 941 276 979 q 329 833 329 903 q 326 733 329 804 q 317 568 322 663 q 303 371 311 474 q 288 172 296 268 q 269 3 279 75 q 239 -18 267 -18 m 331 1050 q 265 1067 293 1050 q 215 1100 238 1083 q 168 1117 193 1117 q 121 1088 142 1117 q 99 1069 108 1074 q 81 1064 89 1064 q 53 1094 65 1067 q 42 1164 42 1121 q 61 1224 42 1193 q 110 1278 81 1256 q 172 1300 140 1300 q 242 1283 215 1300 q 289 1249 268 1267 q 335 1232 310 1232 q 383 1263 361 1232 q 404 1282 394 1278 q 422 1286 414 1286 q 449 1258 438 1285 q 461 1186 461 1231 q 442 1126 461 1157 q 392 1072 422 1094 q 331 1050 363 1050 z "},"J":{"ha":588,"x_min":14,"x_max":538,"o":"m 283 -19 q 222 -1 253 -19 q 161 46 192 18 q 99 103 131 74 q 32 151 67 132 q 14 179 14 161 q 44 240 14 219 q 113 261 75 261 q 208 238 161 261 q 296 183 256 215 q 306 345 301 257 q 313 525 310 433 q 319 703 317 617 q 324 857 322 789 q 266 849 292 853 q 215 844 240 844 q 133 870 171 844 q 72 931 94 896 q 49 993 49 967 q 75 1015 49 1015 q 142 1019 101 1015 q 226 1027 182 1024 q 307 1031 269 1031 q 397 1014 349 1031 q 465 965 444 997 q 524 926 510 949 q 538 881 538 904 q 535 794 538 861 q 527 633 532 728 q 516 433 522 539 q 503 229 510 328 q 465 93 497 149 q 384 9 432 38 q 283 -19 336 -19 z "},"Ĵ":{"ha":588,"x_min":14,"x_max":568,"o":"m 283 -19 q 222 -1 253 -19 q 161 46 192 18 q 99 103 131 74 q 32 151 67 132 q 14 179 14 161 q 44 240 14 219 q 113 261 75 261 q 208 238 161 261 q 296 183 256 215 q 306 345 301 257 q 313 525 310 433 q 319 703 317 617 q 324 857 322 789 q 266 849 292 853 q 215 844 240 844 q 133 870 171 844 q 72 931 94 896 q 49 993 49 967 q 75 1015 49 1015 q 142 1019 101 1015 q 226 1027 182 1024 q 307 1031 269 1031 q 397 1014 349 1031 q 465 965 444 997 q 524 926 510 949 q 538 881 538 904 q 535 794 538 861 q 527 633 532 728 q 516 433 522 539 q 503 229 510 328 q 465 93 497 149 q 384 9 432 38 q 283 -19 336 -19 m 142 1044 q 99 1066 114 1044 q 85 1110 85 1088 q 99 1146 85 1133 q 167 1208 128 1169 q 247 1287 207 1247 q 311 1350 286 1326 q 343 1364 328 1364 q 376 1349 361 1364 q 428 1291 397 1328 q 494 1217 460 1254 q 556 1153 528 1179 q 568 1125 568 1142 q 538 1079 568 1100 q 474 1058 507 1058 q 394 1090 433 1058 q 318 1164 354 1121 q 231 1078 267 1111 q 142 1044 194 1044 z "},"K":{"ha":781,"x_min":85,"x_max":906,"o":"m 881 -207 q 820 -199 857 -207 q 744 -171 783 -190 q 672 -118 704 -151 l 301 261 q 288 124 293 192 q 278 3 282 56 q 268 -14 276 -10 q 247 -18 260 -18 q 197 -11 225 -18 q 142 16 168 -4 q 100 74 115 36 q 89 176 85 113 q 101 349 94 250 q 114 558 108 447 q 124 781 119 669 q 128 990 128 892 q 144 1006 131 1001 q 176 1011 158 1011 q 245 995 210 1011 q 305 941 281 979 q 329 835 329 903 q 324 705 329 775 q 314 554 318 635 q 444 714 383 631 q 553 875 506 797 q 631 1013 601 953 q 737 975 707 1013 q 767 872 767 938 q 738 785 767 838 q 659 672 708 733 q 549 546 610 611 q 424 418 488 481 l 896 -161 q 906 -185 906 -172 q 881 -207 906 -207 z "},"Ķ":{"ha":781,"x_min":85,"x_max":906,"o":"m 881 -207 q 820 -199 857 -207 q 744 -171 783 -190 q 672 -118 704 -151 l 301 261 q 288 124 293 192 q 278 3 282 56 q 268 -14 276 -10 q 247 -18 260 -18 q 197 -11 225 -18 q 142 16 168 -4 q 100 74 115 36 q 89 176 85 113 q 101 349 94 250 q 114 558 108 447 q 124 781 119 669 q 128 990 128 892 q 144 1006 131 1001 q 176 1011 158 1011 q 245 995 210 1011 q 305 941 281 979 q 329 835 329 903 q 324 705 329 775 q 314 554 318 635 q 444 714 383 631 q 553 875 506 797 q 631 1013 601 953 q 737 975 707 1013 q 767 872 767 938 q 738 785 767 838 q 659 672 708 733 q 549 546 610 611 q 424 418 488 481 l 896 -161 q 906 -185 906 -172 q 881 -207 906 -207 m 344 -321 q 309 -310 325 -321 q 290 -276 293 -299 q 300 -230 289 -260 q 321 -156 311 -200 q 325 -54 331 -111 q 356 -49 340 -50 q 388 -47 372 -47 q 481 -65 439 -47 q 524 -117 524 -82 q 506 -180 524 -146 q 460 -245 488 -214 q 401 -297 432 -276 q 344 -321 371 -318 z "},"L":{"ha":654,"x_min":56,"x_max":622,"o":"m 271 -21 q 194 -3 232 -19 q 133 49 157 14 q 75 109 94 72 q 60 194 56 146 q 80 415 69 297 q 101 674 90 532 q 118 990 111 815 q 135 1006 121 1001 q 168 1011 150 1010 q 238 988 201 1011 q 299 917 274 964 q 324 799 324 869 q 307 514 324 671 q 274 167 290 357 l 278 167 q 374 224 322 199 q 472 249 425 249 q 535 234 500 249 q 596 197 569 219 q 622 146 622 174 q 606 121 622 128 l 271 -21 z "},"Ǉ":{"ha":1235,"x_min":56,"x_max":1185,"o":"m 271 -21 q 194 -3 232 -19 q 133 49 157 14 q 75 109 94 72 q 60 194 56 146 q 80 415 69 297 q 101 674 90 532 q 118 990 111 815 q 135 1006 121 1001 q 168 1011 150 1010 q 238 988 201 1011 q 299 917 274 964 q 324 799 324 869 q 307 514 324 671 q 274 167 290 357 l 278 167 q 374 224 322 199 q 472 249 425 249 q 535 234 500 249 q 596 197 569 219 q 622 146 622 174 q 606 121 622 128 l 271 -21 m 931 -19 q 869 -1 900 -19 q 808 46 839 18 q 746 103 778 74 q 679 151 714 132 q 661 179 661 161 q 692 240 661 219 q 760 261 722 261 q 856 238 808 261 q 943 183 903 215 q 953 345 949 257 q 960 525 957 433 q 967 703 964 617 q 971 857 969 789 q 913 849 939 853 q 863 844 888 844 q 780 870 818 844 q 719 931 742 896 q 696 993 696 967 q 722 1015 696 1015 q 789 1019 749 1015 q 873 1027 829 1024 q 954 1031 917 1031 q 1044 1014 996 1031 q 1113 965 1092 997 q 1171 926 1157 949 q 1185 881 1185 904 q 1182 794 1185 861 q 1174 633 1179 728 q 1163 433 1169 539 q 1150 229 1157 328 q 1112 93 1144 149 q 1031 9 1079 38 q 931 -19 983 -19 z "},"Ĺ":{"ha":654,"x_min":56,"x_max":622,"o":"m 271 -21 q 194 -3 232 -19 q 133 49 157 14 q 75 109 94 72 q 60 194 56 146 q 80 415 69 297 q 101 674 90 532 q 118 990 111 815 q 135 1006 121 1001 q 168 1011 150 1010 q 238 988 201 1011 q 299 917 274 964 q 324 799 324 869 q 307 514 324 671 q 274 167 290 357 l 278 167 q 374 224 322 199 q 472 249 425 249 q 535 234 500 249 q 596 197 569 219 q 622 146 622 174 q 606 121 622 128 l 271 -21 m 240 1058 q 194 1075 214 1058 q 174 1110 174 1092 q 186 1135 174 1125 q 240 1182 207 1153 q 310 1244 274 1211 q 374 1306 346 1278 q 413 1324 392 1324 q 456 1305 436 1324 q 490 1258 476 1286 q 503 1204 503 1231 q 473 1152 503 1178 q 399 1105 443 1126 q 312 1071 356 1083 q 240 1058 268 1058 z "},"Ľ":{"ha":654,"x_min":56,"x_max":622,"o":"m 271 -21 q 194 -3 232 -19 q 133 49 157 14 q 75 109 94 72 q 60 194 56 146 q 80 415 69 297 q 101 674 90 532 q 118 990 111 815 q 135 1006 121 1001 q 168 1011 150 1010 q 238 988 201 1011 q 299 917 274 964 q 324 799 324 869 q 307 514 324 671 q 274 167 290 357 l 278 167 q 374 224 322 199 q 472 249 425 249 q 535 234 500 249 q 596 197 569 219 q 622 146 622 174 q 606 121 622 128 l 271 -21 m 438 754 q 408 773 415 754 q 401 814 401 792 q 407 889 401 846 q 422 976 413 932 q 444 1051 432 1019 q 467 1090 456 1083 q 501 1096 474 1096 q 525 1094 507 1096 q 564 1088 543 1092 q 600 1076 585 1083 q 615 1057 615 1068 q 603 1008 615 1042 q 572 934 590 975 q 533 856 553 893 q 496 792 513 818 q 472 764 479 767 q 438 754 450 754 z "},"Ļ":{"ha":654,"x_min":56,"x_max":622,"o":"m 271 -21 q 194 -3 232 -19 q 133 49 157 14 q 75 109 94 72 q 60 194 56 146 q 80 415 69 297 q 101 674 90 532 q 118 990 111 815 q 135 1006 121 1001 q 168 1011 150 1010 q 238 988 201 1011 q 299 917 274 964 q 324 799 324 869 q 307 514 324 671 q 274 167 290 357 l 278 167 q 374 224 322 199 q 472 249 425 249 q 535 234 500 249 q 596 197 569 219 q 622 146 622 174 q 606 121 622 128 l 271 -21 m 207 -321 q 172 -310 188 -321 q 153 -276 156 -299 q 163 -230 151 -260 q 183 -156 174 -200 q 188 -54 193 -111 q 219 -49 203 -50 q 250 -47 235 -47 q 344 -65 301 -47 q 386 -117 386 -82 q 368 -180 386 -146 q 322 -245 350 -214 q 264 -297 294 -276 q 207 -321 233 -318 z "},"Ŀ":{"ha":796,"x_min":56,"x_max":701,"o":"m 271 -21 q 194 -3 232 -19 q 133 49 157 14 q 75 109 94 72 q 60 194 56 146 q 80 415 69 297 q 101 674 90 532 q 118 990 111 815 q 135 1006 121 1001 q 168 1011 150 1010 q 238 988 201 1011 q 299 917 274 964 q 324 799 324 869 q 307 514 324 671 q 274 167 290 357 l 278 167 q 374 224 322 199 q 472 249 425 249 q 535 234 500 249 q 596 197 569 219 q 622 146 622 174 q 606 121 622 128 l 271 -21 m 625 363 q 534 374 575 363 q 471 414 493 385 q 451 499 449 443 q 455 540 453 518 q 467 578 457 561 q 497 601 476 596 q 541 606 515 604 q 585 607 567 607 q 676 593 626 607 q 696 587 690 590 q 701 574 701 583 q 691 494 701 539 q 669 368 681 449 q 625 363 646 363 z "},"ǈ":{"ha":1015,"x_min":56,"x_max":951,"o":"m 271 -21 q 194 -3 232 -19 q 133 49 157 14 q 75 109 94 72 q 60 194 56 146 q 80 415 69 297 q 101 674 90 532 q 118 990 111 815 q 135 1006 121 1001 q 168 1011 150 1010 q 238 988 201 1011 q 299 917 274 964 q 324 799 324 869 q 307 514 324 671 q 274 167 290 357 l 278 167 q 374 224 322 199 q 472 249 425 249 q 535 234 500 249 q 596 197 569 219 q 622 146 622 174 q 606 121 622 128 l 271 -21 m 740 -264 q 652 -247 686 -264 q 603 -212 618 -231 q 586 -190 588 -193 l 594 -171 q 648 -94 625 -154 q 688 59 671 -33 q 715 263 704 151 q 730 494 725 375 q 735 729 735 614 q 747 758 735 750 q 776 765 758 765 q 860 743 821 765 q 923 688 899 721 q 947 619 947 654 q 946 437 947 535 q 939 240 944 339 q 920 50 933 140 q 885 -111 907 -40 q 827 -223 863 -182 q 740 -264 792 -264 m 879 903 q 795 913 833 903 q 735 951 757 924 q 717 1031 714 979 q 724 1088 719 1057 q 760 1126 729 1119 q 800 1131 776 1129 q 842 1132 824 1132 q 928 1119 881 1132 q 951 1101 951 1114 q 942 1026 951 1069 q 921 908 932 983 q 879 903 899 903 z "},"Ł":{"ha":647,"x_min":-68,"x_max":615,"o":"m 264 -21 q 188 -3 225 -19 q 126 49 150 14 q 68 109 88 72 q 53 194 49 146 q 58 257 56 225 q 64 322 61 289 q 14 299 40 311 q 0 294 6 294 q -12 299 -6 294 q -49 346 -29 314 q -68 404 -68 378 q -44 436 -68 425 q -1 458 -35 440 q 79 499 33 475 q 97 724 89 603 q 111 990 104 846 q 128 1006 114 1001 q 161 1011 143 1010 q 231 988 194 1011 q 292 917 267 964 q 317 799 317 869 q 314 699 317 751 q 307 592 311 647 q 424 654 376 629 q 472 679 472 679 q 481 682 475 682 q 528 649 510 682 q 546 582 546 615 q 545 570 546 576 q 543 558 544 564 q 535 535 540 547 q 519 517 531 524 q 417 463 471 489 q 289 401 364 436 q 278 288 283 347 q 267 167 272 229 l 271 167 q 367 224 315 199 q 465 249 418 249 q 528 234 493 249 q 589 197 563 219 q 615 146 615 174 q 599 121 615 128 l 264 -21 z "},"M":{"ha":1024,"x_min":26,"x_max":942,"o":"m 169 -24 q 107 -12 140 -24 q 50 29 74 0 q 26 111 26 58 q 26 123 26 117 q 28 135 26 129 q 75 472 43 275 q 167 900 107 669 q 135 961 153 932 q 117 1011 117 990 q 128 1031 117 1025 q 151 1036 139 1036 q 242 1014 196 1036 q 327 944 288 992 q 389 824 367 897 l 518 400 l 521 400 q 578 582 551 497 q 631 751 604 667 q 689 931 658 836 q 721 986 701 969 q 765 1003 740 1003 q 822 988 789 1003 q 896 916 875 965 q 911 783 917 867 q 907 625 907 729 q 909 458 907 549 q 916 276 911 367 q 927 110 921 186 q 942 -12 933 35 q 899 -19 925 -19 q 814 3 856 -19 q 765 79 772 25 q 749 256 756 158 q 743 447 743 354 q 747 572 743 514 l 744 572 l 575 114 q 546 99 569 99 q 482 119 514 99 q 425 164 433 133 l 293 608 l 290 608 q 266 486 279 554 q 240 346 253 418 q 219 207 228 274 q 211 90 211 140 q 215 33 211 57 q 217 24 217 28 q 217 15 217 19 q 203 -15 217 -7 q 169 -24 189 -24 z "},"N":{"ha":886,"x_min":63,"x_max":808,"o":"m 713 -19 q 658 -10 682 -19 q 606 22 633 -1 q 553 59 575 35 q 515 114 532 83 l 274 540 l 271 540 q 249 369 258 464 q 234 183 240 275 q 225 21 228 90 q 199 0 225 0 q 103 51 139 0 q 68 189 68 101 q 75 361 68 240 q 99 663 82 482 q 117 785 106 749 q 154 821 128 821 l 68 965 q 63 986 63 975 q 96 1013 63 1013 q 202 981 142 1013 q 301 878 263 949 l 583 351 l 586 351 q 600 532 593 439 q 614 713 607 625 q 626 874 621 801 q 636 990 632 946 q 653 1006 639 1001 q 685 1011 667 1011 q 744 994 717 1011 q 790 938 772 978 q 808 829 808 899 q 801 694 808 781 q 783 497 793 607 q 765 263 772 386 q 757 18 757 140 q 744 -10 757 0 q 713 -19 732 -19 z "},"Ǌ":{"ha":1474,"x_min":63,"x_max":1424,"o":"m 713 -19 q 658 -10 682 -19 q 606 22 633 -1 q 553 59 575 35 q 515 114 532 83 l 274 540 l 271 540 q 249 369 258 464 q 234 183 240 275 q 225 21 228 90 q 199 0 225 0 q 103 51 139 0 q 68 189 68 101 q 75 361 68 240 q 99 663 82 482 q 117 785 106 749 q 154 821 128 821 l 68 965 q 63 986 63 975 q 96 1013 63 1013 q 202 981 142 1013 q 301 878 263 949 l 583 351 l 586 351 q 600 532 593 439 q 614 713 607 625 q 626 874 621 801 q 636 990 632 946 q 653 1006 639 1001 q 685 1011 667 1011 q 744 994 717 1011 q 790 938 772 978 q 808 829 808 899 q 801 694 808 781 q 783 497 793 607 q 765 263 772 386 q 757 18 757 140 q 744 -10 757 0 q 713 -19 732 -19 m 1169 -19 q 1108 -1 1139 -19 q 1047 46 1078 18 q 985 103 1017 74 q 918 151 953 132 q 900 179 900 161 q 931 240 900 219 q 999 261 961 261 q 1094 238 1047 261 q 1182 183 1142 215 q 1192 345 1188 257 q 1199 525 1196 433 q 1206 703 1203 617 q 1210 857 1208 789 q 1152 849 1178 853 q 1101 844 1126 844 q 1019 870 1057 844 q 958 931 981 896 q 935 993 935 967 q 961 1015 935 1015 q 1028 1019 988 1015 q 1112 1027 1068 1024 q 1193 1031 1156 1031 q 1283 1014 1235 1031 q 1351 965 1331 997 q 1410 926 1396 949 q 1424 881 1424 904 q 1421 794 1424 861 q 1413 633 1418 728 q 1402 433 1408 539 q 1389 229 1396 328 q 1351 93 1383 149 q 1270 9 1318 38 q 1169 -19 1222 -19 z "},"Ń":{"ha":886,"x_min":63,"x_max":808,"o":"m 713 -19 q 658 -10 682 -19 q 606 22 633 -1 q 553 59 575 35 q 515 114 532 83 l 274 540 l 271 540 q 249 369 258 464 q 234 183 240 275 q 225 21 228 90 q 199 0 225 0 q 103 51 139 0 q 68 189 68 101 q 75 361 68 240 q 99 663 82 482 q 117 785 106 749 q 154 821 128 821 l 68 965 q 63 986 63 975 q 96 1013 63 1013 q 202 981 142 1013 q 301 878 263 949 l 583 351 l 586 351 q 600 532 593 439 q 614 713 607 625 q 626 874 621 801 q 636 990 632 946 q 653 1006 639 1001 q 685 1011 667 1011 q 744 994 717 1011 q 790 938 772 978 q 808 829 808 899 q 801 694 808 781 q 783 497 793 607 q 765 263 772 386 q 757 18 757 140 q 744 -10 757 0 q 713 -19 732 -19 m 451 1058 q 405 1075 425 1058 q 385 1110 385 1092 q 397 1135 385 1125 q 451 1182 418 1153 q 521 1244 485 1211 q 585 1306 557 1278 q 624 1324 603 1324 q 667 1305 647 1324 q 701 1258 688 1286 q 714 1204 714 1231 q 684 1152 714 1178 q 610 1105 654 1126 q 523 1071 567 1083 q 451 1058 479 1058 z "},"Ň":{"ha":886,"x_min":63,"x_max":808,"o":"m 713 -19 q 658 -10 682 -19 q 606 22 633 -1 q 553 59 575 35 q 515 114 532 83 l 274 540 l 271 540 q 249 369 258 464 q 234 183 240 275 q 225 21 228 90 q 199 0 225 0 q 103 51 139 0 q 68 189 68 101 q 75 361 68 240 q 99 663 82 482 q 117 785 106 749 q 154 821 128 821 l 68 965 q 63 986 63 975 q 96 1013 63 1013 q 202 981 142 1013 q 301 878 263 949 l 583 351 l 586 351 q 600 532 593 439 q 614 713 607 625 q 626 874 621 801 q 636 990 632 946 q 653 1006 639 1001 q 685 1011 667 1011 q 744 994 717 1011 q 790 938 772 978 q 808 829 808 899 q 801 694 808 781 q 783 497 793 607 q 765 263 772 386 q 757 18 757 140 q 744 -10 757 0 q 713 -19 732 -19 m 453 1050 q 424 1063 436 1050 q 377 1113 406 1081 q 319 1180 349 1146 q 265 1236 290 1214 q 253 1261 253 1249 q 279 1301 253 1283 q 335 1318 306 1318 q 407 1287 371 1318 q 475 1211 443 1256 q 552 1298 521 1265 q 629 1331 583 1331 q 667 1313 654 1331 q 681 1275 681 1294 q 667 1242 681 1253 q 608 1187 643 1222 q 538 1117 572 1151 q 481 1061 504 1082 q 453 1050 467 1050 z "},"Ņ":{"ha":886,"x_min":63,"x_max":808,"o":"m 713 -19 q 658 -10 682 -19 q 606 22 633 -1 q 553 59 575 35 q 515 114 532 83 l 274 540 l 271 540 q 249 369 258 464 q 234 183 240 275 q 225 21 228 90 q 199 0 225 0 q 103 51 139 0 q 68 189 68 101 q 75 361 68 240 q 99 663 82 482 q 117 785 106 749 q 154 821 128 821 l 68 965 q 63 986 63 975 q 96 1013 63 1013 q 202 981 142 1013 q 301 878 263 949 l 583 351 l 586 351 q 600 532 593 439 q 614 713 607 625 q 626 874 621 801 q 636 990 632 946 q 653 1006 639 1001 q 685 1011 667 1011 q 744 994 717 1011 q 790 938 772 978 q 808 829 808 899 q 801 694 808 781 q 783 497 793 607 q 765 263 772 386 q 757 18 757 140 q 744 -10 757 0 q 713 -19 732 -19 m 322 -321 q 287 -310 303 -321 q 268 -276 271 -299 q 278 -230 267 -260 q 299 -156 289 -200 q 303 -54 308 -111 q 334 -49 318 -50 q 365 -47 350 -47 q 459 -65 417 -47 q 501 -117 501 -82 q 483 -180 501 -146 q 438 -245 465 -214 q 379 -297 410 -276 q 322 -321 349 -318 z "},"ǋ":{"ha":1247,"x_min":63,"x_max":1183,"o":"m 713 -19 q 658 -10 682 -19 q 606 22 633 -1 q 553 59 575 35 q 515 114 532 83 l 274 540 l 271 540 q 249 369 258 464 q 234 183 240 275 q 225 21 228 90 q 199 0 225 0 q 103 51 139 0 q 68 189 68 101 q 75 361 68 240 q 99 663 82 482 q 117 785 106 749 q 154 821 128 821 l 68 965 q 63 986 63 975 q 96 1013 63 1013 q 202 981 142 1013 q 301 878 263 949 l 583 351 l 586 351 q 600 532 593 439 q 614 713 607 625 q 626 874 621 801 q 636 990 632 946 q 653 1006 639 1001 q 685 1011 667 1011 q 744 994 717 1011 q 790 938 772 978 q 808 829 808 899 q 801 694 808 781 q 783 497 793 607 q 765 263 772 386 q 757 18 757 140 q 744 -10 757 0 q 713 -19 732 -19 m 972 -264 q 884 -247 918 -264 q 835 -212 850 -231 q 818 -190 819 -193 l 826 -171 q 880 -94 857 -154 q 919 59 903 -33 q 947 263 936 151 q 962 494 957 375 q 967 729 967 614 q 978 758 967 750 q 1008 765 990 765 q 1092 743 1053 765 q 1155 688 1131 721 q 1179 619 1179 654 q 1178 437 1179 535 q 1171 240 1176 339 q 1152 50 1165 140 q 1117 -111 1139 -40 q 1059 -223 1094 -182 q 972 -264 1024 -264 m 1111 903 q 1027 913 1065 903 q 967 951 989 924 q 949 1031 946 979 q 956 1088 951 1057 q 992 1126 961 1119 q 1032 1131 1008 1129 q 1074 1132 1056 1132 q 1160 1119 1113 1132 q 1183 1101 1183 1114 q 1174 1026 1183 1069 q 1153 908 1164 983 q 1111 903 1131 903 z "},"Ñ":{"ha":886,"x_min":63,"x_max":808,"o":"m 713 -19 q 658 -10 682 -19 q 606 22 633 -1 q 553 59 575 35 q 515 114 532 83 l 274 540 l 271 540 q 249 369 258 464 q 234 183 240 275 q 225 21 228 90 q 199 0 225 0 q 103 51 139 0 q 68 189 68 101 q 75 361 68 240 q 99 663 82 482 q 117 785 106 749 q 154 821 128 821 l 68 965 q 63 986 63 975 q 96 1013 63 1013 q 202 981 142 1013 q 301 878 263 949 l 583 351 l 586 351 q 600 532 593 439 q 614 713 607 625 q 626 874 621 801 q 636 990 632 946 q 653 1006 639 1001 q 685 1011 667 1011 q 744 994 717 1011 q 790 938 772 978 q 808 829 808 899 q 801 694 808 781 q 783 497 793 607 q 765 263 772 386 q 757 18 757 140 q 744 -10 757 0 q 713 -19 732 -19 m 554 1050 q 489 1067 517 1050 q 439 1100 461 1083 q 392 1117 417 1117 q 344 1088 365 1117 q 322 1069 332 1074 q 304 1064 313 1064 q 277 1094 289 1067 q 265 1164 265 1121 q 285 1224 265 1193 q 334 1278 304 1256 q 396 1300 364 1300 q 465 1283 439 1300 q 513 1249 492 1267 q 558 1232 533 1232 q 607 1263 585 1232 q 628 1282 618 1278 q 646 1286 638 1286 q 673 1258 661 1285 q 685 1186 685 1231 q 665 1126 685 1157 q 616 1072 646 1094 q 554 1050 586 1050 z "},"Ŋ":{"ha":886,"x_min":63,"x_max":808,"o":"m 540 -237 l 340 -140 q 322 -118 322 -131 q 365 -42 322 -68 q 464 -15 408 -15 q 513 -27 486 -15 q 547 -58 539 -39 l 554 31 q 526 62 539 44 q 501 100 513 79 l 286 496 l 283 496 q 263 336 271 419 q 251 172 256 253 q 243 21 246 90 q 217 0 243 0 q 115 47 160 0 q 68 175 71 94 q 74 344 67 219 q 99 663 81 468 q 117 785 106 749 q 154 821 128 821 l 68 965 q 63 986 63 975 q 96 1013 63 1013 q 165 999 126 1013 q 240 956 203 985 q 301 878 276 926 l 583 338 l 586 338 q 600 521 593 425 q 614 707 607 617 q 626 872 621 797 q 636 990 632 946 q 653 1006 639 1001 q 685 1011 667 1011 q 744 994 717 1011 q 790 938 772 978 q 808 829 808 899 q 801 693 808 781 q 783 492 793 606 q 765 247 772 378 q 757 -21 757 117 q 725 -134 757 -85 q 643 -210 693 -183 q 540 -237 593 -237 z "},"O":{"ha":814,"x_min":40,"x_max":775,"o":"m 388 -21 q 303 -7 344 -21 q 236 44 261 7 q 85 194 131 96 q 40 444 40 292 q 66 647 40 547 q 142 829 92 747 q 266 960 192 911 q 436 1010 340 1010 q 542 992 489 1010 q 619 933 594 974 q 718 861 685 910 q 763 742 751 813 q 775 579 775 671 q 758 414 775 499 q 710 251 742 329 q 631 113 678 174 q 522 15 583 51 q 388 -21 461 -21 m 336 138 q 420 201 381 149 q 491 330 460 253 q 540 492 522 407 q 558 654 558 578 q 540 788 558 728 q 481 857 521 847 q 388 796 429 847 q 320 669 347 744 q 278 510 293 594 q 264 350 264 426 q 281 212 264 265 q 336 138 299 158 z "},"Ó":{"ha":814,"x_min":40,"x_max":775,"o":"m 388 -21 q 303 -7 344 -21 q 236 44 261 7 q 85 194 131 96 q 40 444 40 292 q 66 647 40 547 q 142 829 92 747 q 266 960 192 911 q 436 1010 340 1010 q 542 992 489 1010 q 619 933 594 974 q 718 861 685 910 q 763 742 751 813 q 775 579 775 671 q 758 414 775 499 q 710 251 742 329 q 631 113 678 174 q 522 15 583 51 q 388 -21 461 -21 m 336 138 q 420 201 381 149 q 491 330 460 253 q 540 492 522 407 q 558 654 558 578 q 540 788 558 728 q 481 857 521 847 q 388 796 429 847 q 320 669 347 744 q 278 510 293 594 q 264 350 264 426 q 281 212 264 265 q 336 138 299 158 m 474 1058 q 427 1075 447 1058 q 407 1110 407 1092 q 419 1135 407 1125 q 474 1182 440 1153 q 543 1244 507 1211 q 607 1306 579 1278 q 646 1324 625 1324 q 690 1305 669 1324 q 723 1258 710 1286 q 736 1204 736 1231 q 706 1152 736 1178 q 633 1105 676 1126 q 545 1071 589 1083 q 474 1058 501 1058 z "},"Ŏ":{"ha":814,"x_min":40,"x_max":775,"o":"m 388 -21 q 303 -7 344 -21 q 236 44 261 7 q 85 194 131 96 q 40 444 40 292 q 66 647 40 547 q 142 829 92 747 q 266 960 192 911 q 436 1010 340 1010 q 542 992 489 1010 q 619 933 594 974 q 718 861 685 910 q 763 742 751 813 q 775 579 775 671 q 758 414 775 499 q 710 251 742 329 q 631 113 678 174 q 522 15 583 51 q 388 -21 461 -21 m 336 138 q 420 201 381 149 q 491 330 460 253 q 540 492 522 407 q 558 654 558 578 q 540 788 558 728 q 481 857 521 847 q 388 796 429 847 q 320 669 347 744 q 278 510 293 594 q 264 350 264 426 q 281 212 264 265 q 336 138 299 158 m 469 1053 q 371 1074 417 1053 q 297 1137 325 1094 q 268 1243 268 1179 q 286 1310 268 1285 q 331 1346 304 1335 q 382 1357 358 1357 q 422 1348 406 1357 q 438 1324 439 1339 q 457 1227 432 1260 q 517 1194 482 1194 q 567 1212 542 1194 q 608 1264 592 1229 q 644 1297 619 1285 q 693 1308 669 1308 q 726 1299 713 1308 q 735 1271 739 1290 q 679 1150 721 1199 q 582 1077 638 1101 q 469 1053 526 1053 z "},"Ô":{"ha":814,"x_min":40,"x_max":775,"o":"m 388 -21 q 303 -7 344 -21 q 236 44 261 7 q 85 194 131 96 q 40 444 40 292 q 66 647 40 547 q 142 829 92 747 q 266 960 192 911 q 436 1010 340 1010 q 542 992 489 1010 q 619 933 594 974 q 718 861 685 910 q 763 742 751 813 q 775 579 775 671 q 758 414 775 499 q 710 251 742 329 q 631 113 678 174 q 522 15 583 51 q 388 -21 461 -21 m 336 138 q 420 201 381 149 q 491 330 460 253 q 540 492 522 407 q 558 654 558 578 q 540 788 558 728 q 481 857 521 847 q 388 796 429 847 q 320 669 347 744 q 278 510 293 594 q 264 350 264 426 q 281 212 264 265 q 336 138 299 158 m 299 1044 q 256 1066 271 1044 q 242 1110 242 1088 q 256 1146 242 1133 q 324 1208 285 1169 q 403 1287 364 1247 q 468 1350 443 1326 q 500 1364 485 1364 q 533 1349 518 1364 q 585 1291 554 1328 q 651 1217 617 1254 q 713 1153 685 1179 q 725 1125 725 1142 q 694 1079 725 1100 q 631 1058 664 1058 q 551 1090 590 1058 q 475 1164 511 1121 q 388 1078 424 1111 q 299 1044 351 1044 z "},"Ố":{"ha":814,"x_min":40,"x_max":775,"o":"m 388 -21 q 303 -7 344 -21 q 236 44 261 7 q 85 194 131 96 q 40 444 40 292 q 66 647 40 547 q 142 829 92 747 q 266 960 192 911 q 436 1010 340 1010 q 542 992 489 1010 q 619 933 594 974 q 718 861 685 910 q 763 742 751 813 q 775 579 775 671 q 758 414 775 499 q 710 251 742 329 q 631 113 678 174 q 522 15 583 51 q 388 -21 461 -21 m 336 138 q 420 201 381 149 q 491 330 460 253 q 540 492 522 407 q 558 654 558 578 q 540 788 558 728 q 481 857 521 847 q 388 796 429 847 q 320 669 347 744 q 278 510 293 594 q 264 350 264 426 q 281 212 264 265 q 336 138 299 158 m 299 1044 q 256 1066 271 1044 q 242 1110 242 1088 q 256 1146 242 1133 q 324 1208 285 1169 q 403 1287 364 1247 q 468 1350 443 1326 q 500 1364 485 1364 q 533 1349 518 1364 q 585 1291 554 1328 q 651 1217 617 1254 q 713 1153 685 1179 q 725 1125 725 1142 q 694 1079 725 1100 q 631 1058 664 1058 q 551 1090 590 1058 q 475 1164 511 1121 q 388 1078 424 1111 q 299 1044 351 1044 m 481 1397 q 434 1414 454 1397 q 414 1449 414 1431 q 426 1474 414 1464 q 481 1521 447 1492 q 550 1583 514 1550 q 614 1644 586 1617 q 653 1663 632 1663 q 697 1644 676 1663 q 730 1597 717 1625 q 743 1543 743 1569 q 713 1491 743 1517 q 640 1444 683 1465 q 552 1410 596 1422 q 481 1397 508 1397 z "},"Ộ":{"ha":814,"x_min":40,"x_max":775,"o":"m 388 -21 q 303 -7 344 -21 q 236 44 261 7 q 85 194 131 96 q 40 444 40 292 q 66 647 40 547 q 142 829 92 747 q 266 960 192 911 q 436 1010 340 1010 q 542 992 489 1010 q 619 933 594 974 q 718 861 685 910 q 763 742 751 813 q 775 579 775 671 q 758 414 775 499 q 710 251 742 329 q 631 113 678 174 q 522 15 583 51 q 388 -21 461 -21 m 336 138 q 420 201 381 149 q 491 330 460 253 q 540 492 522 407 q 558 654 558 578 q 540 788 558 728 q 481 857 521 847 q 388 796 429 847 q 320 669 347 744 q 278 510 293 594 q 264 350 264 426 q 281 212 264 265 q 336 138 299 158 m 428 -289 q 344 -278 382 -289 q 284 -240 306 -268 q 265 -161 263 -212 q 273 -103 268 -135 q 308 -65 278 -72 q 349 -61 325 -62 q 390 -60 372 -60 q 476 -72 429 -60 q 500 -90 500 -78 q 490 -165 500 -122 q 469 -283 481 -208 q 428 -289 447 -289 m 299 1044 q 256 1066 271 1044 q 242 1110 242 1088 q 256 1146 242 1133 q 324 1208 285 1169 q 403 1287 364 1247 q 468 1350 443 1326 q 500 1364 485 1364 q 533 1349 518 1364 q 585 1291 554 1328 q 651 1217 617 1254 q 713 1153 685 1179 q 725 1125 725 1142 q 694 1079 725 1100 q 631 1058 664 1058 q 551 1090 590 1058 q 475 1164 511 1121 q 388 1078 424 1111 q 299 1044 351 1044 z "},"Ồ":{"ha":814,"x_min":40,"x_max":775,"o":"m 388 -21 q 303 -7 344 -21 q 236 44 261 7 q 85 194 131 96 q 40 444 40 292 q 66 647 40 547 q 142 829 92 747 q 266 960 192 911 q 436 1010 340 1010 q 542 992 489 1010 q 619 933 594 974 q 718 861 685 910 q 763 742 751 813 q 775 579 775 671 q 758 414 775 499 q 710 251 742 329 q 631 113 678 174 q 522 15 583 51 q 388 -21 461 -21 m 336 138 q 420 201 381 149 q 491 330 460 253 q 540 492 522 407 q 558 654 558 578 q 540 788 558 728 q 481 857 521 847 q 388 796 429 847 q 320 669 347 744 q 278 510 293 594 q 264 350 264 426 q 281 212 264 265 q 336 138 299 158 m 299 1044 q 256 1066 271 1044 q 242 1110 242 1088 q 256 1146 242 1133 q 324 1208 285 1169 q 403 1287 364 1247 q 468 1350 443 1326 q 500 1364 485 1364 q 533 1349 518 1364 q 585 1291 554 1328 q 651 1217 617 1254 q 713 1153 685 1179 q 725 1125 725 1142 q 694 1079 725 1100 q 631 1058 664 1058 q 551 1090 590 1058 q 475 1164 511 1121 q 388 1078 424 1111 q 299 1044 351 1044 m 553 1396 q 462 1413 511 1396 q 368 1456 413 1431 q 295 1508 324 1482 q 267 1551 267 1533 q 283 1604 267 1579 q 325 1645 300 1629 q 375 1661 350 1661 q 415 1646 400 1661 q 476 1588 442 1622 q 546 1520 511 1553 q 606 1467 581 1488 q 619 1442 619 1457 q 602 1410 619 1424 q 553 1396 585 1396 z "},"Ổ":{"ha":814,"x_min":40,"x_max":875,"o":"m 388 -21 q 303 -7 344 -21 q 236 44 261 7 q 85 194 131 96 q 40 444 40 292 q 66 647 40 547 q 142 829 92 747 q 266 960 192 911 q 436 1010 340 1010 q 542 992 489 1010 q 619 933 594 974 q 718 861 685 910 q 763 742 751 813 q 775 579 775 671 q 758 414 775 499 q 710 251 742 329 q 631 113 678 174 q 522 15 583 51 q 388 -21 461 -21 m 336 138 q 420 201 381 149 q 491 330 460 253 q 540 492 522 407 q 558 654 558 578 q 540 788 558 728 q 481 857 521 847 q 388 796 429 847 q 320 669 347 744 q 278 510 293 594 q 264 350 264 426 q 281 212 264 265 q 336 138 299 158 m 299 1044 q 256 1066 271 1044 q 242 1110 242 1088 q 256 1146 242 1133 q 324 1208 285 1169 q 403 1287 364 1247 q 468 1350 443 1326 q 500 1364 485 1364 q 533 1349 518 1364 q 585 1291 554 1328 q 651 1217 617 1254 q 713 1153 685 1179 q 725 1125 725 1142 q 694 1079 725 1100 q 631 1058 664 1058 q 551 1090 590 1058 q 475 1164 511 1121 q 388 1078 424 1111 q 299 1044 351 1044 m 725 1210 q 688 1226 701 1210 q 674 1263 674 1243 q 683 1293 674 1279 q 705 1323 694 1308 q 715 1349 715 1338 q 700 1365 715 1361 q 665 1368 685 1368 q 640 1367 653 1368 q 617 1367 628 1367 q 577 1391 590 1367 q 560 1447 564 1415 q 557 1503 557 1479 q 563 1528 557 1522 q 579 1535 569 1535 q 600 1532 589 1535 q 622 1529 611 1529 q 815 1487 754 1529 q 875 1383 875 1444 q 859 1324 875 1356 q 817 1264 843 1292 q 763 1221 792 1236 q 725 1210 740 1210 z "},"Ỗ":{"ha":814,"x_min":40,"x_max":775,"o":"m 388 -21 q 303 -7 344 -21 q 236 44 261 7 q 85 194 131 96 q 40 444 40 292 q 66 647 40 547 q 142 829 92 747 q 266 960 192 911 q 436 1010 340 1010 q 542 992 489 1010 q 619 933 594 974 q 718 861 685 910 q 763 742 751 813 q 775 579 775 671 q 758 414 775 499 q 710 251 742 329 q 631 113 678 174 q 522 15 583 51 q 388 -21 461 -21 m 336 138 q 420 201 381 149 q 491 330 460 253 q 540 492 522 407 q 558 654 558 578 q 540 788 558 728 q 481 857 521 847 q 388 796 429 847 q 320 669 347 744 q 278 510 293 594 q 264 350 264 426 q 281 212 264 265 q 336 138 299 158 m 299 1044 q 256 1066 271 1044 q 242 1110 242 1088 q 256 1146 242 1133 q 324 1208 285 1169 q 403 1287 364 1247 q 468 1350 443 1326 q 500 1364 485 1364 q 533 1349 518 1364 q 585 1291 554 1328 q 651 1217 617 1254 q 713 1153 685 1179 q 725 1125 725 1142 q 694 1079 725 1100 q 631 1058 664 1058 q 551 1090 590 1058 q 475 1164 511 1121 q 388 1078 424 1111 q 299 1044 351 1044 m 583 1389 q 518 1406 546 1389 q 468 1439 490 1422 q 421 1456 446 1456 q 374 1426 394 1456 q 351 1408 361 1413 q 333 1403 342 1403 q 306 1433 318 1406 q 294 1503 294 1460 q 314 1563 294 1532 q 363 1617 333 1594 q 425 1639 393 1639 q 494 1622 468 1639 q 542 1588 521 1606 q 588 1571 563 1571 q 636 1601 614 1571 q 657 1621 647 1617 q 675 1625 667 1625 q 702 1597 690 1624 q 714 1525 714 1569 q 694 1465 714 1496 q 645 1411 675 1433 q 583 1389 615 1389 z "},"Ȍ":{"ha":814,"x_min":40,"x_max":775,"o":"m 388 -21 q 303 -7 344 -21 q 236 44 261 7 q 85 194 131 96 q 40 444 40 292 q 66 647 40 547 q 142 829 92 747 q 266 960 192 911 q 436 1010 340 1010 q 542 992 489 1010 q 619 933 594 974 q 718 861 685 910 q 763 742 751 813 q 775 579 775 671 q 758 414 775 499 q 710 251 742 329 q 631 113 678 174 q 522 15 583 51 q 388 -21 461 -21 m 336 138 q 420 201 381 149 q 491 330 460 253 q 540 492 522 407 q 558 654 558 578 q 540 788 558 728 q 481 857 521 847 q 388 796 429 847 q 320 669 347 744 q 278 510 293 594 q 264 350 264 426 q 281 212 264 265 q 336 138 299 158 m 667 1057 q 590 1071 638 1057 q 497 1108 543 1085 q 418 1158 450 1131 q 386 1214 386 1186 q 400 1272 386 1242 q 436 1322 414 1301 q 483 1342 458 1342 q 525 1322 506 1342 q 592 1256 554 1292 q 667 1190 631 1221 q 725 1139 703 1158 q 739 1113 739 1126 q 718 1075 739 1093 q 667 1057 697 1057 m 340 1057 q 264 1071 311 1057 q 170 1108 217 1085 q 92 1158 124 1131 q 60 1214 60 1186 q 74 1272 60 1242 q 110 1322 88 1301 q 157 1342 132 1342 q 199 1322 179 1342 q 266 1256 228 1292 q 340 1190 304 1221 q 399 1139 376 1158 q 413 1113 413 1126 q 392 1075 413 1093 q 340 1057 371 1057 z "},"Ö":{"ha":814,"x_min":40,"x_max":775,"o":"m 350 1088 q 235 1113 281 1088 q 189 1215 189 1138 q 194 1273 189 1242 q 231 1311 200 1304 q 271 1315 247 1314 q 313 1317 294 1317 q 399 1304 351 1317 q 422 1286 422 1299 q 407 1211 422 1254 q 392 1093 392 1168 q 350 1088 369 1088 m 618 1088 q 503 1113 549 1088 q 457 1215 457 1138 q 463 1273 457 1242 q 499 1311 468 1304 q 539 1315 515 1314 q 581 1317 563 1317 q 667 1304 619 1317 q 690 1286 690 1299 q 675 1211 690 1254 q 660 1093 660 1168 q 618 1088 638 1088 m 388 -21 q 226 18 292 -21 q 119 123 160 57 q 59 272 78 189 q 40 444 40 356 q 66 647 40 547 q 142 829 92 747 q 266 960 192 911 q 436 1010 340 1010 q 628 956 553 1010 q 739 806 703 903 q 775 579 775 710 q 758 414 775 499 q 710 251 742 329 q 631 113 678 174 q 522 15 583 51 q 388 -21 461 -21 m 354 149 q 417 181 388 149 q 470 265 446 213 q 512 384 494 318 q 538 519 529 450 q 547 649 547 588 q 528 788 547 732 q 467 844 508 844 q 381 802 418 844 q 320 692 344 760 q 283 544 296 624 q 271 388 271 464 q 280 268 271 322 q 308 181 289 214 q 354 149 326 149 z "},"Ȫ":{"ha":814,"x_min":40,"x_max":775,"o":"m 388 -21 q 303 -7 344 -21 q 236 44 261 7 q 85 194 131 96 q 40 444 40 292 q 66 647 40 547 q 142 829 92 747 q 266 960 192 911 q 436 1010 340 1010 q 542 992 489 1010 q 619 933 594 974 q 718 861 685 910 q 763 742 751 813 q 775 579 775 671 q 758 414 775 499 q 710 251 742 329 q 631 113 678 174 q 522 15 583 51 q 388 -21 461 -21 m 336 138 q 420 201 381 149 q 491 330 460 253 q 540 492 522 407 q 558 654 558 578 q 540 788 558 728 q 481 857 521 847 q 388 796 429 847 q 320 669 347 744 q 278 510 293 594 q 264 350 264 426 q 281 212 264 265 q 336 138 299 158 m 654 1092 q 539 1117 585 1092 q 493 1219 493 1142 q 499 1277 493 1246 q 535 1315 504 1308 q 575 1319 551 1318 q 617 1321 599 1321 q 703 1308 656 1321 q 726 1290 726 1303 q 711 1215 726 1258 q 696 1097 696 1172 q 654 1092 674 1092 m 386 1092 q 271 1117 317 1092 q 225 1219 225 1142 q 231 1277 225 1246 q 267 1315 236 1308 q 307 1319 283 1318 q 349 1321 331 1321 q 435 1308 388 1321 q 458 1290 458 1303 q 443 1215 458 1258 q 428 1097 428 1172 q 386 1092 406 1092 m 335 1369 q 294 1389 315 1369 q 259 1432 274 1408 q 244 1467 244 1456 q 260 1490 244 1479 q 322 1506 276 1501 l 579 1524 q 644 1502 615 1526 q 690 1447 672 1478 q 707 1397 707 1415 q 689 1378 707 1386 q 643 1371 671 1371 l 335 1369 z "},"Ȱ":{"ha":814,"x_min":40,"x_max":775,"o":"m 388 -21 q 303 -7 344 -21 q 236 44 261 7 q 85 194 131 96 q 40 444 40 292 q 66 647 40 547 q 142 829 92 747 q 266 960 192 911 q 436 1010 340 1010 q 542 992 489 1010 q 619 933 594 974 q 718 861 685 910 q 763 742 751 813 q 775 579 775 671 q 758 414 775 499 q 710 251 742 329 q 631 113 678 174 q 522 15 583 51 q 388 -21 461 -21 m 336 138 q 420 201 381 149 q 491 330 460 253 q 540 492 522 407 q 558 654 558 578 q 540 788 558 728 q 481 857 521 847 q 388 796 429 847 q 320 669 347 744 q 278 510 293 594 q 264 350 264 426 q 281 212 264 265 q 336 138 299 158 m 521 1088 q 437 1098 475 1088 q 377 1136 399 1108 q 358 1215 356 1164 q 366 1273 361 1242 q 401 1311 371 1304 q 442 1315 418 1314 q 483 1317 465 1317 q 569 1304 522 1317 q 593 1286 593 1299 q 583 1211 593 1254 q 563 1093 574 1168 q 521 1088 540 1088 m 335 1369 q 294 1389 315 1369 q 259 1432 274 1408 q 244 1467 244 1456 q 260 1490 244 1479 q 322 1506 276 1501 l 579 1524 q 644 1502 615 1526 q 690 1447 672 1478 q 707 1397 707 1415 q 689 1378 707 1386 q 643 1371 671 1371 l 335 1369 z "},"Ọ":{"ha":814,"x_min":40,"x_max":775,"o":"m 388 -21 q 303 -7 344 -21 q 236 44 261 7 q 85 194 131 96 q 40 444 40 292 q 66 647 40 547 q 142 829 92 747 q 266 960 192 911 q 436 1010 340 1010 q 542 992 489 1010 q 619 933 594 974 q 718 861 685 910 q 763 742 751 813 q 775 579 775 671 q 758 414 775 499 q 710 251 742 329 q 631 113 678 174 q 522 15 583 51 q 388 -21 461 -21 m 336 138 q 420 201 381 149 q 491 330 460 253 q 540 492 522 407 q 558 654 558 578 q 540 788 558 728 q 481 857 521 847 q 388 796 429 847 q 320 669 347 744 q 278 510 293 594 q 264 350 264 426 q 281 212 264 265 q 336 138 299 158 m 428 -289 q 344 -278 382 -289 q 284 -240 306 -268 q 265 -161 263 -212 q 273 -103 268 -135 q 308 -65 278 -72 q 349 -61 325 -62 q 390 -60 372 -60 q 476 -72 429 -60 q 500 -90 500 -78 q 490 -165 500 -122 q 469 -283 481 -208 q 428 -289 447 -289 z "},"Ò":{"ha":814,"x_min":40,"x_max":775,"o":"m 388 -21 q 303 -7 344 -21 q 236 44 261 7 q 85 194 131 96 q 40 444 40 292 q 66 647 40 547 q 142 829 92 747 q 266 960 192 911 q 436 1010 340 1010 q 542 992 489 1010 q 619 933 594 974 q 718 861 685 910 q 763 742 751 813 q 775 579 775 671 q 758 414 775 499 q 710 251 742 329 q 631 113 678 174 q 522 15 583 51 q 388 -21 461 -21 m 336 138 q 420 201 381 149 q 491 330 460 253 q 540 492 522 407 q 558 654 558 578 q 540 788 558 728 q 481 857 521 847 q 388 796 429 847 q 320 669 347 744 q 278 510 293 594 q 264 350 264 426 q 281 212 264 265 q 336 138 299 158 m 546 1057 q 455 1074 504 1057 q 361 1117 406 1092 q 288 1169 317 1143 q 260 1213 260 1194 q 276 1265 260 1240 q 318 1306 293 1290 q 368 1322 343 1322 q 408 1307 393 1322 q 469 1249 435 1283 q 539 1181 504 1214 q 599 1128 574 1149 q 613 1103 613 1118 q 595 1071 613 1085 q 546 1057 578 1057 z "},"Ỏ":{"ha":814,"x_min":40,"x_max":775,"o":"m 388 -21 q 303 -7 344 -21 q 236 44 261 7 q 85 194 131 96 q 40 444 40 292 q 66 647 40 547 q 142 829 92 747 q 266 960 192 911 q 436 1010 340 1010 q 542 992 489 1010 q 619 933 594 974 q 718 861 685 910 q 763 742 751 813 q 775 579 775 671 q 758 414 775 499 q 710 251 742 329 q 631 113 678 174 q 522 15 583 51 q 388 -21 461 -21 m 336 138 q 420 201 381 149 q 491 330 460 253 q 540 492 522 407 q 558 654 558 578 q 540 788 558 728 q 481 857 521 847 q 388 796 429 847 q 320 669 347 744 q 278 510 293 594 q 264 350 264 426 q 281 212 264 265 q 336 138 299 158 m 483 1071 q 446 1088 460 1071 q 432 1124 432 1104 q 442 1154 432 1140 q 463 1184 453 1169 q 474 1210 474 1199 q 458 1226 474 1222 q 424 1229 443 1229 q 399 1228 411 1229 q 375 1228 386 1228 q 335 1252 349 1228 q 319 1308 322 1276 q 315 1364 315 1340 q 322 1390 315 1383 q 338 1396 328 1396 q 358 1393 347 1396 q 381 1390 369 1390 q 573 1348 513 1390 q 633 1244 633 1306 q 617 1185 633 1217 q 576 1125 601 1153 q 521 1082 550 1097 q 483 1071 499 1071 z "},"Ơ":{"ha":814,"x_min":40,"x_max":933,"o":"m 388 -21 q 303 -7 344 -21 q 236 44 261 7 q 85 194 131 96 q 40 444 40 292 q 66 647 40 547 q 142 829 92 747 q 266 960 192 911 q 436 1010 340 1010 q 528 1001 489 1010 q 607 993 568 993 q 702 1040 669 993 q 735 1168 735 1088 q 747 1195 735 1190 q 768 1200 758 1200 q 817 1188 789 1200 q 872 1158 846 1176 q 916 1117 899 1139 q 933 1072 933 1094 q 915 958 933 1014 q 854 865 897 901 q 738 828 811 828 q 767 718 760 781 q 775 579 775 656 q 758 414 775 499 q 710 251 742 329 q 631 113 678 174 q 522 15 583 51 q 388 -21 461 -21 m 336 138 q 420 201 381 149 q 491 330 460 253 q 540 492 522 407 q 558 654 558 578 q 540 788 558 728 q 481 857 521 847 q 388 796 429 847 q 320 669 347 744 q 278 510 293 594 q 264 350 264 426 q 281 212 264 265 q 336 138 299 158 z "},"Ớ":{"ha":814,"x_min":40,"x_max":933,"o":"m 388 -21 q 303 -7 344 -21 q 236 44 261 7 q 85 194 131 96 q 40 444 40 292 q 66 647 40 547 q 142 829 92 747 q 266 960 192 911 q 436 1010 340 1010 q 528 1001 489 1010 q 607 993 568 993 q 702 1040 669 993 q 735 1168 735 1088 q 747 1195 735 1190 q 768 1200 758 1200 q 817 1188 789 1200 q 872 1158 846 1176 q 916 1117 899 1139 q 933 1072 933 1094 q 915 958 933 1014 q 854 865 897 901 q 738 828 811 828 q 767 718 760 781 q 775 579 775 656 q 758 414 775 499 q 710 251 742 329 q 631 113 678 174 q 522 15 583 51 q 388 -21 461 -21 m 336 138 q 420 201 381 149 q 491 330 460 253 q 540 492 522 407 q 558 654 558 578 q 540 788 558 728 q 481 857 521 847 q 388 796 429 847 q 320 669 347 744 q 278 510 293 594 q 264 350 264 426 q 281 212 264 265 q 336 138 299 158 m 432 1058 q 385 1075 406 1058 q 365 1110 365 1092 q 378 1135 365 1125 q 432 1182 399 1153 q 501 1244 465 1211 q 565 1306 538 1278 q 604 1324 583 1324 q 648 1305 628 1324 q 681 1258 668 1286 q 694 1204 694 1231 q 665 1152 694 1178 q 591 1105 635 1126 q 503 1071 547 1083 q 432 1058 460 1058 z "},"Ợ":{"ha":814,"x_min":40,"x_max":933,"o":"m 388 -21 q 303 -7 344 -21 q 236 44 261 7 q 85 194 131 96 q 40 444 40 292 q 66 647 40 547 q 142 829 92 747 q 266 960 192 911 q 436 1010 340 1010 q 528 1001 489 1010 q 607 993 568 993 q 702 1040 669 993 q 735 1168 735 1088 q 747 1195 735 1190 q 768 1200 758 1200 q 817 1188 789 1200 q 872 1158 846 1176 q 916 1117 899 1139 q 933 1072 933 1094 q 915 958 933 1014 q 854 865 897 901 q 738 828 811 828 q 767 718 760 781 q 775 579 775 656 q 758 414 775 499 q 710 251 742 329 q 631 113 678 174 q 522 15 583 51 q 388 -21 461 -21 m 336 138 q 420 201 381 149 q 491 330 460 253 q 540 492 522 407 q 558 654 558 578 q 540 788 558 728 q 481 857 521 847 q 388 796 429 847 q 320 669 347 744 q 278 510 293 594 q 264 350 264 426 q 281 212 264 265 q 336 138 299 158 m 428 -289 q 344 -278 382 -289 q 284 -240 306 -268 q 265 -161 263 -212 q 273 -103 268 -135 q 308 -65 278 -72 q 349 -61 325 -62 q 390 -60 372 -60 q 476 -72 429 -60 q 500 -90 500 -78 q 490 -165 500 -122 q 469 -283 481 -208 q 428 -289 447 -289 z "},"Ờ":{"ha":814,"x_min":40,"x_max":933,"o":"m 388 -21 q 303 -7 344 -21 q 236 44 261 7 q 85 194 131 96 q 40 444 40 292 q 66 647 40 547 q 142 829 92 747 q 266 960 192 911 q 436 1010 340 1010 q 528 1001 489 1010 q 607 993 568 993 q 702 1040 669 993 q 735 1168 735 1088 q 747 1195 735 1190 q 768 1200 758 1200 q 817 1188 789 1200 q 872 1158 846 1176 q 916 1117 899 1139 q 933 1072 933 1094 q 915 958 933 1014 q 854 865 897 901 q 738 828 811 828 q 767 718 760 781 q 775 579 775 656 q 758 414 775 499 q 710 251 742 329 q 631 113 678 174 q 522 15 583 51 q 388 -21 461 -21 m 336 138 q 420 201 381 149 q 491 330 460 253 q 540 492 522 407 q 558 654 558 578 q 540 788 558 728 q 481 857 521 847 q 388 796 429 847 q 320 669 347 744 q 278 510 293 594 q 264 350 264 426 q 281 212 264 265 q 336 138 299 158 m 504 1057 q 413 1074 463 1057 q 319 1117 364 1092 q 247 1169 275 1143 q 218 1213 218 1194 q 235 1265 218 1240 q 276 1306 251 1290 q 326 1322 301 1322 q 367 1307 351 1322 q 428 1249 393 1283 q 497 1181 463 1214 q 557 1128 532 1149 q 571 1103 571 1118 q 553 1071 571 1085 q 504 1057 536 1057 z "},"Ở":{"ha":814,"x_min":40,"x_max":933,"o":"m 388 -21 q 303 -7 344 -21 q 236 44 261 7 q 85 194 131 96 q 40 444 40 292 q 66 647 40 547 q 142 829 92 747 q 266 960 192 911 q 436 1010 340 1010 q 528 1001 489 1010 q 607 993 568 993 q 702 1040 669 993 q 735 1168 735 1088 q 747 1195 735 1190 q 768 1200 758 1200 q 817 1188 789 1200 q 872 1158 846 1176 q 916 1117 899 1139 q 933 1072 933 1094 q 915 958 933 1014 q 854 865 897 901 q 738 828 811 828 q 767 718 760 781 q 775 579 775 656 q 758 414 775 499 q 710 251 742 329 q 631 113 678 174 q 522 15 583 51 q 388 -21 461 -21 m 336 138 q 420 201 381 149 q 491 330 460 253 q 540 492 522 407 q 558 654 558 578 q 540 788 558 728 q 481 857 521 847 q 388 796 429 847 q 320 669 347 744 q 278 510 293 594 q 264 350 264 426 q 281 212 264 265 q 336 138 299 158 m 442 1071 q 404 1088 418 1071 q 390 1124 390 1104 q 400 1154 390 1140 q 422 1184 411 1169 q 432 1210 432 1199 q 417 1226 432 1222 q 382 1229 401 1229 q 357 1228 369 1229 q 333 1228 344 1228 q 294 1252 307 1228 q 277 1308 281 1276 q 274 1364 274 1340 q 280 1390 274 1383 q 296 1396 286 1396 q 317 1393 306 1396 q 339 1390 328 1390 q 531 1348 471 1390 q 592 1244 592 1306 q 576 1185 592 1217 q 534 1125 560 1153 q 479 1082 508 1097 q 442 1071 457 1071 z "},"Ỡ":{"ha":814,"x_min":40,"x_max":933,"o":"m 388 -21 q 303 -7 344 -21 q 236 44 261 7 q 85 194 131 96 q 40 444 40 292 q 66 647 40 547 q 142 829 92 747 q 266 960 192 911 q 436 1010 340 1010 q 528 1001 489 1010 q 607 993 568 993 q 702 1040 669 993 q 735 1168 735 1088 q 747 1195 735 1190 q 768 1200 758 1200 q 817 1188 789 1200 q 872 1158 846 1176 q 916 1117 899 1139 q 933 1072 933 1094 q 915 958 933 1014 q 854 865 897 901 q 738 828 811 828 q 767 718 760 781 q 775 579 775 656 q 758 414 775 499 q 710 251 742 329 q 631 113 678 174 q 522 15 583 51 q 388 -21 461 -21 m 336 138 q 420 201 381 149 q 491 330 460 253 q 540 492 522 407 q 558 654 558 578 q 540 788 558 728 q 481 857 521 847 q 388 796 429 847 q 320 669 347 744 q 278 510 293 594 q 264 350 264 426 q 281 212 264 265 q 336 138 299 158 m 535 1050 q 469 1067 497 1050 q 419 1100 442 1083 q 372 1117 397 1117 q 325 1088 346 1117 q 303 1069 313 1074 q 285 1064 293 1064 q 258 1094 269 1067 q 246 1164 246 1121 q 265 1224 246 1193 q 315 1278 285 1256 q 376 1300 344 1300 q 446 1283 419 1300 q 493 1249 472 1267 q 539 1232 514 1232 q 588 1263 565 1232 q 608 1282 599 1278 q 626 1286 618 1286 q 653 1258 642 1285 q 665 1186 665 1231 q 646 1126 665 1157 q 597 1072 626 1094 q 535 1050 567 1050 z "},"Ő":{"ha":814,"x_min":40,"x_max":926,"o":"m 388 -21 q 303 -7 344 -21 q 236 44 261 7 q 85 194 131 96 q 40 444 40 292 q 66 647 40 547 q 142 829 92 747 q 266 960 192 911 q 436 1010 340 1010 q 542 992 489 1010 q 619 933 594 974 q 718 861 685 910 q 763 742 751 813 q 775 579 775 671 q 758 414 775 499 q 710 251 742 329 q 631 113 678 174 q 522 15 583 51 q 388 -21 461 -21 m 336 138 q 420 201 381 149 q 491 330 460 253 q 540 492 522 407 q 558 654 558 578 q 540 788 558 728 q 481 857 521 847 q 388 796 429 847 q 320 669 347 744 q 278 510 293 594 q 264 350 264 426 q 281 212 264 265 q 336 138 299 158 m 319 1051 q 268 1069 289 1051 q 247 1107 247 1088 q 261 1133 247 1121 q 319 1184 283 1153 q 394 1251 356 1215 q 461 1317 432 1286 q 503 1336 481 1336 q 550 1316 528 1336 q 586 1266 572 1296 q 600 1208 600 1236 q 568 1153 600 1181 q 490 1102 536 1125 q 396 1065 443 1079 q 319 1051 349 1051 m 646 1051 q 594 1069 615 1051 q 574 1107 574 1088 q 588 1133 574 1121 q 646 1184 610 1153 q 720 1251 682 1215 q 788 1317 758 1286 q 829 1336 807 1336 q 876 1316 854 1336 q 913 1266 899 1296 q 926 1208 926 1236 q 894 1153 926 1181 q 816 1102 863 1125 q 722 1065 769 1079 q 646 1051 675 1051 z "},"Ȏ":{"ha":814,"x_min":40,"x_max":775,"o":"m 388 -21 q 303 -7 344 -21 q 236 44 261 7 q 85 194 131 96 q 40 444 40 292 q 66 647 40 547 q 142 829 92 747 q 266 960 192 911 q 436 1010 340 1010 q 542 992 489 1010 q 619 933 594 974 q 718 861 685 910 q 763 742 751 813 q 775 579 775 671 q 758 414 775 499 q 710 251 742 329 q 631 113 678 174 q 522 15 583 51 q 388 -21 461 -21 m 336 138 q 420 201 381 149 q 491 330 460 253 q 540 492 522 407 q 558 654 558 578 q 540 788 558 728 q 481 857 521 847 q 388 796 429 847 q 320 669 347 744 q 278 510 293 594 q 264 350 264 426 q 281 212 264 265 q 336 138 299 158 m 497 1317 q 597 1304 550 1321 q 676 1248 644 1288 q 714 1144 708 1208 q 702 1077 718 1104 q 660 1037 686 1050 q 611 1021 635 1024 q 570 1026 588 1019 q 553 1050 553 1033 q 525 1144 553 1114 q 463 1171 497 1175 q 414 1150 438 1169 q 378 1094 390 1131 q 344 1058 368 1072 q 297 1043 321 1044 q 263 1048 276 1040 q 251 1076 250 1056 q 297 1202 260 1150 q 388 1283 335 1254 q 497 1317 442 1311 z "},"Ō":{"ha":814,"x_min":40,"x_max":775,"o":"m 388 -21 q 303 -7 344 -21 q 236 44 261 7 q 85 194 131 96 q 40 444 40 292 q 66 647 40 547 q 142 829 92 747 q 266 960 192 911 q 436 1010 340 1010 q 542 992 489 1010 q 619 933 594 974 q 718 861 685 910 q 763 742 751 813 q 775 579 775 671 q 758 414 775 499 q 710 251 742 329 q 631 113 678 174 q 522 15 583 51 q 388 -21 461 -21 m 336 138 q 420 201 381 149 q 491 330 460 253 q 540 492 522 407 q 558 654 558 578 q 540 788 558 728 q 481 857 521 847 q 388 796 429 847 q 320 669 347 744 q 278 510 293 594 q 264 350 264 426 q 281 212 264 265 q 336 138 299 158 m 335 1085 q 294 1104 315 1085 q 259 1147 274 1124 q 244 1182 244 1171 q 260 1206 244 1194 q 322 1221 276 1217 l 579 1239 q 644 1217 615 1242 q 690 1162 672 1193 q 707 1113 707 1131 q 689 1094 707 1101 q 643 1086 671 1086 l 335 1085 z "},"Ǫ":{"ha":814,"x_min":40,"x_max":775,"o":"m 388 -21 q 303 -7 344 -21 q 236 44 261 7 q 85 194 131 96 q 40 444 40 292 q 66 647 40 547 q 142 829 92 747 q 266 960 192 911 q 436 1010 340 1010 q 542 992 489 1010 q 619 933 594 974 q 718 861 685 910 q 763 742 751 813 q 775 579 775 671 q 758 414 775 499 q 710 251 742 329 q 631 113 678 174 q 522 15 583 51 q 388 -21 461 -21 m 336 138 q 420 201 381 149 q 491 330 460 253 q 540 492 522 407 q 558 654 558 578 q 540 788 558 728 q 481 857 521 847 q 388 796 429 847 q 320 669 347 744 q 278 510 293 594 q 264 350 264 426 q 281 212 264 265 q 336 138 299 158 m 443 -292 q 345 -256 381 -292 q 310 -167 310 -221 q 327 -89 310 -131 q 375 -9 344 -47 q 443 54 406 29 l 526 17 q 481 -53 500 -12 q 461 -124 461 -93 q 469 -149 461 -139 q 493 -160 476 -160 q 544 -148 526 -160 q 576 -124 563 -136 q 606 -112 589 -112 q 636 -144 636 -112 q 613 -204 636 -169 q 546 -265 589 -239 q 443 -292 503 -292 z "},"Ø":{"ha":814,"x_min":40,"x_max":775,"o":"m 146 -136 q 117 -126 135 -133 q 88 -101 100 -118 q 75 -53 75 -83 q 85 5 75 -29 q 121 83 96 39 q 139 115 129 97 q 63 252 86 171 q 40 444 40 333 q 66 647 40 547 q 142 829 92 747 q 266 960 192 911 q 436 1010 340 1010 q 523 997 479 1010 q 597 960 567 985 q 642 1041 621 1003 q 681 1110 664 1079 q 694 1120 686 1117 q 715 1121 703 1124 q 751 1088 739 1119 q 764 1015 764 1056 q 763 996 764 1006 q 761 976 763 986 q 744 932 758 958 q 728 899 731 906 l 711 868 q 763 747 750 821 q 775 579 775 674 q 758 414 775 499 q 710 251 742 329 q 631 113 678 174 q 522 15 583 51 q 388 -21 461 -21 q 316 -11 351 -21 q 254 22 281 -1 q 206 -61 231 -24 q 168 -124 182 -99 q 158 -133 163 -129 q 146 -136 153 -137 m 336 138 q 420 201 381 149 q 491 330 460 253 q 540 492 522 407 q 558 654 558 578 q 540 788 558 728 q 481 857 521 847 q 388 796 429 847 q 320 669 347 744 q 278 510 293 594 q 264 350 264 426 q 281 212 264 265 q 336 138 299 158 z "},"Ǿ":{"ha":814,"x_min":40,"x_max":775,"o":"m 146 -136 q 117 -126 135 -133 q 88 -101 100 -118 q 75 -53 75 -83 q 85 5 75 -29 q 121 83 96 39 q 139 115 129 97 q 63 252 86 171 q 40 444 40 333 q 66 647 40 547 q 142 829 92 747 q 266 960 192 911 q 436 1010 340 1010 q 523 997 479 1010 q 597 960 567 985 q 642 1041 621 1003 q 681 1110 664 1079 q 694 1120 686 1117 q 715 1121 703 1124 q 751 1088 739 1119 q 764 1015 764 1056 q 763 996 764 1006 q 761 976 763 986 q 744 932 758 958 q 728 899 731 906 l 711 868 q 763 747 750 821 q 775 579 775 674 q 758 414 775 499 q 710 251 742 329 q 631 113 678 174 q 522 15 583 51 q 388 -21 461 -21 q 316 -11 351 -21 q 254 22 281 -1 q 206 -61 231 -24 q 168 -124 182 -99 q 158 -133 163 -129 q 146 -136 153 -137 m 336 138 q 420 201 381 149 q 491 330 460 253 q 540 492 522 407 q 558 654 558 578 q 540 788 558 728 q 481 857 521 847 q 388 796 429 847 q 320 669 347 744 q 278 510 293 594 q 264 350 264 426 q 281 212 264 265 q 336 138 299 158 m 474 1058 q 427 1075 447 1058 q 407 1110 407 1092 q 419 1135 407 1125 q 474 1182 440 1153 q 543 1244 507 1211 q 607 1306 579 1278 q 646 1324 625 1324 q 690 1305 669 1324 q 723 1258 710 1286 q 736 1204 736 1231 q 706 1152 736 1178 q 633 1105 676 1126 q 545 1071 589 1083 q 474 1058 501 1058 z "},"Õ":{"ha":814,"x_min":40,"x_max":775,"o":"m 388 -21 q 303 -7 344 -21 q 236 44 261 7 q 85 194 131 96 q 40 444 40 292 q 66 647 40 547 q 142 829 92 747 q 266 960 192 911 q 436 1010 340 1010 q 542 992 489 1010 q 619 933 594 974 q 718 861 685 910 q 763 742 751 813 q 775 579 775 671 q 758 414 775 499 q 710 251 742 329 q 631 113 678 174 q 522 15 583 51 q 388 -21 461 -21 m 336 138 q 420 201 381 149 q 491 330 460 253 q 540 492 522 407 q 558 654 558 578 q 540 788 558 728 q 481 857 521 847 q 388 796 429 847 q 320 669 347 744 q 278 510 293 594 q 264 350 264 426 q 281 212 264 265 q 336 138 299 158 m 576 1050 q 511 1067 539 1050 q 461 1100 483 1083 q 414 1117 439 1117 q 367 1088 388 1117 q 344 1069 354 1074 q 326 1064 335 1064 q 299 1094 311 1067 q 288 1164 288 1121 q 307 1224 288 1193 q 356 1278 326 1256 q 418 1300 386 1300 q 488 1283 461 1300 q 535 1249 514 1267 q 581 1232 556 1232 q 629 1263 607 1232 q 650 1282 640 1278 q 668 1286 660 1286 q 695 1258 683 1285 q 707 1186 707 1231 q 688 1126 707 1157 q 638 1072 668 1094 q 576 1050 608 1050 z "},"Ȭ":{"ha":814,"x_min":40,"x_max":775,"o":"m 388 -21 q 303 -7 344 -21 q 236 44 261 7 q 85 194 131 96 q 40 444 40 292 q 66 647 40 547 q 142 829 92 747 q 266 960 192 911 q 436 1010 340 1010 q 542 992 489 1010 q 619 933 594 974 q 718 861 685 910 q 763 742 751 813 q 775 579 775 671 q 758 414 775 499 q 710 251 742 329 q 631 113 678 174 q 522 15 583 51 q 388 -21 461 -21 m 336 138 q 420 201 381 149 q 491 330 460 253 q 540 492 522 407 q 558 654 558 578 q 540 788 558 728 q 481 857 521 847 q 388 796 429 847 q 320 669 347 744 q 278 510 293 594 q 264 350 264 426 q 281 212 264 265 q 336 138 299 158 m 576 1050 q 511 1067 539 1050 q 461 1100 483 1083 q 414 1117 439 1117 q 367 1088 388 1117 q 344 1069 354 1074 q 326 1064 335 1064 q 299 1094 311 1067 q 288 1164 288 1121 q 307 1224 288 1193 q 356 1278 326 1256 q 418 1300 386 1300 q 488 1283 461 1300 q 535 1249 514 1267 q 581 1232 556 1232 q 629 1263 607 1232 q 650 1282 640 1278 q 668 1286 660 1286 q 695 1258 683 1285 q 707 1186 707 1231 q 688 1126 707 1157 q 638 1072 668 1094 q 576 1050 608 1050 m 340 1343 q 300 1363 321 1343 q 265 1406 279 1382 q 250 1440 250 1429 q 266 1464 250 1453 q 328 1479 282 1475 l 585 1497 q 649 1476 621 1500 q 695 1420 678 1451 q 713 1371 713 1389 q 694 1352 713 1360 q 649 1344 676 1344 l 340 1343 z "},"Œ":{"ha":1121,"x_min":40,"x_max":1104,"o":"m 388 -21 q 226 18 292 -21 q 119 123 160 57 q 59 272 78 189 q 40 444 40 356 q 66 647 40 547 q 142 829 92 747 q 266 960 192 911 q 436 1010 340 1010 q 550 993 499 1010 q 619 998 576 994 q 712 1006 663 1001 q 804 1014 761 1011 q 874 1017 847 1017 q 951 1003 911 1017 q 1026 969 992 990 q 1083 921 1061 947 q 1104 867 1104 894 q 1090 853 1104 853 q 1067 853 1078 853 q 1044 854 1056 854 q 916 847 983 854 q 792 833 849 840 l 776 600 l 850 610 q 902 601 874 613 q 956 568 931 589 q 998 526 982 547 q 1014 488 1014 504 q 992 471 1013 478 q 918 457 971 464 l 767 438 l 749 168 q 856 226 804 204 q 949 249 907 249 q 1011 232 976 249 q 1072 191 1046 215 q 1099 146 1099 167 q 1082 121 1099 128 l 749 -19 q 657 1 703 -19 q 581 58 611 22 q 491 0 539 21 q 388 -21 443 -21 m 360 149 q 426 181 394 149 q 482 265 457 213 q 526 384 507 318 q 554 519 544 450 q 564 649 564 588 q 543 788 564 732 q 478 844 522 844 q 388 802 426 844 q 323 692 349 760 q 284 544 297 624 q 271 388 271 464 q 281 268 271 322 q 310 181 290 214 q 360 149 331 149 z "},"P":{"ha":765,"x_min":69,"x_max":760,"o":"m 257 -18 q 191 2 228 -18 q 126 67 154 22 q 99 188 99 113 q 99 206 99 197 q 100 225 99 215 q 117 408 108 301 q 134 635 126 515 q 147 869 142 756 q 93 925 117 893 q 69 979 69 957 q 78 997 69 992 q 96 1001 86 1001 q 188 1004 135 1001 q 292 1009 240 1007 q 381 1011 344 1011 q 528 985 460 1011 q 649 917 597 958 q 731 828 701 875 q 760 739 760 781 q 723 583 760 654 q 627 453 686 511 q 500 349 568 394 q 436 315 465 325 q 383 306 407 306 q 342 314 360 306 q 314 335 325 322 q 300 177 307 258 q 288 3 293 96 q 278 -14 286 -10 q 257 -18 269 -18 m 340 633 q 331 526 336 578 q 321 421 326 474 q 499 594 446 508 q 551 747 551 681 q 522 839 551 804 q 482 840 501 839 q 444 840 463 840 q 368 840 403 840 q 303 838 333 839 q 333 779 322 815 q 343 688 343 743 q 342 662 343 675 q 340 633 342 649 z "},"Þ":{"ha":776,"x_min":69,"x_max":771,"o":"m 268 -18 q 201 -3 240 -18 q 131 47 161 11 q 101 146 101 82 q 108 303 101 208 q 124 510 115 397 q 139 738 132 622 q 90 790 110 761 q 69 840 69 819 q 78 858 69 853 q 96 863 86 863 q 144 864 115 863 q 147 928 146 896 q 147 990 147 960 q 164 1006 147 1001 q 207 1011 181 1011 q 263 999 232 1011 q 321 956 294 986 q 356 871 347 925 q 410 872 386 872 q 599 840 518 872 q 726 751 681 808 q 771 621 771 694 q 656 343 771 482 q 308 92 540 204 q 299 3 304 42 q 268 -18 296 -18 m 428 715 q 389 714 407 715 q 354 710 371 713 q 342 509 350 625 q 325 278 335 393 q 442 385 393 326 q 515 501 490 443 q 540 607 540 560 q 513 685 540 656 q 428 715 486 715 z "},"Q":{"ha":814,"x_min":40,"x_max":843,"o":"m 388 -21 q 303 -7 344 -21 q 236 44 261 7 q 85 194 131 96 q 40 444 40 292 q 66 647 40 547 q 142 829 92 747 q 266 960 192 911 q 436 1010 340 1010 q 542 992 489 1010 q 619 933 594 974 q 718 861 685 910 q 763 742 751 813 q 775 579 775 671 q 757 406 775 494 q 703 238 739 318 q 618 97 668 158 l 836 -176 q 843 -196 843 -185 q 835 -213 843 -206 q 814 -219 828 -221 q 724 -196 778 -215 q 625 -146 671 -176 l 432 -17 q 388 -21 411 -21 m 336 138 q 420 201 381 149 q 491 330 460 253 q 540 492 522 407 q 558 654 558 578 q 540 788 558 728 q 481 857 521 847 q 388 796 429 847 q 320 669 347 744 q 278 510 293 594 q 264 350 264 426 q 281 212 264 265 q 336 138 299 158 z "},"R":{"ha":782,"x_min":39,"x_max":907,"o":"m 250 -18 q 203 -3 229 -18 q 151 46 176 11 q 108 140 125 81 q 92 290 92 200 q 94 437 92 347 q 105 633 97 526 q 124 847 113 739 q 65 903 90 869 q 39 972 39 938 q 47 990 39 985 q 65 994 56 994 q 158 999 104 994 q 267 1007 211 1003 q 365 1011 322 1011 q 511 985 444 1011 q 628 917 578 960 q 707 826 679 875 q 735 729 735 776 q 703 624 735 686 q 610 490 672 561 q 457 354 549 419 l 889 -150 q 901 -168 896 -157 q 907 -189 907 -179 q 882 -208 907 -208 q 825 -200 861 -208 q 751 -174 789 -192 q 683 -131 713 -157 l 282 246 q 279 162 281 203 q 278 86 278 121 q 278 42 278 63 q 281 3 279 21 l 281 1 q 271 -14 281 -10 q 250 -18 261 -18 m 457 850 q 398 846 429 850 q 338 838 367 842 q 314 633 325 743 q 293 414 303 522 q 418 523 368 463 q 492 643 468 583 q 517 751 517 703 q 502 815 517 789 q 457 850 488 842 z "},"Ŕ":{"ha":782,"x_min":39,"x_max":907,"o":"m 250 -18 q 203 -3 229 -18 q 151 46 176 11 q 108 140 125 81 q 92 290 92 200 q 94 437 92 347 q 105 633 97 526 q 124 847 113 739 q 65 903 90 869 q 39 972 39 938 q 47 990 39 985 q 65 994 56 994 q 158 999 104 994 q 267 1007 211 1003 q 365 1011 322 1011 q 511 985 444 1011 q 628 917 578 960 q 707 826 679 875 q 735 729 735 776 q 703 624 735 686 q 610 490 672 561 q 457 354 549 419 l 889 -150 q 901 -168 896 -157 q 907 -189 907 -179 q 882 -208 907 -208 q 825 -200 861 -208 q 751 -174 789 -192 q 683 -131 713 -157 l 282 246 q 279 162 281 203 q 278 86 278 121 q 278 42 278 63 q 281 3 279 21 l 281 1 q 271 -14 281 -10 q 250 -18 261 -18 m 457 850 q 398 846 429 850 q 338 838 367 842 q 314 633 325 743 q 293 414 303 522 q 418 523 368 463 q 492 643 468 583 q 517 751 517 703 q 502 815 517 789 q 457 850 488 842 m 404 1058 q 358 1075 378 1058 q 338 1110 338 1092 q 350 1135 338 1125 q 404 1182 371 1153 q 474 1244 438 1211 q 538 1306 510 1278 q 576 1324 556 1324 q 620 1305 600 1324 q 653 1258 640 1286 q 667 1204 667 1231 q 637 1152 667 1178 q 563 1105 607 1126 q 476 1071 519 1083 q 404 1058 432 1058 z "},"Ř":{"ha":782,"x_min":39,"x_max":907,"o":"m 250 -18 q 203 -3 229 -18 q 151 46 176 11 q 108 140 125 81 q 92 290 92 200 q 94 437 92 347 q 105 633 97 526 q 124 847 113 739 q 65 903 90 869 q 39 972 39 938 q 47 990 39 985 q 65 994 56 994 q 158 999 104 994 q 267 1007 211 1003 q 365 1011 322 1011 q 511 985 444 1011 q 628 917 578 960 q 707 826 679 875 q 735 729 735 776 q 703 624 735 686 q 610 490 672 561 q 457 354 549 419 l 889 -150 q 901 -168 896 -157 q 907 -189 907 -179 q 882 -208 907 -208 q 825 -200 861 -208 q 751 -174 789 -192 q 683 -131 713 -157 l 282 246 q 279 162 281 203 q 278 86 278 121 q 278 42 278 63 q 281 3 279 21 l 281 1 q 271 -14 281 -10 q 250 -18 261 -18 m 457 850 q 398 846 429 850 q 338 838 367 842 q 314 633 325 743 q 293 414 303 522 q 418 523 368 463 q 492 643 468 583 q 517 751 517 703 q 502 815 517 789 q 457 850 488 842 m 406 1050 q 376 1063 389 1050 q 330 1113 358 1081 q 272 1180 301 1146 q 218 1236 243 1214 q 206 1261 206 1249 q 232 1301 206 1283 q 288 1318 258 1318 q 360 1287 324 1318 q 428 1211 396 1256 q 505 1298 474 1265 q 582 1331 536 1331 q 620 1313 607 1331 q 633 1275 633 1294 q 619 1242 633 1253 q 560 1187 596 1222 q 491 1117 525 1151 q 433 1061 457 1082 q 406 1050 419 1050 z "},"Ŗ":{"ha":782,"x_min":39,"x_max":907,"o":"m 250 -18 q 203 -3 229 -18 q 151 46 176 11 q 108 140 125 81 q 92 290 92 200 q 94 437 92 347 q 105 633 97 526 q 124 847 113 739 q 65 903 90 869 q 39 972 39 938 q 47 990 39 985 q 65 994 56 994 q 158 999 104 994 q 267 1007 211 1003 q 365 1011 322 1011 q 511 985 444 1011 q 628 917 578 960 q 707 826 679 875 q 735 729 735 776 q 703 624 735 686 q 610 490 672 561 q 457 354 549 419 l 889 -150 q 901 -168 896 -157 q 907 -189 907 -179 q 882 -208 907 -208 q 825 -200 861 -208 q 751 -174 789 -192 q 683 -131 713 -157 l 282 246 q 279 162 281 203 q 278 86 278 121 q 278 42 278 63 q 281 3 279 21 l 281 1 q 271 -14 281 -10 q 250 -18 261 -18 m 457 850 q 398 846 429 850 q 338 838 367 842 q 314 633 325 743 q 293 414 303 522 q 418 523 368 463 q 492 643 468 583 q 517 751 517 703 q 502 815 517 789 q 457 850 488 842 m 332 -321 q 297 -310 313 -321 q 278 -276 281 -299 q 288 -230 276 -260 q 308 -156 299 -200 q 313 -54 318 -111 q 344 -49 328 -50 q 375 -47 360 -47 q 469 -65 426 -47 q 511 -117 511 -82 q 493 -180 511 -146 q 447 -245 475 -214 q 389 -297 419 -276 q 332 -321 358 -318 z "},"Ȑ":{"ha":782,"x_min":-10,"x_max":907,"o":"m 250 -18 q 203 -3 229 -18 q 151 46 176 11 q 108 140 125 81 q 92 290 92 200 q 94 437 92 347 q 105 633 97 526 q 124 847 113 739 q 65 903 90 869 q 39 972 39 938 q 47 990 39 985 q 65 994 56 994 q 158 999 104 994 q 267 1007 211 1003 q 365 1011 322 1011 q 511 985 444 1011 q 628 917 578 960 q 707 826 679 875 q 735 729 735 776 q 703 624 735 686 q 610 490 672 561 q 457 354 549 419 l 889 -150 q 901 -168 896 -157 q 907 -189 907 -179 q 882 -208 907 -208 q 825 -200 861 -208 q 751 -174 789 -192 q 683 -131 713 -157 l 282 246 q 279 162 281 203 q 278 86 278 121 q 278 42 278 63 q 281 3 279 21 l 281 1 q 271 -14 281 -10 q 250 -18 261 -18 m 457 850 q 398 846 429 850 q 338 838 367 842 q 314 633 325 743 q 293 414 303 522 q 418 523 368 463 q 492 643 468 583 q 517 751 517 703 q 502 815 517 789 q 457 850 488 842 m 597 1057 q 521 1071 568 1057 q 427 1108 474 1085 q 349 1158 381 1131 q 317 1214 317 1186 q 331 1272 317 1242 q 367 1322 344 1301 q 414 1342 389 1342 q 456 1322 436 1342 q 523 1256 485 1292 q 597 1190 561 1221 q 656 1139 633 1158 q 669 1113 669 1126 q 649 1075 669 1093 q 597 1057 628 1057 m 271 1057 q 194 1071 242 1057 q 101 1108 147 1085 q 22 1158 54 1131 q -10 1214 -10 1186 q 4 1272 -10 1242 q 40 1322 18 1301 q 88 1342 63 1342 q 129 1322 110 1342 q 197 1256 158 1292 q 271 1190 235 1221 q 329 1139 307 1158 q 343 1113 343 1126 q 322 1075 343 1093 q 271 1057 301 1057 z "},"Ȓ":{"ha":782,"x_min":39,"x_max":907,"o":"m 250 -18 q 203 -3 229 -18 q 151 46 176 11 q 108 140 125 81 q 92 290 92 200 q 94 437 92 347 q 105 633 97 526 q 124 847 113 739 q 65 903 90 869 q 39 972 39 938 q 47 990 39 985 q 65 994 56 994 q 158 999 104 994 q 267 1007 211 1003 q 365 1011 322 1011 q 511 985 444 1011 q 628 917 578 960 q 707 826 679 875 q 735 729 735 776 q 703 624 735 686 q 610 490 672 561 q 457 354 549 419 l 889 -150 q 901 -168 896 -157 q 907 -189 907 -179 q 882 -208 907 -208 q 825 -200 861 -208 q 751 -174 789 -192 q 683 -131 713 -157 l 282 246 q 279 162 281 203 q 278 86 278 121 q 278 42 278 63 q 281 3 279 21 l 281 1 q 271 -14 281 -10 q 250 -18 261 -18 m 457 850 q 398 846 429 850 q 338 838 367 842 q 314 633 325 743 q 293 414 303 522 q 418 523 368 463 q 492 643 468 583 q 517 751 517 703 q 502 815 517 789 q 457 850 488 842 m 428 1317 q 528 1304 481 1321 q 607 1248 575 1288 q 644 1144 639 1208 q 633 1077 649 1104 q 591 1037 617 1050 q 542 1021 565 1024 q 501 1026 518 1019 q 483 1050 483 1033 q 456 1144 483 1114 q 393 1171 428 1175 q 344 1150 368 1169 q 308 1094 321 1131 q 275 1058 299 1072 q 228 1043 251 1044 q 194 1048 207 1040 q 182 1076 181 1056 q 228 1202 190 1150 q 319 1283 265 1254 q 428 1317 372 1311 z "},"S":{"ha":726,"x_min":38,"x_max":682,"o":"m 354 -18 q 117 44 197 -18 q 38 196 38 107 q 53 269 38 242 q 100 296 69 296 q 178 213 131 249 q 278 159 226 178 q 368 140 329 140 q 417 152 399 140 q 436 190 436 164 q 430 224 436 208 q 398 256 424 239 q 315 294 372 274 l 268 313 q 145 372 190 343 q 81 439 100 401 q 63 529 63 476 q 83 642 63 579 q 138 768 103 704 q 221 886 174 832 q 322 974 268 940 q 435 1007 376 1007 q 517 997 483 1007 q 581 946 550 986 q 640 909 618 935 q 672 856 663 883 q 682 810 682 829 q 668 728 682 774 q 638 635 654 682 q 610 547 621 588 q 601 526 607 535 q 581 518 596 518 q 527 540 558 518 q 472 596 496 561 q 449 667 449 631 q 458 728 449 694 q 478 791 468 761 q 488 836 488 821 q 486 851 488 846 q 475 857 485 857 q 420 826 451 857 q 359 747 389 794 q 310 645 329 699 q 290 547 290 592 q 313 500 290 524 q 397 453 336 476 l 440 436 q 589 362 540 397 q 652 291 638 326 q 667 218 667 256 q 583 44 667 107 q 354 -18 499 -18 z "},"Ś":{"ha":726,"x_min":38,"x_max":696,"o":"m 354 -18 q 117 44 197 -18 q 38 196 38 107 q 53 269 38 242 q 100 296 69 296 q 178 213 131 249 q 278 159 226 178 q 368 140 329 140 q 417 152 399 140 q 436 190 436 164 q 430 224 436 208 q 398 256 424 239 q 315 294 372 274 l 268 313 q 145 372 190 343 q 81 439 100 401 q 63 529 63 476 q 83 642 63 579 q 138 768 103 704 q 221 886 174 832 q 322 974 268 940 q 435 1007 376 1007 q 517 997 483 1007 q 581 946 550 986 q 640 909 618 935 q 672 856 663 883 q 682 810 682 829 q 668 728 682 774 q 638 635 654 682 q 610 547 621 588 q 601 526 607 535 q 581 518 596 518 q 527 540 558 518 q 472 596 496 561 q 449 667 449 631 q 458 728 449 694 q 478 791 468 761 q 488 836 488 821 q 486 851 488 846 q 475 857 485 857 q 420 826 451 857 q 359 747 389 794 q 310 645 329 699 q 290 547 290 592 q 313 500 290 524 q 397 453 336 476 l 440 436 q 589 362 540 397 q 652 291 638 326 q 667 218 667 256 q 583 44 667 107 q 354 -18 499 -18 m 433 1058 q 387 1075 407 1058 q 367 1110 367 1092 q 379 1135 367 1125 q 433 1182 400 1153 q 503 1244 467 1211 q 567 1306 539 1278 q 606 1324 585 1324 q 649 1305 629 1324 q 683 1258 669 1286 q 696 1204 696 1231 q 666 1152 696 1178 q 592 1105 636 1126 q 505 1071 549 1083 q 433 1058 461 1058 z "},"Š":{"ha":726,"x_min":38,"x_max":682,"o":"m 354 -18 q 117 44 197 -18 q 38 196 38 107 q 53 269 38 242 q 100 296 69 296 q 178 213 131 249 q 278 159 226 178 q 368 140 329 140 q 417 152 399 140 q 436 190 436 164 q 430 224 436 208 q 398 256 424 239 q 315 294 372 274 l 268 313 q 145 372 190 343 q 81 439 100 401 q 63 529 63 476 q 83 642 63 579 q 138 768 103 704 q 221 886 174 832 q 322 974 268 940 q 435 1007 376 1007 q 517 997 483 1007 q 581 946 550 986 q 640 909 618 935 q 672 856 663 883 q 682 810 682 829 q 668 728 682 774 q 638 635 654 682 q 610 547 621 588 q 601 526 607 535 q 581 518 596 518 q 527 540 558 518 q 472 596 496 561 q 449 667 449 631 q 458 728 449 694 q 478 791 468 761 q 488 836 488 821 q 486 851 488 846 q 475 857 485 857 q 420 826 451 857 q 359 747 389 794 q 310 645 329 699 q 290 547 290 592 q 313 500 290 524 q 397 453 336 476 l 440 436 q 589 362 540 397 q 652 291 638 326 q 667 218 667 256 q 583 44 667 107 q 354 -18 499 -18 m 435 1050 q 406 1063 418 1050 q 359 1113 388 1081 q 301 1180 331 1146 q 247 1236 272 1214 q 235 1261 235 1249 q 261 1301 235 1283 q 317 1318 288 1318 q 389 1287 353 1318 q 457 1211 425 1256 q 534 1298 503 1265 q 611 1331 565 1331 q 649 1313 636 1331 q 663 1275 663 1294 q 649 1242 663 1253 q 590 1187 625 1222 q 520 1117 554 1151 q 463 1061 486 1082 q 435 1050 449 1050 z "},"Ş":{"ha":726,"x_min":38,"x_max":682,"o":"m 354 -18 q 117 44 197 -18 q 38 196 38 107 q 53 269 38 242 q 100 296 69 296 q 178 213 131 249 q 278 159 226 178 q 368 140 329 140 q 417 152 399 140 q 436 190 436 164 q 430 224 436 208 q 398 256 424 239 q 315 294 372 274 l 268 313 q 145 372 190 343 q 81 439 100 401 q 63 529 63 476 q 83 642 63 579 q 138 768 103 704 q 221 886 174 832 q 322 974 268 940 q 435 1007 376 1007 q 517 997 483 1007 q 581 946 550 986 q 640 909 618 935 q 672 856 663 883 q 682 810 682 829 q 668 728 682 774 q 638 635 654 682 q 610 547 621 588 q 601 526 607 535 q 581 518 596 518 q 527 540 558 518 q 472 596 496 561 q 449 667 449 631 q 458 728 449 694 q 478 791 468 761 q 488 836 488 821 q 486 851 488 846 q 475 857 485 857 q 420 826 451 857 q 359 747 389 794 q 310 645 329 699 q 290 547 290 592 q 313 500 290 524 q 397 453 336 476 l 440 436 q 589 362 540 397 q 652 291 638 326 q 667 218 667 256 q 583 44 667 107 q 354 -18 499 -18 m 247 -271 q 183 -252 214 -271 q 134 -206 153 -233 q 115 -154 115 -179 q 143 -114 115 -114 q 176 -124 163 -114 q 211 -135 190 -135 q 271 -95 243 -135 q 292 42 299 -56 l 394 67 q 422 5 414 38 q 431 -60 431 -28 q 408 -162 431 -114 q 345 -240 386 -210 q 247 -271 304 -271 z "},"Ŝ":{"ha":726,"x_min":38,"x_max":685,"o":"m 354 -18 q 117 44 197 -18 q 38 196 38 107 q 53 269 38 242 q 100 296 69 296 q 178 213 131 249 q 278 159 226 178 q 368 140 329 140 q 417 152 399 140 q 436 190 436 164 q 430 224 436 208 q 398 256 424 239 q 315 294 372 274 l 268 313 q 145 372 190 343 q 81 439 100 401 q 63 529 63 476 q 83 642 63 579 q 138 768 103 704 q 221 886 174 832 q 322 974 268 940 q 435 1007 376 1007 q 517 997 483 1007 q 581 946 550 986 q 640 909 618 935 q 672 856 663 883 q 682 810 682 829 q 668 728 682 774 q 638 635 654 682 q 610 547 621 588 q 601 526 607 535 q 581 518 596 518 q 527 540 558 518 q 472 596 496 561 q 449 667 449 631 q 458 728 449 694 q 478 791 468 761 q 488 836 488 821 q 486 851 488 846 q 475 857 485 857 q 420 826 451 857 q 359 747 389 794 q 310 645 329 699 q 290 547 290 592 q 313 500 290 524 q 397 453 336 476 l 440 436 q 589 362 540 397 q 652 291 638 326 q 667 218 667 256 q 583 44 667 107 q 354 -18 499 -18 m 258 1044 q 216 1066 231 1044 q 201 1110 201 1088 q 215 1146 201 1133 q 284 1208 244 1169 q 363 1287 324 1247 q 428 1350 403 1326 q 460 1364 444 1364 q 493 1349 478 1364 q 545 1291 514 1328 q 610 1217 576 1254 q 672 1153 644 1179 q 685 1125 685 1142 q 654 1079 685 1100 q 590 1058 624 1058 q 510 1090 550 1058 q 435 1164 471 1121 q 347 1078 383 1111 q 258 1044 311 1044 z "},"Ș":{"ha":726,"x_min":38,"x_max":682,"o":"m 354 -18 q 117 44 197 -18 q 38 196 38 107 q 53 269 38 242 q 100 296 69 296 q 178 213 131 249 q 278 159 226 178 q 368 140 329 140 q 417 152 399 140 q 436 190 436 164 q 430 224 436 208 q 398 256 424 239 q 315 294 372 274 l 268 313 q 145 372 190 343 q 81 439 100 401 q 63 529 63 476 q 83 642 63 579 q 138 768 103 704 q 221 886 174 832 q 322 974 268 940 q 435 1007 376 1007 q 517 997 483 1007 q 581 946 550 986 q 640 909 618 935 q 672 856 663 883 q 682 810 682 829 q 668 728 682 774 q 638 635 654 682 q 610 547 621 588 q 601 526 607 535 q 581 518 596 518 q 527 540 558 518 q 472 596 496 561 q 449 667 449 631 q 458 728 449 694 q 478 791 468 761 q 488 836 488 821 q 486 851 488 846 q 475 857 485 857 q 420 826 451 857 q 359 747 389 794 q 310 645 329 699 q 290 547 290 592 q 313 500 290 524 q 397 453 336 476 l 440 436 q 589 362 540 397 q 652 291 638 326 q 667 218 667 256 q 583 44 667 107 q 354 -18 499 -18 m 267 -321 q 231 -310 247 -321 q 213 -276 215 -299 q 222 -230 211 -260 q 243 -156 233 -200 q 247 -54 253 -111 q 278 -49 263 -50 q 310 -47 294 -47 q 403 -65 361 -47 q 446 -117 446 -82 q 428 -180 446 -146 q 382 -245 410 -214 q 324 -297 354 -276 q 267 -321 293 -318 z "},"ẞ":{"ha":864,"x_min":21,"x_max":843,"o":"m 432 -12 q 273 18 347 -12 q 142 104 199 49 q 53 235 85 160 q 21 399 21 310 q 53 558 21 483 q 142 689 85 632 q 273 778 199 746 q 432 810 347 810 q 591 778 517 810 q 722 689 665 746 q 811 558 779 632 q 843 399 843 483 q 811 240 843 314 q 722 108 779 165 q 591 19 665 51 q 432 -12 517 -12 m 738 275 q 761 399 761 335 q 717 565 761 490 q 598 683 672 639 q 432 728 524 728 q 292 695 347 728 q 210 608 238 663 q 183 492 183 554 q 222 360 183 418 q 218 399 218 379 q 247 507 218 458 q 325 585 276 556 q 432 614 374 614 q 580 574 510 614 q 694 465 650 535 q 739 306 739 396 q 739 290 739 299 q 738 275 739 282 m 432 242 q 510 263 475 242 q 567 320 546 285 q 589 399 589 356 q 567 477 589 442 q 510 534 546 513 q 432 556 475 556 q 353 534 389 556 q 297 477 318 513 q 275 399 275 442 q 297 320 275 356 q 353 263 318 285 q 432 242 389 242 m 432 69 q 560 99 504 69 q 649 181 617 128 q 682 306 682 233 q 672 376 682 342 q 643 438 661 410 q 646 419 644 428 q 647 399 647 410 q 618 292 647 340 q 540 214 589 243 q 432 185 492 185 q 280 226 350 185 q 167 336 210 267 q 125 492 125 406 q 125 507 125 499 q 126 522 125 515 q 103 399 103 463 q 147 233 103 308 q 266 114 192 158 q 432 69 340 69 z "},"T":{"ha":721,"x_min":-14,"x_max":739,"o":"m 393 -19 q 321 4 360 -19 q 257 85 282 28 q 238 240 232 142 l 267 797 q 223 794 244 794 q 182 793 201 793 q 85 819 131 793 q 13 883 40 846 q -14 954 -14 921 q 14 978 -14 978 q 76 982 31 978 q 183 992 122 986 q 305 1003 243 997 q 417 1013 367 1008 q 492 1017 468 1017 q 575 1001 532 1017 q 655 959 618 985 q 715 902 692 933 q 739 842 739 871 q 724 826 739 826 q 699 827 710 826 q 675 828 688 828 q 579 825 628 828 q 483 818 531 822 l 436 15 q 426 -12 435 -4 q 393 -19 417 -19 z "},"Ŧ":{"ha":721,"x_min":-14,"x_max":739,"o":"m 393 -19 q 321 4 360 -19 q 257 85 282 28 q 238 240 232 142 l 249 449 q 238 449 243 449 q 163 469 197 449 q 106 519 128 489 q 85 575 85 549 q 108 594 85 594 q 165 599 124 594 q 257 611 207 604 l 267 797 q 223 794 244 794 q 182 793 201 793 q 85 819 131 793 q 13 883 40 846 q -14 954 -14 921 q 14 978 -14 978 q 76 982 31 978 q 183 992 122 986 q 305 1003 243 997 q 417 1013 367 1008 q 492 1017 468 1017 q 575 1001 532 1017 q 655 959 618 985 q 715 902 692 933 q 739 842 739 871 q 724 826 739 826 q 699 827 710 826 q 675 828 688 828 q 579 825 628 828 q 483 818 531 822 l 472 636 q 499 638 488 638 q 568 614 535 638 q 623 557 601 590 q 644 493 644 524 q 632 481 644 481 l 590 481 q 524 478 556 481 q 463 472 492 476 l 436 15 q 426 -12 435 -4 q 393 -19 417 -19 z "},"Ť":{"ha":721,"x_min":-14,"x_max":739,"o":"m 393 -19 q 321 4 360 -19 q 257 85 282 28 q 238 240 232 142 l 267 797 q 223 794 244 794 q 182 793 201 793 q 85 819 131 793 q 13 883 40 846 q -14 954 -14 921 q 14 978 -14 978 q 76 982 31 978 q 183 992 122 986 q 305 1003 243 997 q 417 1013 367 1008 q 492 1017 468 1017 q 575 1001 532 1017 q 655 959 618 985 q 715 902 692 933 q 739 842 739 871 q 724 826 739 826 q 699 827 710 826 q 675 828 688 828 q 579 825 628 828 q 483 818 531 822 l 436 15 q 426 -12 435 -4 q 393 -19 417 -19 m 374 1050 q 344 1063 357 1050 q 298 1113 326 1081 q 240 1180 269 1146 q 186 1236 211 1214 q 174 1261 174 1249 q 200 1301 174 1283 q 256 1318 226 1318 q 328 1287 292 1318 q 396 1211 364 1256 q 473 1298 442 1265 q 550 1331 504 1331 q 588 1313 575 1331 q 601 1275 601 1294 q 588 1242 601 1253 q 528 1187 564 1222 q 459 1117 493 1151 q 401 1061 425 1082 q 374 1050 388 1050 z "},"Ţ":{"ha":721,"x_min":-14,"x_max":739,"o":"m 393 -19 q 321 4 360 -19 q 257 85 282 28 q 238 240 232 142 l 267 797 q 223 794 244 794 q 182 793 201 793 q 85 819 131 793 q 13 883 40 846 q -14 954 -14 921 q 14 978 -14 978 q 76 982 31 978 q 183 992 122 986 q 305 1003 243 997 q 417 1013 367 1008 q 492 1017 468 1017 q 575 1001 532 1017 q 655 959 618 985 q 715 902 692 933 q 739 842 739 871 q 724 826 739 826 q 699 827 710 826 q 675 828 688 828 q 579 825 628 828 q 483 818 531 822 l 436 15 q 426 -12 435 -4 q 393 -19 417 -19 m 244 -271 q 181 -252 211 -271 q 131 -206 150 -233 q 113 -154 113 -179 q 140 -114 113 -114 q 174 -124 160 -114 q 208 -135 188 -135 q 268 -95 240 -135 q 289 42 296 -56 l 392 67 q 419 5 411 38 q 428 -60 428 -28 q 406 -162 428 -114 q 342 -240 383 -210 q 244 -271 301 -271 z "},"Ț":{"ha":721,"x_min":-14,"x_max":739,"o":"m 393 -19 q 321 4 360 -19 q 257 85 282 28 q 238 240 232 142 l 267 797 q 223 794 244 794 q 182 793 201 793 q 85 819 131 793 q 13 883 40 846 q -14 954 -14 921 q 14 978 -14 978 q 76 982 31 978 q 183 992 122 986 q 305 1003 243 997 q 417 1013 367 1008 q 492 1017 468 1017 q 575 1001 532 1017 q 655 959 618 985 q 715 902 692 933 q 739 842 739 871 q 724 826 739 826 q 699 827 710 826 q 675 828 688 828 q 579 825 628 828 q 483 818 531 822 l 436 15 q 426 -12 435 -4 q 393 -19 417 -19 m 264 -321 q 228 -310 244 -321 q 210 -276 213 -299 q 219 -230 208 -260 q 240 -156 231 -200 q 244 -54 250 -111 q 276 -49 260 -50 q 307 -47 292 -47 q 401 -65 358 -47 q 443 -117 443 -82 q 425 -180 443 -146 q 379 -245 407 -214 q 321 -297 351 -276 q 264 -321 290 -318 z "},"U":{"ha":811,"x_min":90,"x_max":743,"o":"m 388 -15 q 293 0 344 -15 q 195 48 242 15 q 119 132 149 81 q 90 254 90 183 q 92 330 90 275 q 96 458 93 385 q 102 613 99 532 q 108 766 106 693 q 114 891 111 839 q 117 960 117 943 q 134 1002 118 993 q 169 1011 150 1011 q 241 994 204 1011 q 304 931 278 976 q 331 801 331 886 q 325 692 331 769 q 313 517 319 615 q 307 317 307 418 q 327 229 307 265 q 390 193 347 193 q 455 215 429 193 q 492 310 481 238 q 499 382 496 332 q 505 497 501 432 q 511 633 508 563 q 517 769 514 704 q 521 883 519 835 q 524 953 522 932 q 542 1001 526 992 q 576 1011 557 1011 q 651 994 611 1011 q 717 939 690 978 q 740 831 743 900 q 732 671 739 764 q 716 471 725 578 q 694 257 707 364 q 652 120 685 174 q 573 38 619 67 q 478 -3 526 8 q 388 -15 429 -15 z "},"Ú":{"ha":811,"x_min":90,"x_max":743,"o":"m 388 -15 q 293 0 344 -15 q 195 48 242 15 q 119 132 149 81 q 90 254 90 183 q 92 330 90 275 q 96 458 93 385 q 102 613 99 532 q 108 766 106 693 q 114 891 111 839 q 117 960 117 943 q 134 1002 118 993 q 169 1011 150 1011 q 241 994 204 1011 q 304 931 278 976 q 331 801 331 886 q 325 692 331 769 q 313 517 319 615 q 307 317 307 418 q 327 229 307 265 q 390 193 347 193 q 455 215 429 193 q 492 310 481 238 q 499 382 496 332 q 505 497 501 432 q 511 633 508 563 q 517 769 514 704 q 521 883 519 835 q 524 953 522 932 q 542 1001 526 992 q 576 1011 557 1011 q 651 994 611 1011 q 717 939 690 978 q 740 831 743 900 q 732 671 739 764 q 716 471 725 578 q 694 257 707 364 q 652 120 685 174 q 573 38 619 67 q 478 -3 526 8 q 388 -15 429 -15 m 428 1058 q 381 1075 401 1058 q 361 1110 361 1092 q 374 1135 361 1125 q 428 1182 394 1153 q 497 1244 461 1211 q 561 1306 533 1278 q 600 1324 579 1324 q 644 1305 624 1324 q 677 1258 664 1286 q 690 1204 690 1231 q 660 1152 690 1178 q 587 1105 631 1126 q 499 1071 543 1083 q 428 1058 456 1058 z "},"Ŭ":{"ha":811,"x_min":90,"x_max":743,"o":"m 388 -15 q 293 0 344 -15 q 195 48 242 15 q 119 132 149 81 q 90 254 90 183 q 92 330 90 275 q 96 458 93 385 q 102 613 99 532 q 108 766 106 693 q 114 891 111 839 q 117 960 117 943 q 134 1002 118 993 q 169 1011 150 1011 q 241 994 204 1011 q 304 931 278 976 q 331 801 331 886 q 325 692 331 769 q 313 517 319 615 q 307 317 307 418 q 327 229 307 265 q 390 193 347 193 q 455 215 429 193 q 492 310 481 238 q 499 382 496 332 q 505 497 501 432 q 511 633 508 563 q 517 769 514 704 q 521 883 519 835 q 524 953 522 932 q 542 1001 526 992 q 576 1011 557 1011 q 651 994 611 1011 q 717 939 690 978 q 740 831 743 900 q 732 671 739 764 q 716 471 725 578 q 694 257 707 364 q 652 120 685 174 q 573 38 619 67 q 478 -3 526 8 q 388 -15 429 -15 m 424 1053 q 325 1074 371 1053 q 251 1137 279 1094 q 222 1243 222 1179 q 240 1310 222 1285 q 285 1346 258 1335 q 336 1357 313 1357 q 376 1348 360 1357 q 392 1324 393 1339 q 411 1227 386 1260 q 471 1194 436 1194 q 521 1212 496 1194 q 563 1264 546 1229 q 599 1297 574 1285 q 647 1308 624 1308 q 680 1299 667 1308 q 689 1271 693 1290 q 633 1150 675 1199 q 536 1077 592 1101 q 424 1053 481 1053 z "},"Û":{"ha":811,"x_min":90,"x_max":743,"o":"m 388 -15 q 293 0 344 -15 q 195 48 242 15 q 119 132 149 81 q 90 254 90 183 q 92 330 90 275 q 96 458 93 385 q 102 613 99 532 q 108 766 106 693 q 114 891 111 839 q 117 960 117 943 q 134 1002 118 993 q 169 1011 150 1011 q 241 994 204 1011 q 304 931 278 976 q 331 801 331 886 q 325 692 331 769 q 313 517 319 615 q 307 317 307 418 q 327 229 307 265 q 390 193 347 193 q 455 215 429 193 q 492 310 481 238 q 499 382 496 332 q 505 497 501 432 q 511 633 508 563 q 517 769 514 704 q 521 883 519 835 q 524 953 522 932 q 542 1001 526 992 q 576 1011 557 1011 q 651 994 611 1011 q 717 939 690 978 q 740 831 743 900 q 732 671 739 764 q 716 471 725 578 q 694 257 707 364 q 652 120 685 174 q 573 38 619 67 q 478 -3 526 8 q 388 -15 429 -15 m 253 1044 q 210 1066 225 1044 q 196 1110 196 1088 q 210 1146 196 1133 q 278 1208 239 1169 q 358 1287 318 1247 q 422 1350 397 1326 q 454 1364 439 1364 q 488 1349 472 1364 q 540 1291 508 1328 q 605 1217 571 1254 q 667 1153 639 1179 q 679 1125 679 1142 q 649 1079 679 1100 q 585 1058 618 1058 q 505 1090 544 1058 q 429 1164 465 1121 q 342 1078 378 1111 q 253 1044 306 1044 z "},"Ȕ":{"ha":811,"x_min":14,"x_max":743,"o":"m 388 -15 q 293 0 344 -15 q 195 48 242 15 q 119 132 149 81 q 90 254 90 183 q 92 330 90 275 q 96 458 93 385 q 102 613 99 532 q 108 766 106 693 q 114 891 111 839 q 117 960 117 943 q 134 1002 118 993 q 169 1011 150 1011 q 241 994 204 1011 q 304 931 278 976 q 331 801 331 886 q 325 692 331 769 q 313 517 319 615 q 307 317 307 418 q 327 229 307 265 q 390 193 347 193 q 455 215 429 193 q 492 310 481 238 q 499 382 496 332 q 505 497 501 432 q 511 633 508 563 q 517 769 514 704 q 521 883 519 835 q 524 953 522 932 q 542 1001 526 992 q 576 1011 557 1011 q 651 994 611 1011 q 717 939 690 978 q 740 831 743 900 q 732 671 739 764 q 716 471 725 578 q 694 257 707 364 q 652 120 685 174 q 573 38 619 67 q 478 -3 526 8 q 388 -15 429 -15 m 621 1057 q 544 1071 592 1057 q 451 1108 497 1085 q 372 1158 404 1131 q 340 1214 340 1186 q 354 1272 340 1242 q 390 1322 368 1301 q 438 1342 413 1342 q 479 1322 460 1342 q 547 1256 508 1292 q 621 1190 585 1221 q 679 1139 657 1158 q 693 1113 693 1126 q 672 1075 693 1093 q 621 1057 651 1057 m 294 1057 q 218 1071 265 1057 q 124 1108 171 1085 q 46 1158 78 1131 q 14 1214 14 1186 q 28 1272 14 1242 q 64 1322 42 1301 q 111 1342 86 1342 q 153 1322 133 1342 q 220 1256 182 1292 q 294 1190 258 1221 q 353 1139 331 1158 q 367 1113 367 1126 q 346 1075 367 1093 q 294 1057 325 1057 z "},"Ü":{"ha":811,"x_min":90,"x_max":743,"o":"m 388 -15 q 293 0 344 -15 q 195 48 242 15 q 119 132 149 81 q 90 254 90 183 q 92 330 90 275 q 96 458 93 385 q 102 613 99 532 q 108 766 106 693 q 114 891 111 839 q 117 960 117 943 q 134 1002 118 993 q 169 1011 150 1011 q 241 994 204 1011 q 304 931 278 976 q 331 801 331 886 q 325 692 331 769 q 313 517 319 615 q 307 317 307 418 q 327 229 307 265 q 390 193 347 193 q 455 215 429 193 q 492 310 481 238 q 499 382 496 332 q 505 497 501 432 q 511 633 508 563 q 517 769 514 704 q 521 883 519 835 q 524 953 522 932 q 542 1001 526 992 q 576 1011 557 1011 q 651 994 611 1011 q 717 939 690 978 q 740 831 743 900 q 732 671 739 764 q 716 471 725 578 q 694 257 707 364 q 652 120 685 174 q 573 38 619 67 q 478 -3 526 8 q 388 -15 429 -15 m 608 1092 q 493 1117 539 1092 q 447 1219 447 1142 q 453 1277 447 1246 q 489 1315 458 1308 q 529 1319 506 1318 q 571 1321 553 1321 q 657 1308 610 1321 q 681 1290 681 1303 q 665 1215 681 1258 q 650 1097 650 1172 q 608 1092 628 1092 m 340 1092 q 225 1117 271 1092 q 179 1219 179 1142 q 185 1277 179 1246 q 221 1315 190 1308 q 261 1319 238 1318 q 303 1321 285 1321 q 389 1308 342 1321 q 413 1290 413 1303 q 397 1215 413 1258 q 382 1097 382 1172 q 340 1092 360 1092 z "},"Ụ":{"ha":811,"x_min":90,"x_max":743,"o":"m 388 -15 q 293 0 344 -15 q 195 48 242 15 q 119 132 149 81 q 90 254 90 183 q 92 330 90 275 q 96 458 93 385 q 102 613 99 532 q 108 766 106 693 q 114 891 111 839 q 117 960 117 943 q 134 1002 118 993 q 169 1011 150 1011 q 241 994 204 1011 q 304 931 278 976 q 331 801 331 886 q 325 692 331 769 q 313 517 319 615 q 307 317 307 418 q 327 229 307 265 q 390 193 347 193 q 455 215 429 193 q 492 310 481 238 q 499 382 496 332 q 505 497 501 432 q 511 633 508 563 q 517 769 514 704 q 521 883 519 835 q 524 953 522 932 q 542 1001 526 992 q 576 1011 557 1011 q 651 994 611 1011 q 717 939 690 978 q 740 831 743 900 q 732 671 739 764 q 716 471 725 578 q 694 257 707 364 q 652 120 685 174 q 573 38 619 67 q 478 -3 526 8 q 388 -15 429 -15 m 443 -289 q 359 -278 397 -289 q 299 -240 321 -268 q 281 -161 278 -212 q 288 -103 283 -135 q 324 -65 293 -72 q 364 -61 340 -62 q 406 -60 388 -60 q 492 -72 444 -60 q 515 -90 515 -78 q 506 -165 515 -122 q 485 -283 496 -208 q 443 -289 463 -289 z "},"Ù":{"ha":811,"x_min":90,"x_max":743,"o":"m 388 -15 q 293 0 344 -15 q 195 48 242 15 q 119 132 149 81 q 90 254 90 183 q 92 330 90 275 q 96 458 93 385 q 102 613 99 532 q 108 766 106 693 q 114 891 111 839 q 117 960 117 943 q 134 1002 118 993 q 169 1011 150 1011 q 241 994 204 1011 q 304 931 278 976 q 331 801 331 886 q 325 692 331 769 q 313 517 319 615 q 307 317 307 418 q 327 229 307 265 q 390 193 347 193 q 455 215 429 193 q 492 310 481 238 q 499 382 496 332 q 505 497 501 432 q 511 633 508 563 q 517 769 514 704 q 521 883 519 835 q 524 953 522 932 q 542 1001 526 992 q 576 1011 557 1011 q 651 994 611 1011 q 717 939 690 978 q 740 831 743 900 q 732 671 739 764 q 716 471 725 578 q 694 257 707 364 q 652 120 685 174 q 573 38 619 67 q 478 -3 526 8 q 388 -15 429 -15 m 500 1057 q 409 1074 458 1057 q 315 1117 360 1092 q 242 1169 271 1143 q 214 1213 214 1194 q 231 1265 214 1240 q 272 1306 247 1290 q 322 1322 297 1322 q 363 1307 347 1322 q 424 1249 389 1283 q 493 1181 458 1214 q 553 1128 528 1149 q 567 1103 567 1118 q 549 1071 567 1085 q 500 1057 532 1057 z "},"Ủ":{"ha":811,"x_min":90,"x_max":743,"o":"m 388 -15 q 293 0 344 -15 q 195 48 242 15 q 119 132 149 81 q 90 254 90 183 q 92 330 90 275 q 96 458 93 385 q 102 613 99 532 q 108 766 106 693 q 114 891 111 839 q 117 960 117 943 q 134 1002 118 993 q 169 1011 150 1011 q 241 994 204 1011 q 304 931 278 976 q 331 801 331 886 q 325 692 331 769 q 313 517 319 615 q 307 317 307 418 q 327 229 307 265 q 390 193 347 193 q 455 215 429 193 q 492 310 481 238 q 499 382 496 332 q 505 497 501 432 q 511 633 508 563 q 517 769 514 704 q 521 883 519 835 q 524 953 522 932 q 542 1001 526 992 q 576 1011 557 1011 q 651 994 611 1011 q 717 939 690 978 q 740 831 743 900 q 732 671 739 764 q 716 471 725 578 q 694 257 707 364 q 652 120 685 174 q 573 38 619 67 q 478 -3 526 8 q 388 -15 429 -15 m 438 1071 q 400 1088 414 1071 q 386 1124 386 1104 q 396 1154 386 1140 q 417 1184 407 1169 q 428 1210 428 1199 q 413 1226 428 1222 q 378 1229 397 1229 q 353 1228 365 1229 q 329 1228 340 1228 q 290 1252 303 1228 q 273 1308 276 1276 q 269 1364 269 1340 q 276 1390 269 1383 q 292 1396 282 1396 q 313 1393 301 1396 q 335 1390 324 1390 q 527 1348 467 1390 q 588 1244 588 1306 q 572 1185 588 1217 q 530 1125 556 1153 q 475 1082 504 1097 q 438 1071 453 1071 z "},"Ư":{"ha":811,"x_min":90,"x_max":981,"o":"m 388 -15 q 293 0 344 -15 q 195 48 242 15 q 119 132 149 81 q 90 254 90 183 q 92 330 90 275 q 96 458 93 385 q 102 613 99 532 q 108 766 106 693 q 114 891 111 839 q 117 960 117 943 q 134 1002 118 993 q 169 1011 150 1011 q 241 994 204 1011 q 304 931 278 976 q 331 801 331 886 q 325 692 331 769 q 313 517 319 615 q 307 317 307 418 q 327 229 307 265 q 390 193 347 193 q 455 215 429 193 q 492 310 481 238 q 499 382 496 332 q 505 497 501 432 q 511 633 508 563 q 517 769 514 704 q 521 883 519 835 q 524 953 522 932 q 542 1001 526 992 q 576 1011 557 1011 q 651 994 611 1011 q 717 939 690 978 q 740 831 743 900 q 732 671 739 764 q 716 471 725 578 q 694 257 707 364 q 652 120 685 174 q 573 38 619 67 q 478 -3 526 8 q 388 -15 429 -15 m 761 819 q 690 825 726 819 q 615 844 654 831 l 550 1007 q 600 999 575 1000 q 654 997 625 997 q 749 1044 717 997 q 782 1172 782 1092 q 794 1199 782 1194 q 815 1204 806 1204 q 865 1192 836 1204 q 919 1162 893 1181 q 963 1121 946 1143 q 981 1076 981 1099 q 960 955 981 1014 q 892 858 940 896 q 761 819 844 819 z "},"Ứ":{"ha":811,"x_min":90,"x_max":981,"o":"m 388 -15 q 293 0 344 -15 q 195 48 242 15 q 119 132 149 81 q 90 254 90 183 q 92 330 90 275 q 96 458 93 385 q 102 613 99 532 q 108 766 106 693 q 114 891 111 839 q 117 960 117 943 q 134 1002 118 993 q 169 1011 150 1011 q 241 994 204 1011 q 304 931 278 976 q 331 801 331 886 q 325 692 331 769 q 313 517 319 615 q 307 317 307 418 q 327 229 307 265 q 390 193 347 193 q 455 215 429 193 q 492 310 481 238 q 499 382 496 332 q 505 497 501 432 q 511 633 508 563 q 517 769 514 704 q 521 883 519 835 q 524 953 522 932 q 542 1001 526 992 q 576 1011 557 1011 q 651 994 611 1011 q 717 939 690 978 q 740 831 743 900 q 732 671 739 764 q 716 471 725 578 q 694 257 707 364 q 652 120 685 174 q 573 38 619 67 q 478 -3 526 8 q 388 -15 429 -15 m 761 819 q 690 825 726 819 q 615 844 654 831 l 550 1007 q 600 999 575 1000 q 654 997 625 997 q 749 1044 717 997 q 782 1172 782 1092 q 794 1199 782 1194 q 815 1204 806 1204 q 865 1192 836 1204 q 919 1162 893 1181 q 963 1121 946 1143 q 981 1076 981 1099 q 960 955 981 1014 q 892 858 940 896 q 761 819 844 819 m 428 1058 q 381 1075 401 1058 q 361 1110 361 1092 q 374 1135 361 1125 q 428 1182 394 1153 q 497 1244 461 1211 q 561 1306 533 1278 q 600 1324 579 1324 q 644 1305 624 1324 q 677 1258 664 1286 q 690 1204 690 1231 q 660 1152 690 1178 q 587 1105 631 1126 q 499 1071 543 1083 q 428 1058 456 1058 z "},"Ự":{"ha":811,"x_min":90,"x_max":981,"o":"m 388 -15 q 293 0 344 -15 q 195 48 242 15 q 119 132 149 81 q 90 254 90 183 q 92 330 90 275 q 96 458 93 385 q 102 613 99 532 q 108 766 106 693 q 114 891 111 839 q 117 960 117 943 q 134 1002 118 993 q 169 1011 150 1011 q 241 994 204 1011 q 304 931 278 976 q 331 801 331 886 q 325 692 331 769 q 313 517 319 615 q 307 317 307 418 q 327 229 307 265 q 390 193 347 193 q 455 215 429 193 q 492 310 481 238 q 499 382 496 332 q 505 497 501 432 q 511 633 508 563 q 517 769 514 704 q 521 883 519 835 q 524 953 522 932 q 542 1001 526 992 q 576 1011 557 1011 q 651 994 611 1011 q 717 939 690 978 q 740 831 743 900 q 732 671 739 764 q 716 471 725 578 q 694 257 707 364 q 652 120 685 174 q 573 38 619 67 q 478 -3 526 8 q 388 -15 429 -15 m 761 819 q 690 825 726 819 q 615 844 654 831 l 550 1007 q 600 999 575 1000 q 654 997 625 997 q 749 1044 717 997 q 782 1172 782 1092 q 794 1199 782 1194 q 815 1204 806 1204 q 865 1192 836 1204 q 919 1162 893 1181 q 963 1121 946 1143 q 981 1076 981 1099 q 960 955 981 1014 q 892 858 940 896 q 761 819 844 819 m 443 -289 q 359 -278 397 -289 q 299 -240 321 -268 q 281 -161 278 -212 q 288 -103 283 -135 q 324 -65 293 -72 q 364 -61 340 -62 q 406 -60 388 -60 q 492 -72 444 -60 q 515 -90 515 -78 q 506 -165 515 -122 q 485 -283 496 -208 q 443 -289 463 -289 z "},"Ừ":{"ha":811,"x_min":90,"x_max":981,"o":"m 388 -15 q 293 0 344 -15 q 195 48 242 15 q 119 132 149 81 q 90 254 90 183 q 92 330 90 275 q 96 458 93 385 q 102 613 99 532 q 108 766 106 693 q 114 891 111 839 q 117 960 117 943 q 134 1002 118 993 q 169 1011 150 1011 q 241 994 204 1011 q 304 931 278 976 q 331 801 331 886 q 325 692 331 769 q 313 517 319 615 q 307 317 307 418 q 327 229 307 265 q 390 193 347 193 q 455 215 429 193 q 492 310 481 238 q 499 382 496 332 q 505 497 501 432 q 511 633 508 563 q 517 769 514 704 q 521 883 519 835 q 524 953 522 932 q 542 1001 526 992 q 576 1011 557 1011 q 651 994 611 1011 q 717 939 690 978 q 740 831 743 900 q 732 671 739 764 q 716 471 725 578 q 694 257 707 364 q 652 120 685 174 q 573 38 619 67 q 478 -3 526 8 q 388 -15 429 -15 m 761 819 q 690 825 726 819 q 615 844 654 831 l 550 1007 q 600 999 575 1000 q 654 997 625 997 q 749 1044 717 997 q 782 1172 782 1092 q 794 1199 782 1194 q 815 1204 806 1204 q 865 1192 836 1204 q 919 1162 893 1181 q 963 1121 946 1143 q 981 1076 981 1099 q 960 955 981 1014 q 892 858 940 896 q 761 819 844 819 m 500 1057 q 409 1074 458 1057 q 315 1117 360 1092 q 242 1169 271 1143 q 214 1213 214 1194 q 231 1265 214 1240 q 272 1306 247 1290 q 322 1322 297 1322 q 363 1307 347 1322 q 424 1249 389 1283 q 493 1181 458 1214 q 553 1128 528 1149 q 567 1103 567 1118 q 549 1071 567 1085 q 500 1057 532 1057 z "},"Ử":{"ha":811,"x_min":90,"x_max":981,"o":"m 388 -15 q 293 0 344 -15 q 195 48 242 15 q 119 132 149 81 q 90 254 90 183 q 92 330 90 275 q 96 458 93 385 q 102 613 99 532 q 108 766 106 693 q 114 891 111 839 q 117 960 117 943 q 134 1002 118 993 q 169 1011 150 1011 q 241 994 204 1011 q 304 931 278 976 q 331 801 331 886 q 325 692 331 769 q 313 517 319 615 q 307 317 307 418 q 327 229 307 265 q 390 193 347 193 q 455 215 429 193 q 492 310 481 238 q 499 382 496 332 q 505 497 501 432 q 511 633 508 563 q 517 769 514 704 q 521 883 519 835 q 524 953 522 932 q 542 1001 526 992 q 576 1011 557 1011 q 651 994 611 1011 q 717 939 690 978 q 740 831 743 900 q 732 671 739 764 q 716 471 725 578 q 694 257 707 364 q 652 120 685 174 q 573 38 619 67 q 478 -3 526 8 q 388 -15 429 -15 m 761 819 q 690 825 726 819 q 615 844 654 831 l 550 1007 q 600 999 575 1000 q 654 997 625 997 q 749 1044 717 997 q 782 1172 782 1092 q 794 1199 782 1194 q 815 1204 806 1204 q 865 1192 836 1204 q 919 1162 893 1181 q 963 1121 946 1143 q 981 1076 981 1099 q 960 955 981 1014 q 892 858 940 896 q 761 819 844 819 m 438 1071 q 400 1088 414 1071 q 386 1124 386 1104 q 396 1154 386 1140 q 417 1184 407 1169 q 428 1210 428 1199 q 413 1226 428 1222 q 378 1229 397 1229 q 353 1228 365 1229 q 329 1228 340 1228 q 290 1252 303 1228 q 273 1308 276 1276 q 269 1364 269 1340 q 276 1390 269 1383 q 292 1396 282 1396 q 313 1393 301 1396 q 335 1390 324 1390 q 527 1348 467 1390 q 588 1244 588 1306 q 572 1185 588 1217 q 530 1125 556 1153 q 475 1082 504 1097 q 438 1071 453 1071 z "},"Ữ":{"ha":811,"x_min":90,"x_max":981,"o":"m 388 -15 q 293 0 344 -15 q 195 48 242 15 q 119 132 149 81 q 90 254 90 183 q 92 330 90 275 q 96 458 93 385 q 102 613 99 532 q 108 766 106 693 q 114 891 111 839 q 117 960 117 943 q 134 1002 118 993 q 169 1011 150 1011 q 241 994 204 1011 q 304 931 278 976 q 331 801 331 886 q 325 692 331 769 q 313 517 319 615 q 307 317 307 418 q 327 229 307 265 q 390 193 347 193 q 455 215 429 193 q 492 310 481 238 q 499 382 496 332 q 505 497 501 432 q 511 633 508 563 q 517 769 514 704 q 521 883 519 835 q 524 953 522 932 q 542 1001 526 992 q 576 1011 557 1011 q 651 994 611 1011 q 717 939 690 978 q 740 831 743 900 q 732 671 739 764 q 716 471 725 578 q 694 257 707 364 q 652 120 685 174 q 573 38 619 67 q 478 -3 526 8 q 388 -15 429 -15 m 761 819 q 690 825 726 819 q 615 844 654 831 l 550 1007 q 600 999 575 1000 q 654 997 625 997 q 749 1044 717 997 q 782 1172 782 1092 q 794 1199 782 1194 q 815 1204 806 1204 q 865 1192 836 1204 q 919 1162 893 1181 q 963 1121 946 1143 q 981 1076 981 1099 q 960 955 981 1014 q 892 858 940 896 q 761 819 844 819 m 531 1050 q 465 1067 493 1050 q 415 1100 438 1083 q 368 1117 393 1117 q 321 1088 342 1117 q 299 1069 308 1074 q 281 1064 289 1064 q 253 1094 265 1067 q 242 1164 242 1121 q 261 1224 242 1193 q 310 1278 281 1256 q 372 1300 340 1300 q 442 1283 415 1300 q 489 1249 468 1267 q 535 1232 510 1232 q 583 1263 561 1232 q 604 1282 594 1278 q 622 1286 614 1286 q 649 1258 638 1285 q 661 1186 661 1231 q 642 1126 661 1157 q 592 1072 622 1094 q 531 1050 563 1050 z "},"Ű":{"ha":811,"x_min":90,"x_max":881,"o":"m 388 -15 q 293 0 344 -15 q 195 48 242 15 q 119 132 149 81 q 90 254 90 183 q 92 330 90 275 q 96 458 93 385 q 102 613 99 532 q 108 766 106 693 q 114 891 111 839 q 117 960 117 943 q 134 1002 118 993 q 169 1011 150 1011 q 241 994 204 1011 q 304 931 278 976 q 331 801 331 886 q 325 692 331 769 q 313 517 319 615 q 307 317 307 418 q 327 229 307 265 q 390 193 347 193 q 455 215 429 193 q 492 310 481 238 q 499 382 496 332 q 505 497 501 432 q 511 633 508 563 q 517 769 514 704 q 521 883 519 835 q 524 953 522 932 q 542 1001 526 992 q 576 1011 557 1011 q 651 994 611 1011 q 717 939 690 978 q 740 831 743 900 q 732 671 739 764 q 716 471 725 578 q 694 257 707 364 q 652 120 685 174 q 573 38 619 67 q 478 -3 526 8 q 388 -15 429 -15 m 274 1051 q 222 1069 243 1051 q 201 1107 201 1088 q 215 1133 201 1121 q 274 1184 238 1153 q 348 1251 310 1215 q 415 1317 386 1286 q 457 1336 435 1336 q 504 1316 482 1336 q 540 1266 526 1296 q 554 1208 554 1236 q 522 1153 554 1181 q 444 1102 490 1125 q 350 1065 397 1079 q 274 1051 303 1051 m 600 1051 q 549 1069 569 1051 q 528 1107 528 1088 q 542 1133 528 1121 q 600 1184 564 1153 q 674 1251 636 1215 q 742 1317 713 1286 q 783 1336 761 1336 q 831 1316 808 1336 q 867 1266 853 1296 q 881 1208 881 1236 q 849 1153 881 1181 q 770 1102 817 1125 q 676 1065 724 1079 q 600 1051 629 1051 z "},"Ȗ":{"ha":811,"x_min":90,"x_max":743,"o":"m 388 -15 q 293 0 344 -15 q 195 48 242 15 q 119 132 149 81 q 90 254 90 183 q 92 330 90 275 q 96 458 93 385 q 102 613 99 532 q 108 766 106 693 q 114 891 111 839 q 117 960 117 943 q 134 1002 118 993 q 169 1011 150 1011 q 241 994 204 1011 q 304 931 278 976 q 331 801 331 886 q 325 692 331 769 q 313 517 319 615 q 307 317 307 418 q 327 229 307 265 q 390 193 347 193 q 455 215 429 193 q 492 310 481 238 q 499 382 496 332 q 505 497 501 432 q 511 633 508 563 q 517 769 514 704 q 521 883 519 835 q 524 953 522 932 q 542 1001 526 992 q 576 1011 557 1011 q 651 994 611 1011 q 717 939 690 978 q 740 831 743 900 q 732 671 739 764 q 716 471 725 578 q 694 257 707 364 q 652 120 685 174 q 573 38 619 67 q 478 -3 526 8 q 388 -15 429 -15 m 451 1317 q 551 1304 504 1321 q 631 1248 599 1288 q 668 1144 663 1208 q 656 1077 672 1104 q 615 1037 640 1050 q 565 1021 589 1024 q 524 1026 542 1019 q 507 1050 507 1033 q 479 1144 507 1114 q 417 1171 451 1175 q 368 1150 392 1169 q 332 1094 344 1131 q 299 1058 322 1072 q 251 1043 275 1044 q 217 1048 231 1040 q 206 1076 204 1056 q 251 1202 214 1150 q 342 1283 289 1254 q 451 1317 396 1311 z "}}}
